<svg width="48" height="48" viewBox="0 0 48 48" fill="none" xmlns="http://www.w3.org/2000/svg">
<path d="M33.5845 12.75H14.4111C13.4927 12.75 12.75 13.4751 12.75 14.3716V33.624C12.75 34.5205 13.4927 35.25 14.4111 35.25H33.5845C34.5029 35.25 35.25 34.5205 35.25 33.6284V14.3716C35.25 13.4751 34.5029 12.75 33.5845 12.75ZM19.4253 31.9233H16.0854V21.1831H19.4253V31.9233ZM17.7554 19.7197C16.6831 19.7197 15.8174 18.854 15.8174 17.7861C15.8174 16.7183 16.6831 15.8525 17.7554 15.8525C18.8232 15.8525 19.689 16.7183 19.689 17.7861C19.689 18.8496 18.8232 19.7197 17.7554 19.7197ZM31.9233 31.9233H28.5879V26.7026C28.5879 25.459 28.5659 23.855 26.8521 23.855C25.1162 23.855 24.8525 25.2129 24.8525 26.6147V31.9233H21.5215V21.1831H24.7207V22.6509H24.7646C25.2085 21.8071 26.2983 20.915 27.9199 20.915C31.2993 20.915 31.9233 23.1387 31.9233 26.0303V31.9233Z" fill="white"/>
</svg>
