<?xml version="1.0" encoding="UTF-8"?>
<svg id="Layer_1" xmlns="http://www.w3.org/2000/svg" xmlns:xlink="http://www.w3.org/1999/xlink" version="1.1" viewBox="0 0 32 32">
  <!-- Generator: Adobe Illustrator 29.3.1, SVG Export Plug-In . SVG Version: 2.1.0 Build 151)  -->
  <defs>
    <style>
      .st0 {
        fill: none;
      }

      .st1 {
        fill: #026670;
        fill-rule: evenodd;
      }

      .st2 {
        fill: #fff;
      }

      .st3 {
        clip-path: url(#clippath);
      }
    </style>
    <clipPath id="clippath">
      <rect class="st0" width="32" height="32"/>
    </clipPath>
  </defs>
  <g class="st3">
    <g>
      <path class="st1" d="M0,16C0,7.2,7.2,0,16,0s16,7.2,16,16-7.2,16-16,16S0,24.8,0,16Z"/>
      <path class="st2" d="M18,6.2c-1.5,0-2.7,1.3-2.7,2.7v2.5c-2,.1-3.9.6-5.4,1.5-.6-.5-1.3-.8-2.1-.8-.8,0-1.6.3-2.2.9h0s0,0,0,0c-.5.7-.8,1.6-.6,2.5.1.8.6,1.7,1.4,2.2,0,0,0,.2,0,.3,0,3.7,4.3,6.6,9.6,6.6s9.6-3,9.6-6.6,0-.2,0-.3c.8-.5,1.3-1.4,1.4-2.2.1-.9,0-1.8-.6-2.5h0s0,0,0,0c-.6-.6-1.4-.9-2.2-.9-.7,0-1.5.2-2.1.8-1.5-.8-3.3-1.4-5.4-1.5v-2.5c0-.7.4-1.2,1.2-1.2s.9.2,1.6.4c.6.2,1.4.4,2.5.5.2.7.9,1.3,1.7,1.3s1.8-.8,1.8-1.8-.8-1.8-1.8-1.8-1.3.4-1.6,1c-.9,0-1.5-.2-2.1-.4-.7-.2-1.3-.5-2.1-.5ZM7.8,13.6c.3,0,.6,0,.8.2-.8.7-1.4,1.5-1.8,2.3-.2-.2-.3-.5-.4-.8,0-.5,0-1,.3-1.3.2-.2.6-.4,1.1-.4ZM24.2,13.6c.4,0,.8.2,1.1.4.2.3.4.8.3,1.3,0,.3-.2.6-.4.8-.4-.9-1-1.7-1.8-2.3.2-.1.5-.2.8-.2ZM12.3,15c.8,0,1.5.7,1.5,1.5s-.7,1.5-1.5,1.5-1.5-.7-1.5-1.5.7-1.5,1.5-1.5ZM19.7,15c.8,0,1.5.7,1.5,1.5s-.7,1.5-1.5,1.5-1.5-.7-1.5-1.5.7-1.5,1.5-1.5ZM19.9,19.1c-.5,1.4-2,2.6-3.9,2.6s-3.4-1.2-3.9-2.5c.8.7,2.3,1.2,3.9,1.2s3-.5,3.9-1.3Z"/>
    </g>
  </g>
</svg>