<svg width="32" height="32" viewBox="0 0 32 32" fill="none" xmlns="http://www.w3.org/2000/svg">
<g clip-path="url(#clip0_21_538)">
<path fill-rule="evenodd" clip-rule="evenodd" d="M-0.00189714 16C-0.00189714 7.16344 7.16155 0 15.9981 0C24.8347 0 31.9981 7.16344 31.9981 16C31.9981 24.8366 24.8347 32 15.9981 32C7.16155 32 -0.00189714 24.8366 -0.00189714 16Z" fill="#026670"/>
<path fill-rule="evenodd" clip-rule="evenodd" d="M18.698 9.49895H20.5789V6.24139C19.6682 6.14443 18.7532 6.09657 17.8375 6.09798C15.1162 6.09798 13.2553 7.79846 13.2553 10.9126V13.5965H10.1837V17.2433H13.2553V26.5857H16.9371V17.2433H19.9986L20.4589 13.5965H16.9371V11.2711C16.9371 10.1955 17.2172 9.49895 18.698 9.49895Z" fill="white"/>
</g>
<defs>
<clipPath id="clip0_21_538">
<rect width="32" height="32" fill="white"/>
</clipPath>
</defs>
</svg>
