<svg width="32" height="32" viewBox="0 0 32 32" fill="none" xmlns="http://www.w3.org/2000/svg">
<g clip-path="url(#clip0_21_541)">
<path fill-rule="evenodd" clip-rule="evenodd" d="M-0.00189714 16C-0.00189714 7.16344 7.16155 0 15.9981 0C24.8347 0 31.9981 7.16344 31.9981 16C31.9981 24.8366 24.8347 32 15.9981 32C7.16155 32 -0.00189714 24.8366 -0.00189714 16Z" fill="#026670"/>
<path fill-rule="evenodd" clip-rule="evenodd" d="M8.31243 14.6075C8.31243 13.7472 8.48834 12.8931 8.84214 12.0471C9.19594 11.2011 9.70166 10.4146 10.3613 9.69152C11.0209 8.96846 11.8864 8.38058 12.9599 7.92995C14.0333 7.47931 15.2226 7.254 16.5279 7.254C18.6467 7.254 20.3857 7.92381 21.745 9.26137C23.1042 10.5989 23.7838 12.1762 23.7838 13.993C23.7838 16.3281 23.2082 18.2577 22.0548 19.7796C20.9014 21.3015 19.4123 22.0635 17.5873 22.0635C16.9876 22.0635 16.4239 21.9201 15.8982 21.6333C15.3725 21.3466 15.0027 20.9983 14.7888 20.5887L13.9893 23.825C13.9233 24.0852 13.8354 24.3474 13.7294 24.6137C13.6235 24.8799 13.5055 25.136 13.3796 25.3818C13.2537 25.6276 13.1258 25.859 12.9998 26.0782C12.8739 26.2974 12.746 26.5022 12.62 26.6927C12.4941 26.8832 12.3842 27.045 12.2902 27.1741C12.1963 27.3031 12.1103 27.4158 12.0304 27.512L11.9104 27.6759C11.8704 27.7312 11.8165 27.7517 11.7505 27.7374C11.6846 27.723 11.6446 27.6821 11.6306 27.6145C11.6306 27.6001 11.6206 27.5059 11.6006 27.3277C11.5806 27.1495 11.5606 26.9631 11.5406 26.7644C11.5206 26.5657 11.5007 26.3097 11.4807 25.9963C11.4607 25.6829 11.4547 25.3777 11.4607 25.0848C11.4667 24.7919 11.4867 24.4662 11.5206 24.1118C11.5546 23.7575 11.6046 23.4297 11.6706 23.1286C11.8165 22.4875 12.3102 20.349 13.1497 16.7173C13.0438 16.4982 12.9558 16.236 12.8899 15.9287C12.8239 15.6215 12.7899 15.3716 12.7899 15.1811L12.77 14.8738C12.77 13.9992 12.9858 13.272 13.4196 12.6923C13.8533 12.1127 14.3751 11.8218 14.9887 11.8218C15.4825 11.8218 15.8642 11.9898 16.1381 12.3237C16.4119 12.6575 16.5479 13.0774 16.5479 13.5834C16.5479 13.8968 16.4919 14.2839 16.3779 14.7407C16.264 15.1975 16.1141 15.7239 15.9282 16.3179C15.7423 16.9119 15.6084 17.3933 15.5284 17.762C15.3945 18.3765 15.5124 18.9091 15.8782 19.3597C16.244 19.8103 16.7338 20.0356 17.3474 20.0356C18.4008 20.0356 19.2703 19.4252 19.956 18.2024C20.6416 16.9795 20.9854 15.5027 20.9854 13.7677C20.9854 12.4424 20.5656 11.3609 19.7261 10.5211C18.8866 9.68129 17.7132 9.26138 16.208 9.26138C14.529 9.26138 13.1657 9.81443 12.1203 10.9205C11.0749 12.0266 10.5512 13.3519 10.5512 14.8943C10.5512 15.8099 10.805 16.5801 11.3108 17.2089C11.4847 17.4138 11.5366 17.6329 11.4707 17.8644C11.4447 17.932 11.4047 18.0897 11.3507 18.3355C11.2968 18.5813 11.2568 18.739 11.2308 18.8066C11.2048 18.9562 11.1368 19.0565 11.0309 19.1036C10.925 19.1507 10.805 19.1487 10.6711 19.0934C9.88554 18.7657 9.29587 18.2024 8.90209 17.4035C8.50831 16.6047 8.31241 15.6727 8.31241 14.6075L8.31243 14.6075Z" fill="white"/>
</g>
<defs>
<clipPath id="clip0_21_541">
<rect width="32" height="32" fill="white"/>
</clipPath>
</defs>
</svg>
