<svg width="32" height="32" viewBox="0 0 32 32" fill="none" xmlns="http://www.w3.org/2000/svg">
<g clip-path="url(#clip0_21_518)">
<path fill-rule="evenodd" clip-rule="evenodd" d="M-0.00189714 16C-0.00189714 7.16344 7.16155 0 15.9981 0C24.8347 0 31.9981 7.16344 31.9981 16C31.9981 24.8366 24.8347 32 15.9981 32C7.16155 32 -0.00189714 24.8366 -0.00189714 16Z" fill="#026670"/>
<path fill-rule="evenodd" clip-rule="evenodd" d="M8 9C7.44772 9 7 9.44772 7 10V11.7779L16 14.4779L25 11.7779V10C25 9.44772 24.5523 9 24 9H8ZM25 13.3219L16 16.0219L7 13.3219V22C7 22.5523 7.44772 23 8 23H24C24.5523 23 25 22.5523 25 22V13.3219Z" fill="white"/>
</g>
<defs>
<clipPath id="clip0_21_518">
<rect width="32" height="32" fill="white"/>
</clipPath>
</defs>
</svg>
