<?xml version="1.0" encoding="UTF-8"?>
<svg id="Layer_1" xmlns="http://www.w3.org/2000/svg" xmlns:xlink="http://www.w3.org/1999/xlink" version="1.1" viewBox="0 0 32 32">
  <!-- Generator: Adobe Illustrator 29.3.1, SVG Export Plug-In . SVG Version: 2.1.0 Build 151)  -->
  <defs>
    <style>
      .st0 {
        fill: none;
      }

      .st1 {
        fill: #026670;
        fill-rule: evenodd;
      }

      .st2 {
        fill: #fff;
      }

      .st3 {
        clip-path: url(#clippath);
      }
    </style>
    <clipPath id="clippath">
      <rect class="st0" width="32" height="32"/>
    </clipPath>
  </defs>
  <g class="st3">
    <g>
      <path class="st1" d="M0,16C0,7.2,7.2,0,16,0s16,7.2,16,16-7.2,16-16,16S0,24.8,0,16Z"/>
      <path class="st2" d="M15.9,15.1c-.8-1.6-3-4.5-5-5.9-2-1.4-2.7-1.1-3.2-.9-.6.2-.7,1.1-.7,1.6s.2,4.2.5,4.8c.6,2.1,2.7,2.7,4.8,2.5h.3-.3c-2.9.4-5.5,1.5-2.1,5.3,3.7,3.9,5.1-.8,5.8-3.2.7,2.4,1.5,6.9,5.7,3.2,3.1-3.2.9-4.8-2.1-5.3h-.3.3c2,.2,4.1-.5,4.8-2.5.2-.6.5-4.3.5-4.8s0-1.4-.7-1.6c-.5-.2-1.2-.5-3.2.9-2.1,1.5-4.3,4.4-5,5.9h-.2Z"/>
    </g>
  </g>
</svg>