<svg width="32" height="32" viewBox="0 0 32 32" fill="none" xmlns="http://www.w3.org/2000/svg">
<g clip-path="url(#clip0_138_2615)">
<path fill-rule="evenodd" clip-rule="evenodd" d="M-0.00189714 16C-0.00189714 7.16344 7.16155 0 15.9981 0C24.8347 0 31.9981 7.16344 31.9981 16C31.9981 24.8366 24.8347 32 15.9981 32C7.16155 32 -0.00189714 24.8366 -0.00189714 16Z" fill="#026670"/>
<path fill-rule="evenodd" clip-rule="evenodd" d="M25 24H21.507V18.0507C21.507 16.4196 20.8872 15.508 19.5962 15.508C18.1917 15.508 17.4579 16.4566 17.4579 18.0507V24H14.0917V12.6667H17.4579V14.1933C17.4579 14.1933 18.4701 12.3204 20.8751 12.3204C23.279 12.3204 25 13.7884 25 16.8244V24ZM10.0757 11.1827C8.92913 11.1827 8 10.2462 8 9.09133C8 7.93642 8.92913 7 10.0757 7C11.2224 7 12.1509 7.93642 12.1509 9.09133C12.1509 10.2462 11.2224 11.1827 10.0757 11.1827ZM8.33756 24H11.8477V12.6667H8.33756V24Z" fill="white"/>
</g>
<defs>
<clipPath id="clip0_138_2615">
<rect width="32" height="32" fill="white"/>
</clipPath>
</defs>
</svg>
