<svg width="48" height="48" viewBox="0 0 48 48" fill="none" xmlns="http://www.w3.org/2000/svg">
<path d="M18.9939 34.9694C29.1801 34.9694 34.7531 26.5282 34.7531 19.2103C34.7531 18.973 34.7478 18.7304 34.7372 18.4931C35.8214 17.7091 36.7569 16.738 37.5 15.6254C36.4903 16.0746 35.4184 16.368 34.3206 16.4955C35.4764 15.8027 36.3419 14.7143 36.7564 13.4322C35.6691 14.0766 34.48 14.5311 33.2401 14.7764C32.4047 13.8887 31.3001 13.3009 30.0971 13.104C28.8942 12.907 27.6598 13.1119 26.585 13.6868C25.5101 14.2617 24.6545 15.1747 24.1506 16.2847C23.6466 17.3946 23.5224 18.6396 23.797 19.8273C21.5953 19.7168 19.4414 19.1449 17.475 18.1485C15.5085 17.1522 13.7734 15.7538 12.3821 14.0439C11.6749 15.2631 11.4586 16.7058 11.7769 18.0788C12.0953 19.4518 12.9244 20.6521 14.096 21.4357C13.2165 21.4077 12.3562 21.171 11.5863 20.7449V20.8134C11.5855 22.0929 12.0279 23.3331 12.8381 24.3233C13.6483 25.3135 14.7765 25.9926 16.0308 26.245C15.2161 26.468 14.361 26.5004 13.5317 26.34C13.8856 27.4403 14.5743 28.4027 15.5015 29.0928C16.4287 29.7829 17.5483 30.1664 18.7039 30.1896C16.742 31.7307 14.3184 32.5666 11.8236 32.5626C11.3812 32.562 10.9392 32.5348 10.5 32.4814C13.0345 34.1074 15.9827 34.971 18.9939 34.9694Z" fill="white"/>
</svg>
