<svg width="48" height="48" viewBox="0 0 48 48" fill="none" xmlns="http://www.w3.org/2000/svg">
<path d="M38.6361 18.0273C38.6361 18.0273 38.3444 15.9681 37.446 15.0639C36.3085 13.8738 35.0368 13.868 34.4534 13.798C30.2767 13.4947 24.0056 13.4947 24.0056 13.4947H23.994C23.994 13.4947 17.723 13.4947 13.5462 13.798C12.9628 13.868 11.6911 13.8738 10.5536 15.0639C9.65522 15.9681 9.36938 18.0273 9.36938 18.0273C9.36938 18.0273 9.06604 20.4482 9.06604 22.8633V25.1267C9.06604 27.5417 9.36355 29.9626 9.36355 29.9626C9.36355 29.9626 9.65522 32.0219 10.5477 32.926C11.6853 34.1161 13.1787 34.0752 13.8437 34.2036C16.2354 34.4311 23.9998 34.5011 23.9998 34.5011C23.9998 34.5011 30.2767 34.4894 34.4534 34.1919C35.0368 34.1219 36.3085 34.1161 37.446 32.926C38.3444 32.0219 38.6361 29.9626 38.6361 29.9626C38.6361 29.9626 38.9336 27.5476 38.9336 25.1267V22.8633C38.9336 20.4482 38.6361 18.0273 38.6361 18.0273ZM20.9139 27.8742V19.4798L28.9816 23.6916L20.9139 27.8742Z" fill="white"/>
</svg>
