<svg width="80" height="80" viewBox="0 0 80 80" fill="none" xmlns="http://www.w3.org/2000/svg">
<path fill-rule="evenodd" clip-rule="evenodd" d="M47 23C47 16.383 52.3826 11 58.9995 11C65.6163 11 71 16.383 71 23C71 29.617 65.6162 35 58.9995 35C52.3828 35 47 29.617 47 23ZM59.0247 28.3094L66.8669 20.2633L66.8667 20.2633C67.5763 19.5347 67.5614 18.3674 66.8338 17.6582C66.1042 16.9476 64.9379 16.9625 64.2273 17.6917L57.4887 24.605L53.5252 21.7747C52.6968 21.1833 51.5466 21.3741 50.9548 22.2036C50.3634 23.032 50.5552 24.1828 51.3836 24.7741L56.6347 28.5233C56.6415 28.5281 56.6487 28.5321 56.656 28.5362C56.6621 28.5396 56.6683 28.543 56.6743 28.547C56.7093 28.5701 56.7437 28.5897 56.7792 28.6097C56.8409 28.6467 56.9037 28.6802 56.9679 28.7079C57.0039 28.7239 57.041 28.7388 57.0785 28.7527C57.1495 28.7773 57.2204 28.7979 57.2924 28.8144C57.3031 28.8168 57.3138 28.8195 57.3246 28.8222C57.3456 28.8275 57.3667 28.8328 57.388 28.8365C57.4929 28.855 57.5983 28.8668 57.7043 28.8668H57.7048H57.7053C57.8385 28.8668 57.9711 28.8483 58.1018 28.8205C58.1263 28.815 58.1497 28.8073 58.1733 28.7995C58.1871 28.7949 58.2011 28.7903 58.2154 28.7861C58.3059 28.7604 58.3943 28.73 58.4807 28.6894C58.5171 28.6716 58.5521 28.6521 58.5872 28.6326C58.5947 28.6284 58.6022 28.6242 58.6098 28.62C58.6843 28.5778 58.7558 28.53 58.8258 28.477C58.8684 28.4436 58.9091 28.4097 58.9497 28.3721C58.9604 28.3623 58.9717 28.3536 58.983 28.3448C58.9973 28.3337 59.0116 28.3226 59.0247 28.3094Z" fill="#9FEDD7"/>
<path fill-rule="evenodd" clip-rule="evenodd" d="M47 41.5C47 45.2902 45.8602 48.8141 43.9047 51.7478L55.5815 63.4246C56.753 64.5962 56.753 66.4957 55.5815 67.6673L54.1673 69.0815C52.9957 70.253 51.0962 70.253 49.9246 69.0815L38.1376 57.2945C35.3308 59.0108 32.0309 60 28.5 60C18.2827 60 10 51.7173 10 41.5C10 31.2827 18.2827 23 28.5 23C38.7173 23 47 31.2827 47 41.5ZM28.5 52.5C34.5751 52.5 39.5 47.5751 39.5 41.5C39.5 35.4249 34.5751 30.5 28.5 30.5C22.4249 30.5 17.5 35.4249 17.5 41.5C17.5 47.5751 22.4249 52.5 28.5 52.5Z" fill="#026670"/>
</svg>
