<svg width="80" height="80" viewBox="0 0 80 80" fill="none" xmlns="http://www.w3.org/2000/svg">
<circle cx="11.5" cy="11.5" r="11.5" transform="matrix(0 -1 -1 0 45 74)" fill="white"/>
<path fill-rule="evenodd" clip-rule="evenodd" d="M59 35C59 33.3431 57.6569 32 56 32H54C52.3431 32 51 33.3431 51 35V64C51 65.6569 52.3431 67 54 67H56C57.6569 67 59 65.6569 59 64L59 35Z" fill="#FCE181"/>
<path fill-rule="evenodd" clip-rule="evenodd" d="M45 42C45 40.3431 43.6569 39 42 39H40C38.3431 39 37 40.3431 37 42V71C37 72.6569 38.3431 74 40 74H42C43.6569 74 45 72.6569 45 71L45 42Z" fill="#9FEDD7"/>
<path fill-rule="evenodd" clip-rule="evenodd" d="M31 37C31 35.3431 29.6569 34 28 34H26C24.3431 34 23 35.3431 23 37L23 66C23 67.6569 24.3431 69 26 69H28C29.6569 69 31 67.6569 31 66L31 37Z" fill="#8F5878"/>
<circle cx="12" cy="12" r="12" transform="matrix(0 -1 -1 0 53 29)" fill="#026670"/>
</svg>
