<svg width="80" height="80" viewBox="0 0 80 80" fill="none" xmlns="http://www.w3.org/2000/svg">
<path fill-rule="evenodd" clip-rule="evenodd" d="M54 13C55.6569 13 57 14.3431 57 16V26C57 27.6569 55.6569 29 54 29L25 29C23.3431 29 22 27.6569 22 26V16C22 14.3431 23.3431 13 25 13L54 13Z" fill="#8F5878"/>
<path fill-rule="evenodd" clip-rule="evenodd" d="M54 51C55.6569 51 57 52.3431 57 54V64C57 65.6569 55.6569 67 54 67H25C23.3431 67 22 65.6569 22 64V54C22 52.3431 23.3431 51 25 51H54Z" fill="#8F5878"/>
<path fill-rule="evenodd" clip-rule="evenodd" d="M68 36C69.6569 36 71 37.3431 71 39V41C71 42.6569 69.6569 44 68 44H13C11.3431 44 10 42.6569 10 41V39C10 37.3431 11.3431 36 13 36H68Z" fill="#026670"/>
</svg>
