<svg width="80" height="80" viewBox="0 0 80 80" fill="none" xmlns="http://www.w3.org/2000/svg">
<ellipse cx="9.02916" cy="10.93" rx="9.02916" ry="10.93" transform="matrix(0.707107 -0.707107 -0.707107 -0.707107 20.8067 63.8545)" fill="white"/>
<path fill-rule="evenodd" clip-rule="evenodd" d="M51.7737 52.2702C52.9453 51.0987 52.9453 49.1992 51.7737 48.0276L50.6399 46.8938C49.4683 45.7222 47.5688 45.7222 46.3972 46.8938L31.8221 61.4688C30.6506 62.6404 30.6506 64.5399 31.8221 65.7115L32.956 66.8453C34.1276 68.0169 36.0271 68.0169 37.1986 66.8453L51.7737 52.2702Z" fill="#FCE181"/>
<path fill-rule="evenodd" clip-rule="evenodd" d="M38.4675 47.5181C39.6391 46.3465 39.6391 44.447 38.4675 43.2754L37.3337 42.1416C36.1621 40.97 34.2626 40.97 33.0911 42.1416L18.516 56.7166C17.3444 57.8882 17.3444 59.7877 18.516 60.9593L19.6498 62.0931C20.8214 63.2647 22.7209 63.2647 23.8925 62.0931L38.4675 47.5181Z" fill="#9FEDD7"/>
<path fill-rule="evenodd" clip-rule="evenodd" d="M31.8145 35.1623C32.986 33.9908 32.986 32.0913 31.8145 30.9197L30.6806 29.7858C29.509 28.6143 27.6096 28.6143 26.438 29.7858L11.8629 44.3609C10.6913 45.5325 10.6913 47.432 11.8629 48.6036L12.9968 49.7374C14.1683 50.909 16.0678 50.909 17.2394 49.7374L31.8145 35.1623Z" fill="#8F5878"/>
<path fill-rule="evenodd" clip-rule="evenodd" d="M72.9165 6.02379C73.3244 6.04788 73.6522 6.36795 73.6763 6.77594L73.6763 6.77638L73.6768 6.78781C73.7079 7.47096 74.2845 20.136 66.6934 27.728C64.6537 29.7679 62.414 31.552 60.1741 32.944C61.6138 35.7038 61.1339 39.0316 58.8862 41.2878L54.3988 45.7679C54.2467 45.9199 54.0468 46 53.8388 46C53.7346 46 53.6308 45.984 53.5269 45.9359C53.231 45.816 53.0389 45.52 53.0389 45.2V36.0071C49.7275 36.7355 46.9279 36.1914 45.216 34.4793C43.4883 32.7517 42.9602 29.9996 43.6882 26.6637H34.4971C34.1771 26.6637 33.8812 26.4638 33.7613 26.1678C33.6334 25.8637 33.7053 25.5198 33.9293 25.2958L38.4167 20.8157C39.7685 19.456 41.5445 18.7119 43.4162 18.7119C44.5681 18.7119 45.7199 18.9998 46.7517 19.5279C48.1435 17.288 49.9273 15.0399 51.967 13.0078C58.4618 6.50404 68.8849 6 71.9245 6C72.5645 6 72.9165 6.02379 72.9165 6.02379ZM61.7913 22.1905C62.9428 22.1905 64.0179 21.742 64.822 20.9383V20.9382C66.4983 19.2628 66.4983 16.5467 64.822 14.8798C64.0178 14.0674 62.9425 13.619 61.7913 13.619C60.6484 13.619 59.5734 14.0674 58.7606 14.8798C57.9564 15.6837 57.5078 16.7667 57.5078 17.909C57.5078 19.0514 57.9567 20.1259 58.7606 20.9383C59.5734 21.7421 60.6484 22.1905 61.7913 22.1905Z" fill="#026670"/>
</svg>
