<svg width="80" height="80" viewBox="0 0 80 80" fill="none" xmlns="http://www.w3.org/2000/svg">
<circle cx="21" cy="33" r="7" fill="#FCE181"/>
<circle cx="21" cy="51" r="7" fill="#9FEDD7"/>
<circle cx="21" cy="69" r="7" fill="#8F5878"/>
<path fill-rule="evenodd" clip-rule="evenodd" d="M21.5 4H22H54.5C54.6034 4 54.7053 4.00628 54.8055 4.01848C56.1471 4.00737 57.4697 4.0402 57.4697 4.0402V32.3339L60.4837 29.3888L64 33.0064L56.7999 40.2428C56.3105 40.7311 55.6477 41.0034 54.958 40.9999C54.2957 40.9905 53.6639 40.7182 53.2001 40.2428L46 33.007L49.5163 29.3894L52.4469 32.334V9H23V20C23 20.5523 22.5523 21 22 21H19C18.4477 21 18 20.5523 18 20V5C18 4.44772 18.4477 4 19 4H21.5Z" fill="#026670"/>
<path d="M54.4997 44C51.1636 44 48.1326 44.6911 45.8625 45.8783C43.593 47.0656 42 48.8299 42 50.9187V69.0809C42 71.1701 43.593 72.9208 45.8628 74.1081C48.1323 75.2954 51.1636 76 54.5 76C57.8361 76 60.8671 75.2954 63.1372 74.1081C65.4067 72.9208 67 71.1701 67 69.0809V50.9187C66.9994 48.8298 65.4064 47.0656 63.1369 45.8783C60.8671 44.691 57.8362 44 54.4998 44H54.4997Z" fill="#026670"/>
</svg>
