<svg width="80" height="80" viewBox="0 0 80 80" fill="none" xmlns="http://www.w3.org/2000/svg">
<path d="M53.8127 14.1436C53.0915 13.8513 52.266 14.0149 51.7166 14.546C48.4346 17.7158 43.3364 17.7158 39.6152 17.7158H36.7307C33.02 17.7158 30 20.632 30 24.2154C30 27.5915 32.6895 30.3424 36.1029 30.6536L37.7296 38.5078C37.912 39.3908 38.716 40 39.6134 40C39.7386 40 39.8651 39.9888 39.993 39.9633C41.0348 39.7621 41.7095 38.7845 41.5012 37.778L40.0386 30.7166C43.7168 30.721 48.5539 30.8298 51.7177 33.8846C52.2766 34.4243 53.11 34.5711 53.8138 34.287C54.5314 34.0012 55 33.3228 55 32.5719V15.8589C55 15.1081 54.5314 14.4293 53.8129 14.1434L53.8127 14.1436Z" fill="#026670"/>
<path d="M68 25C68 26.1053 67.1049 27 66 27H62C60.8956 27 60 26.1053 60 25C60 23.8947 60.8951 23 62 23H66C67.1048 23 68 23.8947 68 25Z" fill="#FCE181"/>
<path d="M64.7845 14.8347C65.2281 15.6323 64.965 16.6507 64.1955 17.1109L61.4115 18.7771C60.6495 19.2334 59.6629 18.9692 59.2155 18.1666C58.7719 17.3689 59.035 16.3506 59.8045 15.8903L62.5885 14.2241C63.3572 13.7624 64.3387 14.0374 64.7845 14.8347Z" fill="#FCE181"/>
<path d="M64.7845 34.1668C64.3367 34.9711 63.3485 35.2322 62.5883 34.7774L59.8042 33.111C59.0346 32.6507 58.7723 31.6318 59.2152 30.8344C59.6588 30.0355 60.6433 29.7635 61.4113 30.2238L64.1955 31.8902C64.965 32.3505 65.2281 33.3695 64.7845 34.1668Z" fill="#FCE181"/>
<path d="M54.9999 38.3077V64.1537C54.9999 65.1741 54.1454 66 53.0907 66H14.9092C13.855 66 13 65.1741 13 64.1537V19.8463C13 18.8259 13.8545 18 14.9092 18H26.3636C27.4179 18 28.2728 18.8259 28.2728 19.8463C28.2728 20.8666 27.4183 21.6925 26.3636 21.6925H16.8183V62.3077H51.1816V38.3078C51.1816 37.2875 52.0361 36.4616 53.0908 36.4616C54.145 36.4616 55 37.2875 55 38.3078L54.9999 38.3077Z" fill="#8F5878"/>
<path d="M48 46C48 47.1053 47.1688 48 46.1428 48H23.8572C22.8317 48 22 47.1053 22 46C22 44.8947 22.8312 44 23.8572 44H46.1428C47.1683 44.0005 48 44.8947 48 46Z" fill="#8F5878"/>
<path d="M48 54.0002C48 55.1054 47.1688 56 46.1428 56L23.8572 55.9995C22.8317 55.9995 22 55.105 22 53.9998C22 52.8946 22.8312 52 23.8572 52H46.1428C47.1683 52.0005 48 52.895 48 54.0002V54.0002Z" fill="#8F5878"/>
<path d="M35 39C35 40.1053 34.1048 41 32.9999 41H23.0001C21.8957 41 21 40.1053 21 39C21 37.8947 21.8952 37 23.0001 37H32.9999C34.1048 37 35 37.8947 35 39Z" fill="#8F5878"/>
</svg>
