<svg width="80" height="80" viewBox="0 0 80 80" fill="none" xmlns="http://www.w3.org/2000/svg">
<ellipse cx="19.5" cy="15.6048" rx="6.5" ry="6.60484" fill="#FCE181"/>
<ellipse cx="19.5" cy="39.6048" rx="6.5" ry="6.60484" fill="#9FEDD7"/>
<ellipse cx="19.5" cy="64.6048" rx="6.5" ry="6.60484" fill="#8F5878"/>
<rect x="43" y="14" width="54" height="4" rx="1" transform="rotate(90 43 14)" fill="#026670"/>
<path d="M58.7511 41.9113H32.4022C31.7715 41.8914 31.1721 41.6349 30.7257 41.1942C30.2793 40.7535 30.0201 40.1617 30 39.539L34.8048 37.1675H58.7511L55.9477 34.321L59.3912 31L66.2793 37.8001C66.7441 38.2623 67.0033 38.8883 67 39.5397C66.991 40.1651 66.7318 40.7619 66.2793 41.1999L59.3918 48L55.9483 44.679L58.7511 41.9113Z" fill="#026670"/>
<rect x="29" y="37" width="13" height="5" rx="2.5" fill="#026670"/>
<rect x="29" y="14" width="13" height="5" rx="2.5" fill="#026670"/>
<rect x="29" y="63" width="13" height="5" rx="2.5" fill="#026670"/>
</svg>
