<svg width="80" height="80" viewBox="0 0 80 80" fill="none" xmlns="http://www.w3.org/2000/svg">
<path fill-rule="evenodd" clip-rule="evenodd" d="M39.5 10C38.1193 10 37 11.1193 37 12.5C37 13.8807 38.1193 15 39.5 15H62.4469V38.334L59.5163 35.3894L56 39.007L63.2001 46.2428C63.6639 46.7182 64.2957 46.9905 64.958 46.9999C65.6477 47.0034 66.3105 46.7311 66.7999 46.2428L74 39.0064L70.4837 35.3888L67.4697 38.3339V10.0402C67.4697 10.0402 66.1471 10.0074 64.8055 10.0185C64.7054 10.0063 64.6034 10 64.5 10H39.5Z" fill="#026670"/>
<path fill-rule="evenodd" clip-rule="evenodd" d="M40.5 70C41.8807 70 43 68.8807 43 67.5C43 66.1193 41.8807 65 40.5 65H17.5531V41.666L20.4837 44.6106L24 40.993L16.7999 33.7572C16.3361 33.2818 15.7043 33.0095 15.042 33.0001C14.3523 32.9966 13.6895 33.2689 13.2001 33.7572L6 40.9936L9.51634 44.6112L12.5303 41.6661V69.9598C12.5303 69.9598 13.8529 69.9926 15.1945 69.9815C15.2946 69.9937 15.3966 70 15.5 70H40.5Z" fill="#026670"/>
<circle cx="21.5" cy="18.5" r="12.5" fill="#9FEDD7"/>
<rect x="46" y="51" width="23" height="23" rx="5.11111" fill="#FCE181"/>
</svg>
