<svg width="80" height="80" viewBox="0 0 80 80" fill="none" xmlns="http://www.w3.org/2000/svg">
<path fill-rule="evenodd" clip-rule="evenodd" d="M41.2207 24.9537C41.9074 24.6207 43.2003 23.9044 43.2003 23.9044L42.181 27.649L46.7521 28.7968L49.2574 19.5961C49.4263 18.9992 49.3523 18.3614 49.0511 17.8221C48.7323 17.2634 48.2026 16.8554 47.5787 16.6885L38.3575 14.2581L37.066 18.7907L40.5061 19.8159L37.5383 21.3368C25.7158 26.7357 18.5061 36.2462 16.7234 48.7368C16.4998 52.5954 21.0211 52.2533 21.5757 49.9812C23.229 39.0737 29.4436 30.678 39.5719 25.716C40.1493 25.4556 40.7889 25.1631 41.2207 24.9537Z" fill="#026670"/>
<path d="M25.6318 64.8414C25.6318 68.9946 22.267 72.3742 18.1318 72.3742C13.9967 72.3742 10.6318 68.9946 10.6318 64.8414C10.6318 60.6881 13.9967 57.3086 18.1318 57.3086C22.267 57.3086 25.6318 60.6881 25.6318 64.8414Z" fill="#026670"/>
<path d="M20.8327 8.96777L17.0003 12.7793L13.1674 8.96777L9.74219 12.4547L13.5746 16.1854L9.74219 19.997L13.1674 23.4839L17.0003 19.6723L20.8327 23.4839L24.2583 19.997L20.5066 16.1854L24.2583 12.4547L20.8327 8.96777Z" fill="#30B9C1"/>
<path d="M59.0583 31L55.2259 34.8114L51.393 31L47.9678 34.4873L51.8001 38.2174L47.9678 42.0288L51.393 45.5161L55.2259 41.7047L59.0583 45.5161L62.4839 42.0288L58.7322 38.2174L62.4839 34.4873L59.0583 31Z" fill="#9FEDD7"/>
<path d="M67.0584 7L59.1034 14.6228L55.2704 10.8114L51.8452 13.9747L55.6776 17.7047L55.9679 18.0288L59.3931 21.5161L63.226 17.7047L66.7323 14.2174L70.484 10.4873L67.0584 7Z" fill="#8F5878"/>
<path d="M42.0583 46L38.2259 49.8114L34.393 46L30.9678 49.4873L34.8001 53.2174L30.9678 57.0288L34.393 60.5161L38.2259 56.7047L42.0583 60.5161L45.4839 57.0288L41.7322 53.2174L45.4839 49.4873L42.0583 46Z" fill="#FCE181"/>
</svg>
