<svg width="80" height="80" viewBox="0 0 80 80" fill="none" xmlns="http://www.w3.org/2000/svg">
<path d="M46.319 40.8096H39.7907C39.5507 40.8096 39.3588 40.6177 39.3588 40.3776V33.8488C39.3588 33.6088 39.1669 33.3687 38.8786 33.4169C34.4624 33.7049 31.1024 37.7372 32.0145 42.3459C32.5904 45.2743 34.9426 47.5785 37.8229 48.1548C42.4313 49.067 46.5113 45.7066 46.7513 41.2902C46.7992 41.0497 46.607 40.8096 46.3191 40.8096L46.319 40.8096Z" fill="#026670"/>
<path d="M41.7939 30.3651V37.2163C41.7939 37.4664 41.995 37.6663 42.2465 37.6663H49.1367C49.3882 37.6663 49.6398 37.4664 49.5892 37.1661C49.3377 33.2653 46.2196 30.1146 42.2462 29.8645C41.9953 29.8652 41.7939 30.0651 41.7939 30.3651H41.7939Z" fill="#FCE181"/>
<path d="M28.6102 40.3408C28.6102 39.1031 27.7072 38.174 26.5025 38.174H21.5475C20.6445 35.2853 18.0349 33.1187 14.9243 33.1187C11.1108 33.1187 8 36.3166 8 40.2373C8 44.158 11.1107 47.3559 14.9243 47.3559C18.0349 47.3559 20.6446 45.3954 21.5475 42.507L26.5025 42.5077C27.6064 42.5077 28.6102 41.5794 28.6102 40.3408Z" fill="#026670"/>
<path d="M24.5221 52.7723C23.5304 52.2765 22.5395 51.9791 21.3493 51.9791C17.5817 51.9791 14.5083 55.0523 14.5083 58.8201C14.5083 62.5879 17.5815 65.6611 21.3493 65.6611C25.117 65.6611 28.1902 62.5879 28.1902 58.8201C28.1902 57.6306 27.8928 56.639 27.397 55.6472L30.1846 52.8596C30.9778 52.0664 30.9778 50.7772 30.1846 49.9848C29.3913 49.1916 28.1022 49.1916 27.3098 49.9848L24.5221 52.7723Z" fill="#026670"/>
<path d="M54.8594 30.3544L57.647 27.5668C58.6387 28.0626 59.6297 28.36 60.8199 28.36C64.5874 28.36 67.6608 25.2868 67.6608 21.519C67.6608 17.7512 64.5876 14.678 60.8199 14.678C57.0521 14.678 53.9789 17.7512 53.9789 21.519C53.9789 22.7085 54.2763 23.7001 54.7722 24.6919L51.9846 27.4795C51.8919 27.5722 51.8101 27.6716 51.7391 27.7762C51.2022 28.5671 51.284 29.6544 51.9846 30.3543C52.2819 30.7506 52.8774 30.9491 53.3725 30.9491C53.8684 30.9492 54.4632 30.7507 54.8594 30.3544Z" fill="#8F5878"/>
<path d="M38.4686 22.7307C38.4686 23.7399 39.3172 24.6576 40.4492 24.6576C41.5806 24.6576 42.4298 23.8321 42.4298 22.7307V18.3859C45.0702 17.5604 47.0506 15.1745 47.0506 12.3306C47.0506 8.8441 44.1276 6 40.5439 6C36.9602 6 34.0371 8.84393 34.0371 12.3306C33.9424 15.1745 35.8283 17.5597 38.4685 18.3859L38.4686 22.7307Z" fill="#30B9C1"/>
<path d="M23.3388 27.5668L26.1264 30.3544C26.5227 30.7507 27.0185 30.9492 27.6133 30.9492C28.1091 30.9492 28.7039 30.7507 29.1001 30.3544C29.8933 29.5612 29.8933 28.2721 29.1001 27.4796L26.3125 24.692C26.8084 23.7002 27.1057 22.7093 27.1057 21.519C27.1057 17.7514 24.0325 14.678 20.2648 14.678C16.497 14.678 13.4238 17.7512 13.4238 21.519C13.4238 25.2859 16.3983 28.3601 20.1658 28.3601C21.3554 28.36 22.3471 28.0626 23.3388 27.5668Z" fill="#026670"/>
<path d="M43.3309 55.8163C43.3309 54.723 42.4116 53.7288 41.1852 53.7288C39.9595 53.7288 39.0396 54.6231 39.0396 55.8163V60.7039C36.1792 61.5983 34.0337 64.1829 34.0337 67.2639C34.0337 71.0409 37.2004 74.122 41.0827 74.122C44.965 74.122 48.1317 71.0411 48.1317 67.2639C48.2343 64.1829 46.1913 61.599 43.331 60.7039L43.3309 55.8163Z" fill="#026670"/>
<path d="M56.5624 52.7724L53.7748 49.9848C52.9816 49.1916 51.6925 49.1916 50.9001 49.9848C50.1069 50.778 50.1069 52.0672 50.9001 52.8596L53.6877 55.6472C53.1918 56.6389 52.8945 57.6299 52.8945 58.8201C52.8945 62.5877 55.9677 65.6611 59.7354 65.6611C63.5031 65.6611 66.5764 62.5879 66.5764 58.8201C66.5764 55.0532 63.5031 51.9791 59.7354 51.9791C58.5458 51.9792 57.5542 52.2766 56.5624 52.7724Z" fill="#026670"/>
<path d="M58.4527 38.1019H53.4973C52.3934 38.1019 51.3896 39.0169 51.3896 40.2377C51.3896 41.4578 52.2926 42.3736 53.4973 42.3736L58.4527 42.3729C59.3557 45.2202 61.9652 47.3559 65.0758 47.3559C68.8891 47.3559 71.9998 44.2037 71.9998 40.3391C71.9998 36.4745 68.8893 33.1187 65.0758 33.1187C61.9652 33.1188 59.3557 35.2547 58.4527 38.1019Z" fill="#9FEDD7"/>
</svg>
