<svg width="80" height="80" viewBox="0 0 80 80" fill="none" xmlns="http://www.w3.org/2000/svg">
<path d="M58.1806 68.4725V42.5732C58.161 41.9533 57.9078 41.3641 57.4725 40.9253C57.0373 40.4865 56.4529 40.2318 55.8379 40.212H23.6663V22.8934H30.304C30.9254 22.8928 31.5213 22.6441 31.9604 22.2015C32.3999 21.7583 32.6467 21.1576 32.6467 20.5316V6.3618C32.6271 5.74184 32.3738 5.1521 31.9386 4.7133C31.5034 4.2751 30.9189 4.01976 30.3039 4H12.3441C11.7231 4 11.1272 4.24874 10.6877 4.69189C10.2487 5.13447 10.0014 5.73521 10.0014 6.36176V20.5316C9.97958 21.1641 10.2192 21.778 10.6637 22.2256C11.1076 22.6737 11.7166 22.9153 12.3441 22.8928H18.9817V42.573C18.9594 43.2062 19.199 43.8201 19.6435 44.2677C20.0874 44.7157 20.6964 44.9573 21.3245 44.9348H53.496V68.4724L50.6849 65.7169L47.4053 69.1016L54.1207 75.8722C54.5771 76.3291 55.1954 76.5839 55.8386 76.5806C56.4563 76.5718 57.0456 76.317 57.4781 75.8722L64.1936 69.1022L60.9139 65.7175L58.1806 68.4725Z" fill="#026670"/>
<path d="M25.4839 57.7097C25.4839 61.7185 22.2346 64.9678 18.2258 64.9678C14.217 64.9678 10.9678 61.7185 10.9678 57.7097C10.9678 53.7009 14.217 50.4517 18.2258 50.4517C22.2346 50.4517 25.4839 53.7009 25.4839 57.7097" fill="#8F5878"/>
<path d="M43.3488 49.4839L39.5164 53.2955L35.6835 49.4839L32.2583 52.9708L36.0907 56.7015L32.2583 60.5131L35.6835 64L39.5164 60.1884L43.3488 64L46.7744 60.5131L43.0227 56.7015L46.7744 52.9708L43.3488 49.4839Z" fill="#30B9C1"/>
<path d="M48.615 25.5816C49.256 29.538 46.5683 33.2647 42.6119 33.9057C38.6554 34.5461 34.9287 31.8584 34.2877 27.902C33.6472 23.9456 36.335 20.219 40.2914 19.5784C44.2478 18.9374 47.9745 21.6251 48.6151 25.5815" fill="#FCE181"/>
<path d="M66.5744 18.5161L62.742 22.3275L58.9091 18.5161L55.4839 22.0034L59.3163 25.7335L55.4839 29.5449L58.9091 33.0322L62.742 29.2208L66.5744 33.0322L70 29.5449L66.2483 25.7335L70 22.0034L66.5744 18.5161Z" fill="#9FEDD7"/>
</svg>
