<svg width="80" height="80" viewBox="0 0 80 80" fill="none" xmlns="http://www.w3.org/2000/svg">
<path d="M17.6101 15C15.401 15 13.6101 16.7909 13.6101 19V30.7913C10.303 32.2775 8 35.6003 8 39.461C8 43.3218 10.303 46.6446 13.6101 48.1307V60C13.6101 62.2091 15.401 64 17.6101 64C19.8193 64 21.6101 62.2091 21.6101 60V48.0283C24.7988 46.4958 27 43.2355 27 39.461C27 35.6866 24.7988 32.4263 21.6101 30.8937V19C21.6101 16.7909 19.8193 15 17.6101 15Z" fill="#9FEDD7"/>
<path d="M40.6101 15C38.401 15 36.6101 16.7909 36.6101 19V22.7913C33.303 24.2775 31 27.6003 31 31.461C31 35.3218 33.303 38.6446 36.6101 40.1307V60C36.6101 62.2091 38.401 64 40.6101 64C42.8193 64 44.6101 62.2091 44.6101 60V40.0283C47.7988 38.4958 50 35.2355 50 31.461C50 27.6866 47.7988 24.4263 44.6101 22.8937V19C44.6101 16.7909 42.8193 15 40.6101 15Z" fill="#026670"/>
<path d="M63.6101 15C61.401 15 59.6101 16.7909 59.6101 19V36.7913C56.303 38.2775 54 41.6003 54 45.461C54 49.3218 56.303 52.6446 59.6101 54.1307V60C59.6101 62.2091 61.401 64 63.6101 64C65.8193 64 67.6101 62.2091 67.6101 60V54.0283C70.7988 52.4958 73 49.2355 73 45.461C73 41.6866 70.7988 38.4263 67.6101 36.8937V19C67.6101 16.7909 65.8193 15 63.6101 15Z" fill="#FCE181"/>
</svg>
