<svg width="80" height="80" viewBox="0 0 80 80" fill="none" xmlns="http://www.w3.org/2000/svg">
<path d="M21 51C19.1435 51 17.3628 51.7377 16.0503 53.0502C14.7372 54.3632 14 56.1438 14 57.9997C14 59.8562 14.7372 61.6368 16.0503 62.9498C17.3628 64.2623 19.1435 65 21 65C22.8565 65 24.6372 64.2623 25.9497 62.9498C27.2623 61.6368 28 59.8562 28 57.9997C28 56.1438 27.2623 54.3632 25.9497 53.0502C24.6372 51.7377 22.8565 51 21 51V51Z" fill="#30B9C1"/>
<path d="M57.891 14.0005C56.4239 14.0159 54.9978 14.4771 53.8079 15.3215C52.6174 16.1664 51.7219 17.3525 51.2437 18.7176H45.8332C45.0956 16.6133 43.386 14.9796 41.2271 14.3173C39.0683 13.6549 36.7181 14.0429 34.8969 15.3618C33.0751 16.6811 32 18.7743 32 21.0002C32 23.2261 33.0751 25.3192 34.8969 26.6381C36.7181 27.9575 39.0684 28.3454 41.2271 27.6826C43.386 27.0202 45.0956 25.3867 45.8332 23.2828H51.1666C51.7387 24.9148 52.9033 26.2814 54.4372 27.1194C55.971 27.9579 57.7654 28.2084 59.4751 27.8231C61.1854 27.4378 62.6901 26.4438 63.701 25.0326C64.7114 23.6214 65.1568 21.8923 64.9508 20.1776C64.7443 18.4622 63.9016 16.8833 62.5844 15.7428C61.2666 14.6028 59.5678 13.9818 57.8139 14.0004L57.891 14.0005Z" fill="#8F5878"/>
<path d="M58.3081 32.1142C56.508 32.0849 54.768 32.7661 53.4601 34.0131C52.1522 35.2594 51.3805 36.972 51.3103 38.7845C51.2395 40.5972 51.876 42.365 53.083 43.7109L44.3749 52.561C43.7447 52.0315 43.0269 51.618 42.2546 51.3402V45.6948C44.3489 44.9668 45.9748 43.2787 46.6341 41.1479C47.2933 39.017 46.9071 36.6973 45.5945 34.8996C44.2814 33.102 42.1981 32.0403 39.9828 32.0403C37.7674 32.0403 35.6842 33.102 34.3711 34.8996C33.0585 36.6973 32.6724 39.0171 33.3315 41.1479C33.9907 43.2786 35.6165 44.9667 37.711 45.6948V51.3406V51.3401C36.0133 51.9255 34.6051 53.1483 33.7801 54.754C32.955 56.3596 32.7765 58.2239 33.2825 59.9587C33.788 61.6936 34.9384 63.1645 36.494 64.066C38.0496 64.967 39.8904 65.2288 41.633 64.7961C43.3756 64.364 44.8853 63.271 45.8471 61.7447C46.8095 60.2184 47.1502 58.377 46.7979 56.6045L57.248 45.9997H58.3081C60.2716 46.2068 62.2296 45.565 63.6965 44.234C65.1628 42.903 66 41.0073 66 39.0192C66 37.0304 65.1628 35.1348 63.6965 33.8039C62.2296 32.4729 60.2716 31.8312 58.3081 32.0381L58.3081 32.1142Z" fill="#026670"/>
<path d="M58 51C56.1435 51 54.3628 51.7377 53.0503 53.0502C51.7377 54.3632 51 56.1438 51 57.9997C51 59.8562 51.7377 61.6368 53.0503 62.9498C54.3628 64.2623 56.1435 65 58 65C59.8565 65 61.6372 64.2623 62.9497 62.9498C64.2628 61.6368 65 59.8562 65 57.9997C65 56.1438 64.2628 54.3632 62.9497 53.0502C61.6372 51.7377 59.8565 51 58 51V51Z" fill="#9FEDD7"/>
<path d="M27.9998 21.0536C28.0045 19.3032 27.3604 17.6136 26.1939 16.3154C25.0274 15.0173 23.4223 14.2034 21.6917 14.0333C19.9611 13.8632 18.2299 14.349 16.8361 15.3954C15.4424 16.4424 14.4862 17.9741 14.1546 19.6925C13.823 21.4109 14.1392 23.1923 15.0424 24.6883C15.9456 26.1843 17.3706 27.2872 19.0383 27.7821V33.2109V33.2104C16.9051 33.8344 15.1934 35.4419 14.428 37.5417C13.6625 39.6408 13.9342 41.9817 15.1601 43.8473C16.3859 45.7123 18.4195 46.8793 20.6382 46.9912C22.8567 47.1027 24.9958 46.1454 26.4001 44.4125C27.8044 42.6797 28.3067 40.3779 27.7531 38.212C27.1995 36.0462 25.6558 34.275 23.5952 33.4398V27.5523C24.8888 27.0345 25.9996 26.139 26.7843 24.9812C27.5693 23.8233 27.9926 22.4553 28 21.0537L27.9998 21.0536Z" fill="#FCE181"/>
</svg>
