<svg width="80" height="80" viewBox="0 0 80 80" fill="none" xmlns="http://www.w3.org/2000/svg">
<path fill-rule="evenodd" clip-rule="evenodd" d="M34.6668 18C36.1396 18 37.3335 19.1939 37.3335 20.6667V22.4444C37.3335 23.9172 36.1396 25.1111 34.6668 25.1111H8.88905C7.41629 25.1111 6.22238 23.9172 6.22238 22.4444V20.6667C6.22238 19.1939 7.41629 18 8.88905 18H34.6668Z" fill="#FCE181"/>
<path fill-rule="evenodd" clip-rule="evenodd" d="M28.4447 30.4443C29.9174 30.4443 31.1113 31.6382 31.1113 33.111V34.8888C31.1113 36.3615 29.9174 37.5554 28.4447 37.5554H2.66689C1.19413 37.5554 0.000216782 36.3615 0.000216782 34.8888V33.111C0.000216782 31.6382 1.19412 30.4443 2.66688 30.4443H28.4447Z" fill="#9FEDD7"/>
<path fill-rule="evenodd" clip-rule="evenodd" d="M32.889 42.8889C34.3618 42.8889 35.5557 44.0828 35.5557 45.5556V47.3334C35.5557 48.8061 34.3618 50 32.889 50H7.11122C5.63846 50 4.44455 48.8061 4.44455 47.3334V45.5556C4.44455 44.0828 5.63846 42.8889 7.11122 42.8889H32.889Z" fill="#8F5878"/>
<path fill-rule="evenodd" clip-rule="evenodd" d="M70.5468 34.9399C70.5468 38.4104 69.5031 41.6372 67.7125 44.3235L78.4046 55.0156C79.4773 56.0884 79.4773 57.8277 78.4046 58.9005L77.1096 60.1954C76.0368 61.2682 74.2975 61.2682 73.2248 60.1954L62.4317 49.4024C59.8616 50.974 56.84 51.8798 53.6069 51.8798C44.2512 51.8798 36.667 44.2955 36.667 34.9399C36.667 25.5842 44.2512 18 53.6069 18C62.9625 18 70.5468 25.5842 70.5468 34.9399ZM53.6069 45.0123C59.1697 45.0123 63.6793 40.5027 63.6793 34.9399C63.6793 29.3771 59.1697 24.8675 53.6069 24.8675C48.0441 24.8675 43.5345 29.3771 43.5345 34.9399C43.5345 40.5027 48.0441 45.0123 53.6069 45.0123Z" fill="#026670"/>
</svg>
