<svg width="80" height="80" viewBox="0 0 80 80" fill="none" xmlns="http://www.w3.org/2000/svg">
<path fill-rule="evenodd" clip-rule="evenodd" d="M55.5 16C45.5589 16 37.5 24.0589 37.5 34C37.5 43.9411 45.5589 52 55.5 52C58.1865 52 60.7356 51.4114 63.0253 50.3562L71.781 62.4073C73.0795 64.1946 75.5809 64.5908 77.3682 63.2923L77.644 63.0918C79.4313 61.7933 79.8275 59.2919 78.529 57.5046L69.5905 45.2019C72.0377 42.1278 73.5 38.2346 73.5 34C73.5 24.0589 65.4411 16 55.5 16ZM55.5 45.5C61.8513 45.5 67 40.3513 67 34C67 27.6487 61.8513 22.5 55.5 22.5C49.1487 22.5 44 27.6487 44 34C44 40.3513 49.1487 45.5 55.5 45.5Z" fill="#026670"/>
<rect x="1" y="25.5" width="20" height="16" rx="3" fill="#8F5878"/>
</svg>
