<svg width="80" height="80" viewBox="0 0 80 80" fill="none" xmlns="http://www.w3.org/2000/svg">
<path d="M21.7892 30.05C22.9145 31.1282 24.2271 31.9251 25.6337 32.4409C27.0869 32.9566 28.4934 33.2378 29.8528 33.2378C30.1811 33.2378 30.5091 33.1911 30.8375 33.144C31.1658 33.0972 31.4938 32.9566 31.8222 32.8156C32.1034 32.6283 32.3379 32.4406 32.5252 32.1593C32.7126 31.8781 32.8065 31.5498 32.8065 31.1279C32.8065 30.3778 32.3846 29.8153 31.4938 29.3934C30.603 28.9716 29.5716 28.5497 28.3528 28.1275C27.2746 27.7524 26.1961 27.3306 25.024 26.9087C23.8988 26.4398 22.8673 25.8773 21.883 25.1271C20.9454 24.424 20.1485 23.5333 19.5389 22.5019C18.9294 21.4705 18.6014 20.2046 18.6014 18.7046C18.6014 17.3919 18.8359 16.2199 19.2577 15.1885C19.6796 14.1571 20.2891 13.2663 21.0393 12.5632C21.7894 11.813 22.5396 11.2505 23.524 10.7816C24.5086 10.3127 25.6335 9.9847 26.5711 9.75025L26.5708 6H32.1964V9.65674C33.603 9.84412 34.9155 10.2192 36.1815 10.7349C37.4474 11.2506 38.6194 12.0008 39.6976 12.9851L35.572 18.4234C34.775 17.7671 33.8374 17.2046 32.8061 16.8296C31.7747 16.4545 30.7903 16.2671 29.8525 16.2671C29.4774 16.2671 29.1023 16.2671 28.6804 16.3139C28.2586 16.3606 27.8835 16.4545 27.5084 16.5951C27.1333 16.7357 26.8521 16.9702 26.6176 17.2514C26.3831 17.5327 26.2425 17.9077 26.2425 18.4234C26.2425 18.8453 26.3831 19.1736 26.6176 19.4548C26.852 19.736 27.18 19.9705 27.6489 20.205C28.0708 20.4395 28.5865 20.6269 29.1022 20.8613C29.6647 21.0487 30.2274 21.2364 30.8367 21.4238C31.8681 21.7521 32.9463 22.174 34.1183 22.5958C35.2435 23.0177 36.275 23.6272 37.2594 24.3304C38.1969 25.0334 38.9939 25.9242 39.6034 27.0028C40.213 28.0809 40.541 29.3936 40.541 30.9878C40.541 32.2067 40.3065 33.2851 39.8379 34.2694C39.3689 35.2541 38.7597 36.0978 38.0095 36.8009C37.2593 37.5039 36.3685 38.1135 35.3371 38.6292C34.3057 39.0982 33.0869 39.4729 32.1493 39.7074L32.1497 43.974H26.6646V39.8484C25.258 39.661 23.3358 39.2388 21.6952 38.5825C20.0542 37.9262 18.6481 36.9886 17.3354 35.7228L21.7892 30.05Z" fill="#026670"/>
<rect x="44.1255" y="24.5454" width="17.6623" height="49.4545" rx="3" fill="#8F5878"/>
<rect x="20.2812" y="51.0391" width="17.6623" height="22.961" rx="3" fill="#9FEDD7"/>
</svg>
