<svg width="80" height="80" viewBox="0 0 80 80" fill="none" xmlns="http://www.w3.org/2000/svg">
<path d="M68 64.0317V66H12V64.0317C12.0014 63.5271 12.2042 63.0437 12.5639 62.687C12.9236 62.3303 13.4111 62.1292 13.9199 62.1278H15.5835C15.5772 62.0647 15.5747 62.0002 15.5747 61.9345V60.1597L15.5749 60.1595C15.5763 59.6549 15.7789 59.1715 16.1386 58.8148C16.4985 58.4581 16.986 58.257 17.4948 58.2556H19.1533V43.7576H17.9084C17.3135 43.7587 16.7429 43.525 16.3219 43.1084C15.9011 42.6918 15.6645 42.1262 15.6645 41.5365C15.6645 40.9466 15.9011 40.3812 16.3219 39.9643C16.743 39.5477 17.3135 39.3143 17.9084 39.3152H62.2239C63.0232 39.3168 63.7611 39.7403 64.1602 40.4269C64.5595 41.1137 64.5595 41.9593 64.1602 42.6459C63.7612 43.3325 63.0232 43.7562 62.2239 43.7576H61.0439V58.2556H62.5052C63.0137 58.257 63.5012 58.4581 63.8612 58.8148C64.2209 59.1715 64.4234 59.6549 64.425 60.1595V61.9343C64.425 61.9999 64.4213 62.0644 64.4151 62.1276L66.0799 62.1278C66.5887 62.1292 67.0761 62.3303 67.4359 62.687C67.7956 63.0437 67.9984 63.5271 67.9998 64.0317H68Z" fill="#026670"/>
<path d="M61.0443 35.7977C61.0491 32.1486 60.0844 28.5628 58.2474 25.4007C56.4101 22.239 53.7655 19.613 50.58 17.7874C47.3939 15.9614 43.7789 15 40.0996 15C36.4198 15 32.8049 15.9613 29.6192 17.7874C26.4332 19.6131 23.7885 22.2392 21.9512 25.4007C20.1142 28.5625 19.1495 32.1485 19.1543 35.7977H61.0443Z" fill="#9FEDD7"/>
</svg>
