<svg width="80" height="80" viewBox="0 0 80 80" fill="none" xmlns="http://www.w3.org/2000/svg">
<path d="M42.7022 15.6102H32.0978V4.97649C32.0978 4.71755 31.9949 4.46906 31.8118 4.28597C31.6287 4.10288 31.3802 4 31.1213 4H16.7273C16.188 4 15.7508 4.43681 15.7508 4.97649V15.6102H5.11711C4.57743 15.6102 4.14062 16.0474 4.14062 16.5867V30.9807C4.14062 31.2396 4.24351 31.4881 4.4266 31.6712C4.60969 31.8543 4.85817 31.9572 5.11711 31.9572H15.7508V42.5908C15.7508 42.8498 15.8537 43.0983 16.0368 43.2814C16.2199 43.4644 16.4683 43.5673 16.7273 43.5673H31.1213C31.3802 43.5673 31.6287 43.4644 31.8118 43.2814C31.9949 43.0983 32.0978 42.8498 32.0978 42.5908V31.9572H42.7315C42.9904 31.9572 43.2389 31.8543 43.422 31.6712C43.6051 31.4881 43.708 31.2396 43.708 30.9807V16.5867C43.708 16.3277 43.6051 16.0792 43.422 15.8961C43.2389 15.7131 42.9904 15.6102 42.7315 15.6102H42.7022Z" fill="#026670"/>
<path fill-rule="evenodd" clip-rule="evenodd" d="M76.2812 54.4994C76.2812 55.6071 76.1973 56.6958 76.0365 57.7588L70.6127 60.4221C70.475 60.7898 70.3253 61.1512 70.1624 61.507L72.1136 67.2227C70.8196 68.9831 69.2638 70.5386 67.5034 71.8335L61.788 69.882C61.4325 70.0437 61.0708 70.1934 60.7027 70.3311L58.0407 75.7549C56.9777 75.916 55.8889 76 54.7812 76C53.6736 76 52.5854 75.916 51.5221 75.7546L48.8595 70.3307C48.4917 70.1931 48.13 70.0434 47.7749 69.8817L42.0588 71.8332C40.2985 70.5386 38.7426 68.9828 37.4484 67.2224L39.3998 61.5067C39.2382 61.1509 39.0885 60.7895 38.9505 60.4218L33.5269 57.7591C33.3652 56.6961 33.2812 55.6074 33.2812 54.4997C33.2812 53.392 33.3652 52.3041 33.5269 51.2411L38.9505 48.5781C39.0885 48.2104 39.2382 47.8484 39.3998 47.4935L37.4484 41.7775C38.7426 40.0172 40.2985 38.4611 42.0588 37.1671L47.7752 39.1192C48.1306 38.9569 48.492 38.8069 48.8598 38.6692L51.5224 33.2457C52.5853 33.0834 53.6735 33 54.7812 33C55.889 33 56.9777 33.0834 58.0407 33.2457L60.703 38.6689C61.0714 38.8066 61.4328 38.9569 61.7876 39.1189L67.504 37.1671C69.2647 38.4611 70.8201 40.0166 72.1141 41.7775L70.1624 47.4935C70.3252 47.8484 70.4749 48.2104 70.6126 48.5781L76.0365 51.2407C76.1973 52.3038 76.2812 53.3917 76.2812 54.4994ZM50.2812 53.9995C50.2812 56.7613 52.5192 59 55.2805 59C58.0419 59 60.2812 56.7613 60.2812 53.9995C60.2812 51.2384 58.0418 49 55.2805 49C52.5195 49 50.2812 51.2384 50.2812 53.9995Z" fill="#9FEDD7"/>
</svg>
