<svg width="80" height="80" viewBox="0 0 80 80" fill="none" xmlns="http://www.w3.org/2000/svg">
<path fill-rule="evenodd" clip-rule="evenodd" d="M41.896 39.9839C41.0221 39.5245 39.9779 39.5245 39.104 39.9839L32.0675 43.6832C29.8666 44.8403 27.2943 42.9714 27.7146 40.5207L29.0585 32.6854C29.2254 31.7123 28.9027 30.7193 28.1957 30.03L22.503 24.4811C20.7225 22.7455 21.705 19.7216 24.1657 19.364L32.0327 18.2208C33.0099 18.0789 33.8545 17.4652 34.2915 16.5797L37.8098 9.45096C38.9102 7.22122 42.0898 7.22122 43.1902 9.45096L46.7085 16.5797C47.1455 17.4652 47.9901 18.0789 48.9673 18.2208L56.8343 19.364C59.295 19.7216 60.2775 22.7455 58.497 24.4811L52.8043 30.03C52.0973 30.7193 51.7746 31.7123 51.9415 32.6854L53.2854 40.5207C53.7057 42.9714 51.1334 44.8403 48.9325 43.6832L41.896 39.9839Z" fill="#026670"/>
<path fill-rule="evenodd" clip-rule="evenodd" d="M18.396 67.7339C17.522 67.2745 16.4779 67.2745 15.604 67.7339L12.9759 69.1156C10.775 70.2727 8.20267 68.4038 8.623 65.9531L9.12493 63.0266C9.29185 62.0534 8.9692 61.0604 8.26214 60.3712L6.13594 58.2987C4.35539 56.5631 5.33792 53.5392 7.79859 53.1816L10.7369 52.7547C11.714 52.6127 12.5587 51.999 12.9957 51.1135L14.3098 48.451C15.4102 46.2212 18.5898 46.2212 19.6902 48.451L21.0043 51.1135C21.4413 51.999 22.286 52.6127 23.2631 52.7547L26.2014 53.1816C28.6621 53.5392 29.6446 56.5631 27.8641 58.2987L25.7379 60.3712C25.0308 61.0604 24.7082 62.0534 24.8751 63.0266L25.377 65.9531C25.7973 68.4038 23.225 70.2727 21.0241 69.1156L18.396 67.7339Z" fill="#FCE181"/>
<path fill-rule="evenodd" clip-rule="evenodd" d="M64.396 67.7339C63.522 67.2745 62.4779 67.2745 61.604 67.7339L58.9759 69.1156C56.775 70.2727 54.2027 68.4038 54.623 65.9531L55.1249 63.0266C55.2918 62.0534 54.9692 61.0604 54.2621 60.3712L52.1359 58.2987C50.3554 56.5631 51.3379 53.5392 53.7986 53.1816L56.7369 52.7547C57.714 52.6127 58.5587 51.999 58.9957 51.1135L60.3098 48.451C61.4102 46.2212 64.5898 46.2212 65.6902 48.451L67.0043 51.1135C67.4413 51.999 68.286 52.6127 69.2631 52.7547L72.2014 53.1816C74.6621 53.5392 75.6446 56.5631 73.8641 58.2987L71.7379 60.3712C71.0308 61.0604 70.7082 62.0534 70.8751 63.0266L71.377 65.9531C71.7973 68.4038 69.225 70.2727 67.0241 69.1156L64.396 67.7339Z" fill="#8F5878"/>
</svg>
