<svg width="80" height="80" viewBox="0 0 80 80" fill="none" xmlns="http://www.w3.org/2000/svg">
<path d="M40.5 19C41.1629 19 41.7991 18.7605 42.2679 18.3344C42.7366 17.9083 43 17.3299 43 16.7273V11.2727C43 10.4605 42.5234 9.71023 41.75 9.30438C40.9766 8.89854 40.0234 8.89854 39.25 9.30438C38.4766 9.71023 38 10.4605 38 11.2727V16.7273C38 17.3299 38.2634 17.9083 38.7321 18.3344C39.2009 18.7605 39.8371 19 40.5 19Z" fill="#FCE181"/>
<path d="M57.7246 24.337L61.4152 20.6556C61.933 20.1013 62.124 19.3165 61.9195 18.586C61.715 17.855 61.1445 17.2841 60.4145 17.0799C59.685 16.8761 58.9012 17.0683 58.3482 17.5873L54.6605 21.2716C54.2427 21.6758 54.0049 22.2311 54.0001 22.8131C53.9957 23.3951 54.2244 23.9542 54.6353 24.3652C55.0462 24.7762 55.6051 25.0052 56.1857 24.9999C56.7668 24.9946 57.3213 24.7554 57.7246 24.3371L57.7246 24.337Z" fill="#9FEDD7"/>
<path d="M67.7273 37H62.2727C61.4605 37 60.7102 37.4766 60.3044 38.25C59.8985 39.0234 59.8985 39.9766 60.3044 40.75C60.7102 41.5234 61.4605 42 62.2727 42H67.7273C68.5395 42 69.2898 41.5234 69.6956 40.75C70.1015 39.9766 70.1015 39.0234 69.6956 38.25C69.2898 37.4766 68.5395 37 67.7273 37Z" fill="#8F5878"/>
<path d="M21.6586 17.5873C21.1045 17.0683 20.3195 16.8761 19.5887 17.0799C18.8574 17.2842 18.2854 17.855 18.0806 18.586C17.8757 19.3166 18.0675 20.1014 18.5862 20.6557L22.2688 24.3371C22.6728 24.7554 23.2283 24.9946 23.8104 24.9999C24.3921 25.0052 24.9519 24.7762 25.3636 24.3652C25.7752 23.9542 26.0043 23.395 25.9999 22.8131C25.9951 22.2312 25.7568 21.6758 25.3384 21.2715L21.6586 17.5873Z" fill="#9FEDD7"/>
<path d="M12.2727 37C11.4605 37 10.7102 37.4766 10.3044 38.25C9.89854 39.0234 9.89854 39.9766 10.3044 40.75C10.7102 41.5234 11.4605 42 12.2727 42H17.7273C18.5395 42 19.2898 41.5234 19.6956 40.75C20.1015 39.9766 20.1015 39.0234 19.6956 38.25C19.2898 37.4766 18.5395 37 17.7273 37H12.2727Z" fill="#8F5878"/>
<path d="M23.229 38.1255C22.2344 44.296 24.5219 50.5397 29.2677 54.6096C29.9673 55.2433 30.4516 56.0787 30.6544 57H51.3361C51.6249 55.9823 52.2061 55.072 53.0079 54.3812C56.8366 50.9558 59.0172 46.0582 58.9999 40.9221C58.9826 35.7866 56.769 30.9036 52.9177 27.5045C49.0665 24.1048 43.9443 22.513 38.8432 23.1306C34.9757 23.6255 31.3703 25.3509 28.5587 28.0507C25.7472 30.7507 23.8783 34.2829 23.229 38.1258V38.1255Z" fill="#026670"/>
<path d="M38.4365 70H43.5631C45.535 69.9986 47.4256 69.2756 48.82 67.9897C50.2144 66.7038 50.9985 64.9604 51 63.142V63H31V63.142C31.0015 64.9604 31.7856 66.7038 33.18 67.9897C34.5744 69.2756 36.465 69.9987 38.4369 70H38.4365Z" fill="#026670"/>
</svg>
