<svg width="80" height="80" viewBox="0 0 80 80" fill="none" xmlns="http://www.w3.org/2000/svg">
<path fill-rule="evenodd" clip-rule="evenodd" d="M56.5787 13.5809L39.5415 6.12554H39.5422C39.1607 5.95815 38.7716 5.95815 38.3901 6.12554L21.353 13.5809C20.8029 13.8213 20.4658 14.3435 20.4658 14.9541V29.2424C20.4658 40.4529 28.3274 49.1082 38.9658 51C49.6038 49.108 57.4658 40.4531 57.4658 29.2424V14.9541C57.4658 14.3429 57.1287 13.8213 56.5787 13.5809ZM32.0087 27.2604C31.2848 27.9268 31.2848 29.0089 32.0087 29.6754L36.1557 33.4994C36.8784 34.1669 38.0507 34.1669 38.7746 33.4994C41.0074 31.4401 42.2573 30.2701 43.7555 28.8676C44.6414 28.0384 45.6142 27.1278 46.9282 25.9041C47.6474 25.2377 47.645 24.1589 46.9211 23.4957C46.1984 22.8326 45.0285 22.8348 44.3093 23.5023L37.4622 29.8741L34.6277 27.2604C33.905 26.5929 32.7326 26.5929 32.0087 27.2604Z" fill="#026670"/>
<path d="M14.0847 39.0049C13.7014 39.0049 13.3331 39.0865 12.9891 39.2471C12.1357 39.6458 11.6474 40.4532 11.7453 41.3036L13.2332 54.2234L13.2988 54.7466C13.5433 56.4269 14.398 57.9292 15.988 59.4737L24.8824 68.9318C25.1509 69.2172 25.3077 69.5794 25.3233 69.9512L25.4881 73.8457C25.4884 73.8989 25.4948 73.9517 25.5044 74.0035H37.8271C37.828 73.9897 37.8296 73.9757 37.83 73.9619L38.077 68.7785C38.2984 64.1294 35.8896 59.7268 31.6331 57.0014L31.6111 56.9883C31.1221 56.7176 30.4447 56.1071 30.0934 55.6924L24.2684 49.0389C23.7833 48.3631 22.9338 47.9603 21.9921 47.9603C21.4897 47.9603 20.995 48.0796 20.5614 48.3055C19.3006 48.9625 18.8575 50.4142 19.573 51.5419L25.2111 59.6394C25.2399 59.7031 25.2377 59.8327 25.1119 59.9082C25.0185 59.9428 24.9116 59.9136 24.8441 59.8346L24.8255 59.8125L19.3189 55.053L16.4093 40.753C16.2211 39.7402 15.2433 39.0049 14.0846 39.0049L14.0847 39.0049Z" fill="#9FEDD7"/>
<path d="M66.6871 39.0048C65.5284 39.0048 64.5506 39.7402 64.3634 40.7474L61.4529 55.0524L55.9683 59.7927L55.9277 59.8336C55.8602 59.9133 55.7523 59.9418 55.6602 59.9072C55.5344 59.832 55.5322 59.7024 55.561 59.6384L61.1911 51.5531L61.1991 51.5406C61.9149 50.4133 61.4711 48.9612 60.2107 48.3043C59.7774 48.0784 59.2827 47.959 58.7803 47.959C57.8386 47.959 56.9891 48.3619 56.5037 49.038L50.6745 55.6956C50.3273 56.1061 49.6499 56.7163 49.1609 56.9871L49.1389 57.0002C44.8821 59.7255 42.4733 64.1282 42.6947 68.7772L42.942 73.9606C42.9424 73.9747 42.9443 73.9885 42.9449 74.0022H55.2676C55.2772 73.9504 55.2836 73.8979 55.2839 73.8448L55.4487 69.9499C55.4647 69.5781 55.6211 69.2162 55.8896 68.9305L64.784 59.4725C66.374 57.9279 67.2284 56.4256 67.4742 54.7393L67.5391 54.219L69.0267 41.3025C69.1249 40.4519 68.6367 39.6447 67.7829 39.2456C67.4392 39.085 67.0706 39.0034 66.6873 39.0034L66.6871 39.0048Z" fill="#9FEDD7"/>
</svg>
