<svg width="80" height="80" viewBox="0 0 80 80" fill="none" xmlns="http://www.w3.org/2000/svg">
<path fill-rule="evenodd" clip-rule="evenodd" d="M67.0721 23.9026C68.0107 26.9985 68.0107 30.3037 67.0721 33.3997L70.5139 36.7986C71.4633 37.7078 72 38.9658 72 40.2814C72 41.5969 71.4632 42.8554 70.5139 43.7647L66.5668 47.6694C65.5976 48.576 64.3056 49.0538 62.9807 48.9952C61.6742 48.9968 60.4229 48.4657 59.515 47.5252L56.097 44.0537C53.0658 44.9582 49.8375 44.9582 46.8063 44.0537L43.3164 47.501C42.4004 48.4242 41.1502 48.937 39.8507 48.923C38.5474 48.9306 37.2971 48.4086 36.3849 47.4767L32.4855 43.5237C31.5367 42.6145 31 41.3559 31 40.0404C31 38.7248 31.5367 37.4669 32.4855 36.5576L35.9997 33.0861C35.0966 30.051 35.0966 26.8172 35.9997 23.7821L32.6301 20.3106C31.6813 19.4014 31.1445 18.1434 31.1445 16.8278C31.1445 15.5123 31.6813 14.2538 32.6301 13.3445L36.5772 9.48774C37.485 8.53751 38.7417 8 40.0553 8C41.3689 8 42.6249 8.53755 43.5329 9.48774L46.8788 12.9587C49.9701 12.0187 53.2703 12.0187 56.3617 12.9587L59.7313 9.63251C60.6392 8.68227 61.8959 8.14477 63.2089 8.14477C64.5225 8.14477 65.7791 8.68231 66.687 9.63251L70.4896 13.6098C71.4174 14.5331 71.9305 15.7948 71.9101 17.105C71.8923 18.4096 71.3652 19.6558 70.4417 20.5759L67.0721 23.9026ZM51.2998 35.8608C53.2445 35.9184 55.1308 35.1877 56.5298 33.8334C57.967 32.5297 58.8201 30.702 58.8975 28.7612C58.9743 26.8204 58.2684 24.9309 56.9392 23.5168C55.6299 22.1093 53.8146 21.2828 51.8945 21.2193C49.9749 21.1558 48.1091 21.8612 46.7101 23.1794C45.2606 24.4739 44.3929 26.2985 44.3032 28.2414C44.1979 30.187 44.8813 32.0933 46.198 33.5277C47.5154 34.9622 49.355 35.8032 51.2998 35.8608Z" fill="#026670"/>
<path fill-rule="evenodd" clip-rule="evenodd" d="M33.5842 49.567H35.7775C36.8947 49.5605 37.9679 50.0116 38.7604 50.8216C39.5523 51.6315 39.9978 52.7326 39.9978 53.8813V56.9459C40.0356 58.1543 39.5869 59.3255 38.7577 60.1825C37.9657 60.9902 36.8934 61.4401 35.7773 61.433H33.5602C32.616 63.0535 31.2977 64.4095 29.7213 65.3804V67.6602C29.7277 68.809 29.2886 69.9128 28.5009 70.7271C27.7131 71.542 26.6418 72 25.5247 72H22.5209C21.4018 72 20.3282 71.5425 19.5368 70.7287C18.7449 69.915 18.3005 68.8112 18.3005 67.6603V65.2086C16.773 64.2476 15.4962 62.9178 14.5808 61.3351H12.1965C11.0836 61.3351 10.016 60.8804 9.22941 60.071C8.44227 59.2622 8 58.1644 8 57.0201V53.9554C8 52.8047 8.44493 51.7008 9.23633 50.887C10.0277 50.0732 11.1012 49.6157 12.2204 49.6157H14.6047C15.5367 48.0445 16.8198 46.7245 18.3484 45.7668V43.3151C18.3484 42.1702 18.7901 41.073 19.5773 40.2636C20.3644 39.4548 21.4315 39 22.5443 39H25.5247C26.6418 39 27.7133 39.458 28.5009 40.2724C29.2886 41.0868 29.7277 42.1906 29.7213 43.3393V45.6196C31.3048 46.5894 32.631 47.945 33.5842 49.567ZM21.494 57.8798C22.1645 58.5694 23.0746 58.9568 24.023 58.9568C24.9713 58.9568 25.8815 58.5692 26.5521 57.8798C27.2227 57.1904 27.5995 56.2544 27.5995 55.2793C27.5995 54.3042 27.2225 53.3684 26.5521 52.6788C25.8816 51.9893 24.9713 51.6018 24.023 51.6018C23.0748 51.6018 22.1646 51.9894 21.494 52.6788C20.8234 53.3682 20.4466 54.3042 20.4466 55.2793C20.4466 56.2544 20.8235 57.1903 21.494 57.8798Z" fill="#FCE181"/>
</svg>
