<svg width="80" height="80" viewBox="0 0 80 80" fill="none" xmlns="http://www.w3.org/2000/svg">
<path d="M33.985 30.2992V45.4999L33.9793 45.5038V48.8992C33.9793 51.7159 31.696 53.9992 28.8793 53.9992C26.0627 53.9992 23.7793 51.7159 23.7793 48.8992V43.0992C23.7793 42.8799 23.7931 42.6639 23.82 42.4519V30.2992H18.7605C16.9383 30.2992 15.799 28.3273 16.7104 26.7496L26.8524 9.18286C27.7638 7.60571 30.0402 7.60571 30.9516 9.18286L41.0925 26.7496C42.0044 28.3274 40.8656 30.2992 39.0439 30.2992H33.985Z" fill="#026670"/>
<path d="M55.985 48.2992V63.4999L55.9793 63.5038V66.8992C55.9793 69.7159 53.696 71.9992 50.8793 71.9992C48.0627 71.9992 45.7793 69.7159 45.7793 66.8992V61.0992C45.7793 60.8799 45.7931 60.6639 45.82 60.4519V48.2992H40.7605C38.9383 48.2992 37.799 46.3273 38.7104 44.7496L48.8524 27.1829C49.7638 25.6057 52.0402 25.6057 52.9516 27.1829L63.0925 44.7496C64.0044 46.3274 62.8656 48.2992 61.0439 48.2992H55.985Z" fill="#8F5878"/>
</svg>
