<svg width="80" height="80" viewBox="0 0 80 80" fill="none" xmlns="http://www.w3.org/2000/svg">
<path d="M43.736 55.8349H23.595V37.2995H28.6539C30.4755 37.2995 31.6143 35.3277 30.7024 33.7499L25.6326 24.9668L20.5617 16.1836C19.6503 14.6065 17.3739 14.6065 16.4626 16.1836L6.32077 33.7499C5.4094 35.3276 6.5486 37.2995 8.37078 37.2995H13.4302V60.9176C13.4302 63.7252 15.7071 65.9999 18.5126 65.9999H43.7363C46.5423 65.9999 48.8187 63.7257 48.8187 60.9176C48.8176 58.1094 46.5418 55.8352 43.7358 55.8352L43.736 55.8349Z" fill="#026670"/>
<path d="M70.8991 43.7009H65.8397V20.0829C65.8397 17.2753 63.5627 15.0005 60.7573 15.0005L35.5336 15C32.7276 15 30.4512 17.2742 30.4512 20.0824C30.4512 22.8905 32.7281 25.1648 35.5336 25.1648L55.6746 25.1653V43.7007H50.6157C48.7941 43.7007 47.6553 45.6725 48.5672 47.2503L53.637 56.0334L58.7079 64.8166C59.6193 66.3937 61.8957 66.3937 62.807 64.8166L72.9488 47.2503C73.8602 45.6731 72.721 43.7012 70.8993 43.7012L70.8991 43.7009Z" fill="#8F5878"/>
</svg>
