<svg width="80" height="80" viewBox="0 0 80 80" fill="none" xmlns="http://www.w3.org/2000/svg">
<path d="M62.2103 44.149L52.3545 34.2929C51.6491 33.6228 50.8249 33.2882 49.8837 33.2882C48.924 33.2882 48.0556 33.6775 47.2774 34.4559L40.3268 27.5048L43.7484 24.0835C44.0019 23.83 44.1288 23.5223 44.1288 23.16C44.1288 22.7981 44.0019 22.4904 43.7484 22.2369C43.7842 22.273 43.893 22.3863 44.0742 22.5763C44.255 22.7667 44.3727 22.8796 44.4277 22.9158C44.4819 22.9519 44.586 23.0419 44.7398 23.1869C44.8945 23.3315 45.0158 23.4223 45.1066 23.4581C45.1974 23.4942 45.3199 23.5484 45.4741 23.6211C45.6276 23.6934 45.7766 23.7433 45.922 23.7706C46.0667 23.7975 46.2302 23.8111 46.4109 23.8111C47.0982 23.8111 47.714 23.5577 48.2567 23.0511C48.3113 22.9969 48.474 22.8475 48.7456 22.6028C49.0171 22.3582 49.2023 22.1867 49.3019 22.087C49.4016 21.9874 49.5514 21.8199 49.7506 21.5849C49.9495 21.3495 50.0901 21.1503 50.1716 20.9872C50.2528 20.8245 50.3339 20.6253 50.4159 20.3899C50.497 20.1545 50.5376 19.9195 50.5376 19.6841C50.5376 18.9598 50.2841 18.3444 49.7776 17.8375L38.6991 6.76002C38.1922 6.25307 37.5768 6 36.8529 6C36.6175 6 36.3825 6.04057 36.1467 6.12212C35.9113 6.20326 35.7125 6.2852 35.5494 6.36635C35.3863 6.44749 35.1874 6.58809 34.952 6.78734C34.7166 6.98658 34.5495 7.13601 34.4499 7.23564C34.3503 7.33527 34.1784 7.52084 33.9341 7.792C33.6895 8.06355 33.5401 8.22664 33.4858 8.28087C32.9793 8.82356 32.7258 9.43941 32.7258 10.1271C32.7258 10.3078 32.7395 10.4709 32.7668 10.6155C32.7941 10.7606 32.8439 10.91 32.9162 11.0638C32.9885 11.2177 33.0428 11.3402 33.0793 11.4306C33.1155 11.521 33.2054 11.6435 33.3505 11.7973C33.4955 11.9508 33.5859 12.0552 33.622 12.1095C33.6582 12.1641 33.7714 12.2814 33.9614 12.4626C34.1519 12.6433 34.2651 12.7526 34.3009 12.7884C34.0474 12.5349 33.7397 12.4079 33.3778 12.4079C33.0158 12.4079 32.7077 12.5345 32.4547 12.7884L23.0039 22.2384C22.7504 22.4919 22.6235 22.7996 22.6235 23.1615C22.6235 23.5239 22.75 23.8316 23.0039 24.085C22.9677 24.0489 22.8589 23.9352 22.6781 23.7456C22.4973 23.5552 22.3796 23.4423 22.325 23.4062C22.2708 23.37 22.1667 23.28 22.0129 23.135C21.859 22.9904 21.7365 22.8996 21.6461 22.8639C21.5557 22.8277 21.4336 22.7735 21.2794 22.7008C21.1259 22.6285 20.9765 22.5787 20.8315 22.5514C20.6869 22.5244 20.5238 22.5108 20.343 22.5108C19.6553 22.5108 19.039 22.7643 18.4964 23.2708C18.4425 23.325 18.2791 23.4749 18.0079 23.7191C17.7364 23.9637 17.5512 24.1353 17.4515 24.2349C17.3519 24.3345 17.2029 24.502 17.0036 24.737C16.8048 24.9724 16.6642 25.1717 16.5827 25.3347C16.5015 25.4974 16.42 25.6967 16.3384 25.9321C16.2573 26.1675 16.2163 26.4025 16.2163 26.6379C16.2163 27.3621 16.4698 27.9771 16.9763 28.4841L28.0548 39.5615C28.5617 40.0685 29.1771 40.3215 29.901 40.3215C30.1364 40.3215 30.3714 40.2813 30.6072 40.1998C30.8426 40.1187 31.0414 40.0367 31.2045 39.9556C31.3676 39.8744 31.5664 39.7338 31.8018 39.5346C32.0372 39.3353 32.2044 39.1859 32.304 39.0859C32.4036 38.9863 32.5755 38.8011 32.8198 38.5295C33.0644 38.2584 33.2138 38.0949 33.2681 38.0406C33.7746 37.498 34.0281 36.8817 34.0281 36.1944C34.0281 36.0137 34.0144 35.8506 33.9871 35.7056C33.9598 35.5606 33.91 35.4115 33.8377 35.2573C33.7654 35.1038 33.7111 34.9813 33.6746 34.8905C33.6384 34.8001 33.5484 34.6776 33.4034 34.5238C33.2584 34.3703 33.168 34.2659 33.1319 34.2116C33.0957 34.157 32.9825 34.0393 32.7924 33.8581C32.602 33.6774 32.4888 33.5681 32.453 33.532C32.7065 33.7858 33.0142 33.9124 33.3761 33.9124C33.738 33.9124 34.0462 33.7858 34.2992 33.532L37.7206 30.1106L44.6716 37.0617C43.8931 37.8402 43.5039 38.7083 43.5039 39.6679C43.5039 40.6457 43.8482 41.46 44.5359 42.1123L54.3925 51.9953C55.0625 52.665 55.8764 53 56.836 53C57.7772 53 58.6007 52.6646 59.3069 51.9953L62.212 49.0625C62.882 48.3924 63.217 47.5786 63.217 46.6189C63.2166 45.6785 62.8816 44.8547 62.2104 44.1488L62.2103 44.149Z" fill="#026670"/>
<rect x="12" y="57.9592" width="56" height="16" rx="3" fill="#8F5878"/>
</svg>
