<svg width="80" height="80" viewBox="0 0 80 80" fill="none" xmlns="http://www.w3.org/2000/svg">
<path d="M39 42.3788C41.2047 42.3788 43 40.641 43 38.5071C43 36.3732 41.2047 34.6354 39 34.6354H35C33.6614 34.6354 32.4173 35.2757 31.6772 36.3578L28.2127 41.388L22.7953 25.6567C22.3071 24.2544 21.0472 23.233 19.5354 23.0349C18.0079 22.8368 16.5275 23.4922 15.6771 24.727L8.85823 34.6196H6.99999C4.79532 34.6196 3 36.3573 3 38.4912C3 40.6252 4.79532 42.3629 6.99999 42.3629H11C12.3386 42.3629 13.5827 41.7227 14.3228 40.6405L17.7873 35.6103L23.2047 51.3417C23.6929 52.7439 24.9528 53.7653 26.4646 53.9634C26.6378 53.9786 28.5748 54.3597 30.3229 52.2714L37.1418 42.3788H39Z" fill="#026670"/>
<path d="M40.1248 29.5091C40.8246 29.5079 41.5089 29.3071 42.0932 28.9312C42.6774 28.5547 43.1361 28.0196 43.4129 27.3917C45.2082 23.3179 48.8744 20.3162 53.2953 19.3002C57.7157 18.2842 62.3685 19.3741 65.836 22.2389C69.3028 25.1033 71.1749 29.4028 70.8818 33.8287C70.5888 38.2545 68.1649 42.2825 64.3481 44.6868C60.6932 46.9965 57.9431 50.8103 56.196 56.0594C56.0747 56.4158 55.9279 56.7636 55.7573 57.1004C54.8631 58.9292 53.1879 60.2802 51.1795 60.7916C48.9718 61.3512 46.6236 60.8508 44.8552 59.4449C43.1267 58.0383 42.1394 55.9465 42.1675 53.7498V53.1286C42.1675 51.8782 41.4845 50.7232 40.376 50.0983C39.2675 49.4735 37.9015 49.4735 36.7924 50.0983C35.6839 50.7232 35.001 51.8784 35.001 53.1286V53.6533C34.956 57.5239 36.505 61.2499 39.3014 63.9934C41.9903 66.5709 45.6107 68.0104 49.3794 67.9999C50.5435 67.9981 51.7045 67.8626 52.8368 67.5978C56.9228 66.5946 60.3458 63.8791 62.1893 60.1795C62.5061 59.551 62.7786 58.9023 63.0048 58.2371C64.2502 54.5191 65.9698 52.0087 68.2456 50.565L68.245 50.5656C72.9978 47.5383 76.3322 42.8 77.5219 37.3825C78.7116 31.9649 77.6606 26.3076 74.5969 21.6438C71.5338 16.98 66.7066 13.6878 61.1684 12.4851C56.2956 11.4453 51.2047 12.0885 46.7631 14.3042C42.3214 16.52 38.804 20.1715 36.8106 24.6364C36.337 25.7202 36.4538 26.9643 37.1218 27.9457C37.7892 28.9275 38.9183 29.5152 40.1249 29.5091L40.1248 29.5091Z" fill="#9FEDD7"/>
</svg>
