<svg width="80" height="80" viewBox="0 0 80 80" fill="none" xmlns="http://www.w3.org/2000/svg">
<rect x="22.6665" y="16" width="29.1515" height="45.4333" rx="2.36364" fill="#026670"/>
<rect x="57.3335" y="16" width="7.87879" height="35.25" rx="2.36364" fill="#8F5878"/>
<path fill-rule="evenodd" clip-rule="evenodd" d="M59.8912 60.4818C60.4894 61.5723 62.056 61.5723 62.6542 60.4818L64.7197 56.717C65.2958 55.6669 64.5359 54.3833 63.3381 54.3833H59.2072C58.0094 54.3833 57.2496 55.6669 57.8257 56.717L59.8912 60.4818Z" fill="#8F5878"/>
<rect x="14" y="16.7834" width="6.30303" height="3.91667" rx="1.57576" fill="#9FEDD7"/>
<rect x="14" y="24.6167" width="6.30303" height="3.91667" rx="1.57576" fill="#9FEDD7"/>
<rect x="14" y="32.45" width="6.30303" height="3.91667" rx="1.57576" fill="#9FEDD7"/>
<rect x="14" y="39.5" width="6.30303" height="3.91667" rx="1.57576" fill="#9FEDD7"/>
<rect x="14" y="47.3333" width="6.30303" height="3.91667" rx="1.57576" fill="#9FEDD7"/>
<rect x="14" y="55.1667" width="6.30303" height="3.91667" rx="1.57576" fill="#9FEDD7"/>
</svg>
