<svg width="80" height="80" viewBox="0 0 80 80" fill="none" xmlns="http://www.w3.org/2000/svg">
<path d="M71.1283 70.9683C68.6783 69.7244 67.2739 67.9115 67.2739 65.9997C67.2739 64.0878 68.6782 62.2749 71.1283 61.031V61.0316C71.7822 60.6994 72.1255 59.9548 71.9578 59.2321C71.7896 58.51 71.1546 57.9995 70.4243 58H16.875C14.0616 58 11.4618 59.5246 10.0548 62.0001C8.64839 64.4751 8.64839 67.5249 10.0548 69.9999C11.4618 72.4749 14.0616 74 16.875 74H70.4243C71.1547 74 71.7896 73.49 71.9573 72.7673C72.125 72.0452 71.7822 71.3006 71.1283 70.9685L71.1283 70.9683Z" fill="#FCE181"/>
<path d="M38.4997 52.0227C40.1106 52.6517 41.8237 52.982 43.5542 52.9966C47.7165 52.9966 51.506 50.9179 54.4024 46.9125C59.5096 39.855 61.0467 27.2954 55.462 21.0511C53.3903 18.7375 48.7081 15.7039 39.9517 19.7015C39.898 18.8804 39.8138 18.1279 39.7105 17.4177C46.0783 16.9829 49.4734 13.282 49.4734 6.56315C49.4734 6.14816 49.3081 5.75096 49.0132 5.45738C48.7183 5.16433 48.3181 5 47.9004 5C42.5037 5 39.0138 7.12462 37.603 11.2013C36.4539 9.30738 34.3976 8.14305 32.1726 8.12577C31.3037 8.12577 30.5996 8.82545 30.5996 9.68839C30.5996 10.5519 31.3037 11.2515 32.1726 11.2515C34.7277 11.2515 36.3855 14.3202 36.7894 19.5765C28.1914 15.751 23.5893 18.7565 21.538 21.0507C15.9532 27.2965 17.4905 39.8546 22.5976 46.9135C26.6356 52.4935 32.4063 54.3404 38.5001 52.0237L38.4997 52.0227Z" fill="#026670"/>
</svg>
