<svg width="80" height="80" viewBox="0 0 80 80" fill="none" xmlns="http://www.w3.org/2000/svg">
<path d="M53.1183 32.05C54.2436 33.1282 55.5562 33.9251 56.9628 34.4409C58.416 34.9566 59.8225 35.2378 61.1819 35.2378C61.5102 35.2378 61.8382 35.1911 62.1666 35.144C62.4949 35.0972 62.8229 34.9566 63.1513 34.8156C63.4325 34.6283 63.667 34.4406 63.8543 34.1593C64.0417 33.8781 64.1356 33.5498 64.1356 33.1279C64.1356 32.3778 63.7137 31.8153 62.8229 31.3934C61.9321 30.9716 60.9007 30.5497 59.6819 30.1275C58.6037 29.7524 57.5252 29.3306 56.3531 28.9087C55.2279 28.4398 54.1964 27.8773 53.2121 27.1271C52.2745 26.424 51.4776 25.5333 50.868 24.5019C50.2585 23.4705 49.9305 22.2046 49.9305 20.7046C49.9305 19.3919 50.165 18.2199 50.5868 17.1885C51.0087 16.1571 51.6182 15.2663 52.3684 14.5632C53.1185 13.813 53.8687 13.2505 54.8531 12.7816C55.8378 12.3127 56.9626 11.9847 57.9002 11.7502L57.8999 8H63.5255V11.6567C64.9321 11.8441 66.2446 12.2192 67.5106 12.7349C68.7765 13.2506 69.9485 14.0008 71.0267 14.9851L66.9011 20.4234C66.1041 19.7671 65.1665 19.2046 64.1352 18.8296C63.1038 18.4545 62.1194 18.2671 61.1816 18.2671C60.8065 18.2671 60.4314 18.2671 60.0095 18.3139C59.5877 18.3606 59.2126 18.4545 58.8375 18.5951C58.4624 18.7357 58.1812 18.9702 57.9467 19.2514C57.7122 19.5327 57.5716 19.9077 57.5716 20.4234C57.5716 20.8453 57.7122 21.1736 57.9467 21.4548C58.1811 21.736 58.5091 21.9705 58.9781 22.205C59.3999 22.4395 59.9156 22.6269 60.4313 22.8613C60.9938 23.0487 61.5565 23.2364 62.1658 23.4238C63.1972 23.7521 64.2754 24.174 65.4474 24.5958C66.5726 25.0177 67.6041 25.6272 68.5885 26.3304C69.526 27.0334 70.323 27.9242 70.9325 29.0028C71.5421 30.0809 71.8701 31.3936 71.8701 32.9878C71.8701 34.2067 71.6356 35.2851 71.167 36.2694C70.698 37.2541 70.0888 38.0978 69.3386 38.8009C68.5884 39.5039 67.6976 40.1135 66.6662 40.6292C65.6348 41.0982 64.416 41.4729 63.4784 41.7074L63.4788 45.974H57.9937V41.8484C56.5871 41.661 54.6649 41.2388 53.0243 40.5825C51.3833 39.9262 49.9772 38.9886 48.6646 37.7228L53.1183 32.05Z" fill="#9FEDD7"/>
<path fill-rule="evenodd" clip-rule="evenodd" d="M46 43.5C46 47.2902 44.8602 50.8141 42.9047 53.7478L54.5815 65.4246C55.753 66.5962 55.753 68.4957 54.5815 69.6673L53.1673 71.0815C51.9957 72.253 50.0962 72.253 48.9246 71.0815L37.1376 59.2945C34.3308 61.0108 31.0309 62 27.5 62C17.2827 62 9 53.7173 9 43.5C9 33.2827 17.2827 25 27.5 25C37.7173 25 46 33.2827 46 43.5ZM27.5 54.5C33.5751 54.5 38.5 49.5751 38.5 43.5C38.5 37.4249 33.5751 32.5 27.5 32.5C21.4249 32.5 16.5 37.4249 16.5 43.5C16.5 49.5751 21.4249 54.5 27.5 54.5Z" fill="#026670"/>
</svg>
