<svg width="80" height="80" viewBox="0 0 80 80" fill="none" xmlns="http://www.w3.org/2000/svg">
<rect x="26.2339" y="15" width="17.6623" height="49.4545" rx="3" fill="#026670"/>
<rect x="2.38965" y="41.4934" width="17.6623" height="22.961" rx="3" fill="#8F5878"/>
<path fill-rule="evenodd" clip-rule="evenodd" d="M76.7793 50.9542C76.7793 51.6497 76.7266 52.3334 76.6256 53.0008L73.2199 54.6731C73.1335 54.904 73.0395 55.1309 72.9373 55.3543L74.1624 58.9433C73.3499 60.0486 72.373 61.0254 71.2676 61.8384L67.6789 60.6131C67.4557 60.7146 67.2285 60.8086 66.9974 60.895L65.3259 64.3007C64.6585 64.4019 63.9748 64.4546 63.2793 64.4546C62.5838 64.4546 61.9005 64.4019 61.2328 64.3005L59.561 60.8948C59.3301 60.8084 59.1029 60.7144 58.8799 60.6129L55.2908 61.8382C54.1854 61.0254 53.2085 60.0484 52.3959 58.9431L53.6212 55.3541C53.5197 55.1307 53.4257 54.9038 53.3391 54.6729L49.9335 53.001C49.832 52.3336 49.7793 51.6499 49.7793 50.9544C49.7793 50.2589 49.832 49.5758 49.9335 48.9083L53.3391 47.2362C53.4257 47.0053 53.5197 46.778 53.6212 46.5552L52.3959 42.9661C53.2085 41.8607 54.1854 40.8837 55.2908 40.0712L58.8801 41.2969C59.1033 41.195 59.3302 41.1008 59.5612 41.0143L61.233 37.6088C61.9005 37.5069 62.5838 37.4546 63.2793 37.4546C63.9748 37.4546 64.6585 37.5069 65.3259 37.6088L66.9976 41.0142C67.2289 41.1006 67.4559 41.195 67.6787 41.2967L71.268 40.0712C72.3735 40.8837 73.3502 41.8603 74.1627 42.9661L72.9372 46.5552C73.0395 46.778 73.1334 47.0053 73.2199 47.2362L76.6256 48.9081C76.7266 49.5756 76.7793 50.2587 76.7793 50.9542ZM59.7793 51.4543C59.7793 53.1114 61.1221 54.4546 62.7788 54.4546C64.4357 54.4546 65.7793 53.1114 65.7793 51.4543C65.7793 49.7976 64.4356 48.4546 62.7788 48.4546C61.1222 48.4546 59.7793 49.7976 59.7793 51.4543Z" fill="#9FEDD7"/>
</svg>
