<svg width="80" height="80" viewBox="0 0 80 80" fill="none" xmlns="http://www.w3.org/2000/svg">
<path fill-rule="evenodd" clip-rule="evenodd" d="M40.1972 70C38.2917 70 36.6283 68.9616 35.7402 67.419L22.2993 50.9764C18.3837 46.6254 16 40.8644 16 34.5451C16 20.9895 26.9693 10 40.5 10C54.0307 10 65 20.9895 65 34.5451C65 41.2059 62.3523 47.2465 58.054 51.6686L43.8956 68.5595H43.764C42.839 69.4513 41.582 70 40.1972 70ZM55.5094 34.4615C55.5094 42.8731 48.68 49.6923 40.2547 49.6923C31.8298 49.6923 25 42.8736 25 34.4615C25 26.0498 31.8294 19.2307 40.2547 19.2307C48.6796 19.2307 55.5094 26.0494 55.5094 34.4615Z" fill="#8F5878"/>
<path fill-rule="evenodd" clip-rule="evenodd" d="M40.2218 26.3891C40.2218 25.0696 41.2915 24 42.6109 24C43.9304 24 45 25.0696 45 26.3891V35.2765C45 36.0214 44.6591 36.6866 44.1248 37.1248C43.6866 37.6591 43.0214 38 42.2764 38H33.3891C32.0696 38 31 36.9304 31 35.6109C31 34.2915 32.0696 33.2218 33.3891 33.2218H40.2218V26.3891Z" fill="#026670"/>
</svg>
