<svg width="80" height="80" viewBox="0 0 80 80" fill="none" xmlns="http://www.w3.org/2000/svg">
<path fill-rule="evenodd" clip-rule="evenodd" d="M34.6668 20C36.1396 20 37.3335 21.1939 37.3335 22.6667V24.4444C37.3335 25.9172 36.1396 27.1111 34.6668 27.1111H8.88905C7.41629 27.1111 6.22238 25.9172 6.22238 24.4444V22.6667C6.22238 21.1939 7.41629 20 8.88905 20H34.6668Z" fill="#FCE181"/>
<path fill-rule="evenodd" clip-rule="evenodd" d="M28.4447 32.4443C29.9174 32.4443 31.1113 33.6382 31.1113 35.111V36.8888C31.1113 38.3615 29.9174 39.5554 28.4447 39.5554H2.66689C1.19413 39.5554 0.000216782 38.3615 0.000216782 36.8888V35.111C0.000216782 33.6382 1.19412 32.4443 2.66688 32.4443H28.4447Z" fill="#9FEDD7"/>
<path fill-rule="evenodd" clip-rule="evenodd" d="M32.889 44.8889C34.3618 44.8889 35.5557 46.0828 35.5557 47.5556V49.3334C35.5557 50.8061 34.3618 52 32.889 52H7.11122C5.63846 52 4.44455 50.8061 4.44455 49.3334V47.5556C4.44455 46.0828 5.63846 44.8889 7.11122 44.8889H32.889Z" fill="#8F5878"/>
<path fill-rule="evenodd" clip-rule="evenodd" d="M70.5468 36.9399C70.5468 40.4104 69.5031 43.6372 67.7125 46.3235L78.4046 57.0156C79.4773 58.0884 79.4773 59.8277 78.4046 60.9005L77.1096 62.1954C76.0368 63.2682 74.2975 63.2682 73.2248 62.1954L62.4317 51.4024C59.8616 52.974 56.84 53.8798 53.6069 53.8798C44.2512 53.8798 36.667 46.2955 36.667 36.9399C36.667 27.5842 44.2512 20 53.6069 20C62.9625 20 70.5468 27.5842 70.5468 36.9399ZM53.6069 47.0123C59.1697 47.0123 63.6793 42.5027 63.6793 36.9399C63.6793 31.3771 59.1697 26.8675 53.6069 26.8675C48.0441 26.8675 43.5345 31.3771 43.5345 36.9399C43.5345 42.5027 48.0441 47.0123 53.6069 47.0123Z" fill="#026670"/>
</svg>
