<svg width="80" height="80" viewBox="0 0 80 80" fill="none" xmlns="http://www.w3.org/2000/svg">
<path fill-rule="evenodd" clip-rule="evenodd" d="M66 20C67.6569 20 69 21.3431 69 23L69 35C69 36.6569 67.6569 38 66 38H14C12.3431 38 11 36.6569 11 35V23C11 21.3431 12.3431 20 14 20L66 20Z" fill="#026670"/>
<path fill-rule="evenodd" clip-rule="evenodd" d="M56 42C57.6569 42 59 43.3431 59 45V57C59 58.6569 57.6569 60 56 60H39C37.3431 60 36 58.6569 36 57V45C36 43.3431 37.3431 42 39 42H56Z" fill="#026670"/>
<path fill-rule="evenodd" clip-rule="evenodd" d="M28 42C29.6569 42 31 43.3431 31 45V57C31 58.6569 29.6569 60 28 60H14C12.3431 60 11 58.6569 11 57V45C11 43.3431 12.3431 42 14 42H28Z" fill="#FCE181"/>
</svg>
