<svg width="80" height="80" viewBox="0 0 80 80" fill="none" xmlns="http://www.w3.org/2000/svg">
<path d="M40.022 7C46.239 7 51.3252 12.1079 51.3252 18.238C51.3252 20.6222 50.6471 22.8922 49.291 24.8218H30.8666C29.5105 22.8921 28.8324 20.622 28.8324 18.238C28.7189 12.1079 33.8052 7 40.0222 7H40.022Z" fill="#8F5878"/>
<path d="M27.8145 30.135C27.8145 29.5672 28.0407 29.1135 28.3798 28.7731C28.7188 28.4326 29.1714 28.2053 29.7359 28.2053H50.1947C51.2118 28.2053 52.1162 29.1135 52.1162 30.1349C52.1162 30.5887 51.8899 31.1564 51.5509 31.4969C51.2118 31.8373 50.6465 32.0646 50.1947 32.0646H29.7359C28.7188 32.0646 27.8145 31.2704 27.8145 30.135Z" fill="#026670"/>
<path d="M31.2054 36.4487H48.7256L52.0031 73H27.9272L31.2054 36.4487Z" fill="#8F5878"/>
</svg>
