<svg width="80" height="80" viewBox="0 0 80 80" fill="none" xmlns="http://www.w3.org/2000/svg">
<circle cx="40.5" cy="62.5" r="12.5" fill="#9FEDD7"/>
<rect x="9" y="5" width="23" height="23" rx="5.11111" fill="#FCE181"/>
<rect x="49" y="5" width="23" height="23" rx="5.11111" fill="#8F5878"/>
<path d="M40.4998 35C41.8805 35 42.9998 36.1193 42.9998 37.5V44.5C42.9998 45.8807 41.8805 47 40.4998 47C39.1191 47 37.9998 45.8807 37.9998 44.5V37.5C37.9998 36.1193 39.1191 35 40.4998 35Z" fill="#026670"/>
<path d="M32.2571 28.7574C33.2334 27.7811 34.8164 27.7811 35.7927 28.7574L42.1566 35.1213C43.1329 36.0977 43.1329 37.6806 42.1566 38.6569C41.1803 39.6332 39.5974 39.6332 38.6211 38.6569L32.2571 32.2929C31.2808 31.3166 31.2808 29.7337 32.2571 28.7574Z" fill="#026670"/>
<path d="M48.1566 28.7574C47.1803 27.7811 45.5974 27.7811 44.6211 28.7574L38.2571 35.1213C37.2808 36.0977 37.2808 37.6806 38.2571 38.6569C39.2334 39.6332 40.8164 39.6332 41.7927 38.6569L48.1566 32.2929C49.1329 31.3166 49.1329 29.7337 48.1566 28.7574Z" fill="#026670"/>
</svg>
