<svg width="80" height="80" viewBox="0 0 80 80" fill="none" xmlns="http://www.w3.org/2000/svg">
<path d="M32.5083 54.2319L43.572 63.7891C47.1478 66.8786 52.5148 66.4408 55.5591 62.812L39.0671 48.5652L32.5083 54.2319Z" fill="#026670"/>
<path fill-rule="evenodd" clip-rule="evenodd" d="M54.4068 29.2001C51.4684 25.6933 46.2884 25.2701 42.8372 28.2558L29.6004 39.7052L24.1341 34.9766C25.0037 31.6002 24.0092 27.8689 21.2189 25.4554C19.4811 23.9527 17.3547 23.2173 15.2386 23.2173C12.6259 23.2173 10.0297 24.338 8.20374 26.5182C4.89731 30.4631 5.36514 36.3847 9.24823 39.7428C10.9861 41.2455 13.1125 41.981 15.2285 41.981C16.4254 41.981 17.6102 41.7172 18.7274 41.2525L23.2685 45.1809L18.8621 48.9923C17.7478 48.5074 16.5218 48.236 15.2327 48.236C10.134 48.2356 6 52.4362 6 57.6178C6 62.7993 10.134 66.9999 15.2334 66.9999C20.3328 66.9999 24.4669 62.7993 24.4669 57.6178C24.4669 56.834 24.345 56.0849 24.1664 55.3568L54.4068 29.2001ZM11.908 36.5681C10.8647 35.6658 10.2298 34.4044 10.1203 33.0167C10.0108 31.6291 10.4392 30.2807 11.3272 29.2206C12.3034 28.0556 13.7287 27.387 15.2381 27.387C16.0968 27.387 17.3701 27.6027 18.5583 28.6301C19.6016 29.5324 20.2365 30.7939 20.346 32.1815C20.4555 33.5692 20.0271 34.9175 19.1391 35.9776C18.1629 37.1434 16.7376 37.8117 15.229 37.8117C14.3699 37.812 13.0962 37.5959 11.908 36.5681ZM10.1042 57.619C10.1042 60.4926 12.4051 62.8309 15.2335 62.8309C18.0616 62.8309 20.3629 60.4926 20.3629 57.619C20.3629 54.745 18.062 52.407 15.2335 52.407C12.4051 52.407 10.1042 54.745 10.1042 57.619Z" fill="#026670"/>
<rect x="49.7964" y="39.3479" width="24.2034" height="11.5217" rx="4.04795" fill="#9FEDD7"/>
<path fill-rule="evenodd" clip-rule="evenodd" d="M69.952 14C72.1877 14 74 15.8123 74 18.048V30.6912C74 32.9268 72.1877 34.7391 69.952 34.7391H66.5225C64.2869 34.7391 62.4746 32.9268 62.4746 30.6912V18.048C62.4746 15.8123 64.2869 14 66.5225 14H69.952Z" fill="#FCE181"/>
</svg>
