<svg width="80" height="80" viewBox="0 0 80 80" fill="none" xmlns="http://www.w3.org/2000/svg">
<path d="M26.2588 64.6067H18.1419C16.5636 64.6067 15.4362 63.4831 15.4362 61.9101V53.8202C15.4362 52.2471 14.3089 51.1235 12.7306 51.1235C11.1523 51.1235 10.0249 52.2471 10.0249 53.8202V61.9101C10.0249 66.4044 13.6324 69.9999 18.1419 69.9999H26.2588C27.8371 69.9999 28.9645 68.8763 28.9645 67.3033C28.9645 65.7303 27.8371 64.6067 26.2588 64.6067Z" fill="#026670"/>
<path d="M12.7303 29.101C14.3086 29.101 15.436 27.9774 15.436 26.4044V18.3145C15.436 16.7415 16.5633 15.6179 18.1416 15.6179H26.2586C27.8369 15.6179 28.9643 14.4943 28.9643 12.9212C28.9643 11.3482 27.8369 10.2246 26.2586 10.2246H18.1416C13.6322 10.2246 10.0247 13.8201 10.0247 18.3145V26.4044C9.7992 27.9774 11.152 29.101 12.7303 29.101Z" fill="#026670"/>
<path d="M61.8832 10H53.7662C52.1879 10 51.0605 11.1236 51.0605 12.6966C51.0605 14.2697 52.1879 15.3933 53.7662 15.3933H61.8832C63.4615 15.3933 64.5888 16.5169 64.5888 18.0899V26.1798C64.5888 27.7528 65.7162 28.8764 67.2945 28.8764C68.8728 28.8764 70.0001 27.7528 70.0001 26.1798V18.3146C70.0001 13.8202 66.3926 10 61.8832 10Z" fill="#026670"/>
<path d="M67.2945 50.8989C65.7162 50.8989 64.5888 52.0225 64.5888 53.5956V61.6854C64.5888 63.2585 63.4615 64.3821 61.8832 64.3821H53.7662C52.1879 64.3821 51.0605 65.5057 51.0605 67.0787C51.0605 68.6517 52.1879 69.7753 53.7662 69.7753H61.8832C66.3926 69.7753 70.0001 66.1798 70.0001 61.6854V53.5956C70.0001 52.2472 68.8728 50.8989 67.2945 50.8989Z" fill="#026670"/>
<path d="M32.1206 39.4382C27.1603 42.1348 23.5527 47.5281 23.5527 53.8202V56.2921C23.5527 57.8652 24.6801 58.9888 26.2584 58.9888H53.5404C55.1187 58.9888 56.2461 57.8652 56.2461 56.2921V53.5955C56.2461 47.5281 52.864 42.1348 47.6781 39.2135C49.4819 37.191 50.6093 34.7191 50.6093 31.7977C50.6093 25.7303 45.6489 21.0112 39.7867 21.0112C33.6989 21.0112 28.964 25.9551 28.964 31.7977C28.964 34.7191 30.0914 37.4157 32.1206 39.4382Z" fill="#8F5878"/>
</svg>
