<svg width="80" height="80" viewBox="0 0 80 80" fill="none" xmlns="http://www.w3.org/2000/svg">
<path fill-rule="evenodd" clip-rule="evenodd" d="M71 39.4991C71 41.0705 70.8809 42.615 70.6528 44.123L62.9585 47.9011C62.7632 48.4227 62.5509 48.9355 62.3198 49.4401L65.0877 57.5485C63.2521 60.0458 61.045 62.2525 58.5477 64.0893L50.4397 61.321C49.9355 61.5504 49.4223 61.7627 48.9002 61.958L45.1239 69.6524C43.6159 69.8809 42.0713 70 40.5 70C38.9287 70 37.385 69.8809 35.8765 69.6519L32.0993 61.9576C31.5776 61.7623 31.0645 61.5499 30.5607 61.3206L22.4519 64.0889C19.9546 62.2525 17.7475 60.0454 15.9115 57.5481L18.6798 49.4397C18.4505 48.935 18.2382 48.4223 18.0424 47.9006L10.3485 44.1234C10.1191 42.6154 10 41.0709 10 39.4995C10 37.9281 10.1191 36.3848 10.3485 34.8768L18.0424 31.0992C18.2382 30.5775 18.4505 30.064 18.6798 29.5606L15.9115 21.4519C17.7475 18.9546 19.9546 16.7472 22.4519 14.9115L30.5611 17.6807C31.0654 17.4505 31.5781 17.2377 32.0997 17.0424L35.877 9.34848C37.3849 9.11829 38.9286 9 40.5 9C42.0714 9 43.6159 9.11829 45.1239 9.34848L48.9007 17.042C49.4232 17.2373 49.9359 17.4505 50.4393 17.6802L58.5485 14.9115C61.0462 16.7472 63.2528 18.9537 65.0885 21.4519L62.3197 29.5606C62.5508 30.064 62.7631 30.5775 62.9584 31.0992L70.6528 34.8764C70.8809 36.3844 71 37.9277 71 39.4991ZM23.4559 40.3956C23.4559 49.3144 30.6831 56.5441 39.6005 56.5441C48.5181 56.5441 55.75 49.3144 55.75 40.3956C55.75 31.4788 48.5178 24.25 39.6005 24.25C30.6841 24.25 23.4559 31.4788 23.4559 40.3956Z" fill="#026670"/>
<path d="M50.3148 36.9999L40.0318 47.2873C40.0008 47.3176 39.9651 47.3392 39.9334 47.3675C39.8801 47.4155 39.8269 47.4589 39.7709 47.5016C39.6792 47.5694 39.5855 47.6305 39.4877 47.6844C39.4318 47.7147 39.3765 47.7456 39.3185 47.7732C39.2052 47.8251 39.0892 47.8639 38.9706 47.8968C38.92 47.9112 38.8728 47.9297 38.8216 47.9408C38.6503 47.9763 38.4763 48 38.3017 48H38.301H38.3004C38.1615 48 38.0232 47.9849 37.8857 47.9612C37.8432 47.954 37.8014 47.9421 37.7603 47.9329C37.6659 47.9119 37.5729 47.8856 37.4798 47.854C37.4306 47.8363 37.382 47.8172 37.3348 47.7968C37.2506 47.7613 37.1683 47.7186 37.0874 47.6713C37.0409 47.6456 36.9957 47.6206 36.9498 47.5911C36.9323 47.5799 36.9141 47.572 36.8979 47.5608L30.0124 42.7673C28.9261 42.0112 28.6747 40.5398 29.4501 39.4806C30.2261 38.4201 31.7344 38.1762 32.8206 38.9323L38.0177 42.551L46.8537 33.7119C47.7855 32.7796 49.3148 32.7606 50.2715 33.6692C51.2256 34.5758 51.2451 36.0683 50.3147 36.9999L50.3148 36.9999Z" fill="#FCE181"/>
</svg>
