<?xml version="1.0" encoding="UTF-8"?>
<svg id="Layer_1" xmlns="http://www.w3.org/2000/svg" version="1.1" viewBox="0 0 615.2 99.2">
  <!-- Generator: Adobe Illustrator 29.3.0, SVG Export Plug-In . SVG Version: 2.1.0 Build 146)  -->
  <defs>
    <style>
      .st0 {
        fill: #333b40;
      }

      .st1 {
        fill: #758591;
      }
    </style>
  </defs>
  <g>
    <path class="st0" d="M149.6,47.5h31.9c-.2,8.8-3.1,15.9-8.6,21.5-5.5,5.6-12.5,8.4-21,8.4s-15.9-2.9-21.5-8.6c-5.6-5.8-8.4-13.1-8.4-22s2.8-16,8.5-21.8c5.6-5.8,12.8-8.7,21.3-8.7s6.9.5,10.1,1.6,6.1,2.5,8.6,4.4c2.5,1.9,4.6,4.2,6.4,6.8s3,5.5,3.6,8.6h-6.2c-1.2-4.6-3.9-8.4-8.1-11.2-4.2-2.8-8.9-4.3-14.3-4.3s-12.7,2.3-17.2,7-6.7,10.6-6.7,17.7,2.2,13.2,6.7,17.9c4.4,4.6,10.2,6.9,17.3,6.9s11.1-1.7,15.3-5.1c4.2-3.4,6.8-7.8,7.8-13.4h-25.4v-5.6h0Z"/>
    <path class="st0" d="M211.2,30.4h4v5.4h-4.5c-4.4,0-7.8,1.4-10.3,4.2-2.5,2.8-3.7,6.5-3.7,11.2v25.2h-5.8V30.6h4.2l.9,7.9c3.3-5.4,8.4-8.1,15.2-8.1h0Z"/>
    <path class="st0" d="M259.2,30.6h4.6v45.8h-4.8l-.7-8.2c-2.1,2.9-4.8,5.1-8.1,6.7s-6.9,2.4-10.9,2.4c-6.7,0-12.3-2.3-16.8-6.8-4.5-4.6-6.7-10.2-6.7-17s2.2-12.5,6.7-17.1c4.5-4.5,10.1-6.8,16.8-6.8s7.6.8,10.9,2.4,6,3.9,8.1,6.7l.8-8.2h0ZM239.9,71.8c5.3,0,9.6-1.7,13-5.2,3.4-3.5,5.1-7.8,5.1-13.1s-1.7-9.6-5.1-13.1c-3.4-3.5-7.7-5.2-13-5.2s-6.5.8-9.2,2.4c-2.8,1.6-4.9,3.8-6.5,6.6s-2.3,5.9-2.3,9.3.8,6.5,2.3,9.3c1.5,2.8,3.7,5,6.5,6.6s5.9,2.4,9.2,2.4h0Z"/>
    <path class="st0" d="M311,30.6h6.2l-22.3,48.3c-2.4,5.2-4.8,8.8-7.3,10.8-2.5,2-5.8,3-9.9,3h-4.1v-5.3h3.6c3.1,0,5.5-.6,7.1-1.9,1.6-1.3,3.4-3.9,5.3-7.9l2-4.2-20.7-42.8h6.3l17.5,36.5,16.4-36.5h0Z"/>
    <path class="st0" d="M362.3,17c8.8,0,16,2.8,21.6,8.4,5.6,5.6,8.5,12.7,8.5,21.3s-2.8,15.7-8.5,21.3-12.9,8.4-21.6,8.4h-19.1V17.1h19.1,0ZM362.1,70.8c7.1,0,12.9-2.3,17.4-6.8s6.8-10.3,6.8-17.3-2.3-12.7-6.8-17.3c-4.5-4.5-10.4-6.8-17.4-6.8h-12.9v48.2h12.9Z"/>
    <path class="st0" d="M439.8,70.6c-4.6,4.5-10.3,6.8-17.2,6.8s-12.7-2.3-17.3-6.8c-4.6-4.5-6.9-10.2-6.9-17.1s2.3-12.5,6.9-17.1c4.6-4.5,10.4-6.8,17.3-6.8s8.6,1,12.3,3.1c3.7,2,6.6,4.9,8.7,8.5,2.1,3.7,3.1,7.7,3.1,12.3,0,6.8-2.3,12.5-6.9,17.1h0ZM409.5,66.6c3.5,3.5,7.8,5.2,13.1,5.2s9.6-1.7,13.1-5.2,5.2-7.8,5.2-13.1-1.7-9.6-5.2-13.1c-3.5-3.5-7.8-5.2-13.1-5.2s-9.6,1.7-13.1,5.2-5.2,7.8-5.2,13.1,1.7,9.6,5.2,13.1Z"/>
    <path class="st0" d="M473.5,71.1h5v5.3h-5.7c-4.8,0-8.5-1.4-11.2-4.1-2.7-2.7-4.1-6.5-4.1-11.2v-25.2h-7.8v-1.2l12.6-13h.9v8.9h14.8v5.3h-14.8v25c0,2.1.4,4,1.2,5.5.8,1.5,2,2.7,3.5,3.5,1.5.8,3.4,1.2,5.5,1.2h0Z"/>
    <path class="st0" d="M534,77.3c-8.8,0-16.1-2.9-21.8-8.6-5.7-5.7-8.6-13.1-8.6-22s2.8-16.2,8.6-22c5.7-5.8,13-8.7,21.8-8.7s12.7,1.8,17.7,5.5c5,3.7,8.4,8.6,10.2,14.8h-6.1c-1.1-3-2.7-5.6-4.8-7.7s-4.6-3.8-7.5-5c-2.9-1.2-6-1.7-9.5-1.7-7.1,0-12.9,2.3-17.4,7s-6.8,10.6-6.8,17.8,2.3,13.2,6.8,17.8c4.5,4.6,10.4,7,17.4,7s9.9-1.4,13.8-4.1c3.9-2.7,6.7-6.5,8.4-11.3h6c-1.8,6.5-5.2,11.7-10.3,15.5-5.1,3.8-11,5.7-17.9,5.7h0Z"/>
    <path class="st0" d="M608.3,70.6c-4.6,4.5-10.3,6.8-17.2,6.8s-12.7-2.3-17.3-6.8c-4.6-4.5-6.9-10.2-6.9-17.1s2.3-12.5,6.9-17.1c4.6-4.5,10.4-6.8,17.3-6.8s8.6,1,12.3,3.1c3.7,2,6.6,4.9,8.7,8.5,2.1,3.7,3.1,7.7,3.1,12.3,0,6.8-2.3,12.5-6.9,17.1h0ZM578.1,66.6c3.5,3.5,7.8,5.2,13.1,5.2s9.6-1.7,13.1-5.2,5.2-7.8,5.2-13.1-1.7-9.6-5.2-13.1c-3.5-3.5-7.8-5.2-13.1-5.2s-9.6,1.7-13.1,5.2-5.2,7.8-5.2,13.1,1.7,9.6,5.2,13.1Z"/>
  </g>
  <g>
    <polygon class="st1" points="32.9 2.9 32.9 2.9 32.9 2.9 32.9 2.9"/>
    <polygon class="st1" points="97.9 60.8 97.9 60.8 97.9 60.8 97.9 60.8"/>
    <path class="st1" d="M41.1,21.7c-.7-7.3-3.7-13.6-8.2-18.8h0l7.6,29c.7-3.3,1-6.7.6-10.2h0Z"/>
    <path class="st1" d="M99.2,49.6c0-18.9-10.6-35.4-26.2-43.7l26,48.6c.1-1.6.2-3.2.2-4.8Z"/>
    <path class="st1" d="M42.6,40.1l2,7.6L66.4,2.9c-5.2-1.9-10.9-2.9-16.8-2.9s-8,.5-11.8,1.4c4.6,5.8,7.5,12.8,8.1,20.6.5,6.4-.7,12.6-3.2,18.1h0Z"/>
    <path class="st1" d="M18.7,61.2l14.4,10.2,8.6-17.8-2.1-8.1c-4.9,7.2-12.2,12.8-20.9,15.6h0Z"/>
    <polygon class="st1" points="43.1 60.8 97.9 60.8 97.9 60.8 69 7.5 43.1 60.8"/>
    <path class="st1" d="M9.2,58.5c12.9-1.1,23.6-8.8,28.7-19.3L28.8,4.5C11.8,12.4,0,29.6,0,49.6s.3,5.9.8,8.7c2.7.4,5.6.5,8.4.2h0Z"/>
    <path class="st1" d="M36.7,74l30.8,21.9c13.8-5.3,24.6-16.6,29.2-30.8h-55.7l-4.3,8.9Z"/>
    <path class="st1" d="M13.1,62.6c-1.4.2-2.9.4-4.3.5-2.4.2-4.7.1-7-.1,3.4,12,11.1,22.2,21.5,28.6l7.9-16.2-18-12.8h0Z"/>
    <path class="st1" d="M27,93.8c6.8,3.5,14.4,5.4,22.5,5.4s8.7-.6,12.7-1.7l-27.6-19.6-7.7,15.8Z"/>
  </g>
</svg>