<svg xmlns="http://www.w3.org/2000/svg" id="Layer_1" data-name="Layer 1" viewBox="105.5 75.65 615.22 99.17">
  <defs>
    <style>
      .cls-1 {
        fill: #fff;
      }
    </style>
  </defs>
  <g>
    <path class="cls-1" d="m255.08,123.14h31.89c-.23,8.77-3.08,15.93-8.57,21.5-5.49,5.57-12.47,8.35-20.95,8.35s-15.88-2.88-21.5-8.65c-5.63-5.77-8.44-13.09-8.44-21.97s2.83-16.04,8.48-21.84c5.65-5.8,12.75-8.69,21.29-8.69,3.5,0,6.87.52,10.09,1.57,3.22,1.05,6.09,2.52,8.61,4.41,2.52,1.9,4.65,4.16,6.4,6.79,1.75,2.63,2.97,5.5,3.65,8.61h-6.19c-1.24-4.64-3.94-8.38-8.1-11.24-4.16-2.85-8.92-4.28-14.29-4.28-6.96,0-12.68,2.32-17.18,6.96-4.5,4.64-6.74,10.55-6.74,17.73s2.22,13.25,6.66,17.85c4.44,4.61,10.19,6.91,17.26,6.91,5.99,0,11.1-1.68,15.31-5.05,4.21-3.36,6.8-7.82,7.76-13.36h-25.45v-5.6Z"/>
    <path class="cls-1" d="m316.74,106.1h3.99v5.43h-4.5c-4.35,0-7.78,1.39-10.26,4.16-2.49,2.77-3.73,6.5-3.73,11.2v25.19h-5.77v-45.8h4.16l.93,7.89c3.34-5.37,8.4-8.06,15.18-8.06Z"/>
    <path class="cls-1" d="m364.75,106.27h4.58v45.8h-4.75l-.68-8.23c-2.09,2.88-4.78,5.13-8.06,6.74-3.28,1.61-6.9,2.42-10.86,2.42-6.73,0-12.34-2.27-16.84-6.83-4.5-4.55-6.74-10.22-6.74-17.01s2.25-12.52,6.74-17.05c4.5-4.52,10.11-6.79,16.84-6.79,4.01,0,7.65.81,10.9,2.42,3.25,1.61,5.95,3.86,8.1,6.74l.76-8.23Zm-19.34,41.22c5.26,0,9.58-1.74,12.98-5.22,3.39-3.48,5.09-7.84,5.09-13.1s-1.7-9.63-5.09-13.11c-3.39-3.48-7.72-5.22-12.98-5.22-3.39,0-6.48.81-9.24,2.42-2.77,1.61-4.93,3.82-6.49,6.62-1.56,2.8-2.33,5.91-2.33,9.33s.78,6.52,2.33,9.29c1.55,2.77,3.72,4.96,6.49,6.57,2.77,1.61,5.85,2.42,9.24,2.42Z"/>
    <path class="cls-1" d="m416.48,106.27h6.19l-22.31,48.35c-2.38,5.2-4.81,8.79-7.3,10.77-2.49,1.98-5.8,2.97-9.92,2.97h-4.07v-5.26h3.56c3.11,0,5.48-.64,7.12-1.91,1.64-1.27,3.42-3.89,5.34-7.85l1.95-4.24-20.7-42.83h6.28l17.47,36.47,16.37-36.47Z"/>
    <path class="cls-1" d="m467.8,92.69c8.76,0,15.97,2.8,21.63,8.4,5.65,5.6,8.48,12.7,8.48,21.29s-2.84,15.69-8.52,21.29c-5.68,5.6-12.88,8.4-21.59,8.4h-19.08v-59.37h19.08Zm-.17,53.78c7.07,0,12.88-2.28,17.43-6.83,4.55-4.55,6.83-10.32,6.83-17.3s-2.28-12.74-6.83-17.26c-4.55-4.52-10.36-6.79-17.43-6.79h-12.89v48.18h12.89Z"/>
    <path class="cls-1" d="m545.32,146.21c-4.58,4.52-10.32,6.79-17.22,6.79s-12.65-2.26-17.26-6.79c-4.61-4.52-6.91-10.21-6.91-17.05s2.3-12.52,6.91-17.05c4.61-4.52,10.36-6.79,17.26-6.79,4.52,0,8.64,1.02,12.34,3.05,3.7,2.04,6.59,4.88,8.65,8.52,2.06,3.65,3.1,7.73,3.1,12.26,0,6.84-2.29,12.53-6.87,17.05Zm-30.28-3.94c3.45,3.48,7.8,5.22,13.06,5.22s9.61-1.74,13.06-5.22c3.45-3.48,5.17-7.84,5.17-13.1s-1.73-9.63-5.17-13.11c-3.45-3.48-7.8-5.22-13.06-5.22s-9.61,1.74-13.06,5.22c-3.45,3.48-5.17,7.85-5.17,13.11s1.72,9.63,5.17,13.1Z"/>
    <path class="cls-1" d="m578.99,146.72h5v5.34h-5.68c-4.75,0-8.48-1.37-11.2-4.11-2.71-2.74-4.07-6.49-4.07-11.24v-25.19h-7.8v-1.19l12.64-12.98h.93v8.91h14.84v5.26h-14.84v25.02c0,2.15.39,3.99,1.19,5.51.79,1.53,1.95,2.69,3.48,3.48,1.53.79,3.36,1.19,5.51,1.19Z"/>
    <path class="cls-1" d="m639.47,153c-8.82,0-16.09-2.87-21.8-8.61-5.71-5.74-8.57-13.06-8.57-21.97s2.85-16.24,8.57-22.01c5.71-5.77,12.98-8.65,21.8-8.65,6.79,0,12.68,1.82,17.69,5.47,5,3.65,8.41,8.58,10.22,14.8h-6.11c-1.13-3-2.74-5.57-4.83-7.72-2.09-2.15-4.58-3.8-7.46-4.96-2.88-1.16-6.05-1.74-9.5-1.74-7.07,0-12.88,2.32-17.43,6.96-4.55,4.64-6.83,10.57-6.83,17.81s2.28,13.18,6.83,17.81c4.55,4.64,10.36,6.96,17.43,6.96,5.31,0,9.92-1.36,13.83-4.07,3.9-2.71,6.7-6.47,8.4-11.28h6.02c-1.81,6.5-5.25,11.66-10.31,15.48-5.06,3.82-11.04,5.72-17.94,5.72Z"/>
    <path class="cls-1" d="m713.85,146.21c-4.58,4.52-10.32,6.79-17.22,6.79s-12.65-2.26-17.26-6.79c-4.61-4.52-6.91-10.21-6.91-17.05s2.3-12.52,6.91-17.05c4.61-4.52,10.36-6.79,17.26-6.79,4.52,0,8.64,1.02,12.34,3.05,3.7,2.04,6.59,4.88,8.65,8.52,2.06,3.65,3.1,7.73,3.1,12.26,0,6.84-2.29,12.53-6.87,17.05Zm-30.28-3.94c3.45,3.48,7.8,5.22,13.06,5.22s9.61-1.74,13.06-5.22c3.45-3.48,5.17-7.84,5.17-13.1s-1.73-9.63-5.17-13.11c-3.45-3.48-7.8-5.22-13.06-5.22s-9.61,1.74-13.06,5.22c-3.45,3.48-5.17,7.85-5.17,13.11s1.72,9.63,5.17,13.1Z"/>
  </g>
  <g>
    <polygon class="cls-1" points="138.39 78.53 138.39 78.54 138.4 78.54 138.39 78.53"/>
    <polygon class="cls-1" points="203.4 136.43 203.4 136.43 203.4 136.43 203.4 136.43"/>
    <path class="cls-1" d="m146.63,97.33c-.68-7.26-3.66-13.64-8.23-18.79,0,0,0,0,0,0l7.59,29.03c.74-3.28.98-6.72.65-10.24Z"/>
    <path class="cls-1" d="m204.66,125.23c0-18.93-10.61-35.38-26.21-43.74l25.98,48.56c.15-1.59.23-3.19.23-4.82Z"/>
    <path class="cls-1" d="m148.13,115.76l1.99,7.61,21.78-44.79c-5.25-1.89-10.91-2.93-16.82-2.93-4.07,0-8.03.49-11.82,1.42,4.58,5.77,7.52,12.84,8.09,20.62.47,6.41-.73,12.56-3.23,18.06Z"/>
    <path class="cls-1" d="m124.17,136.85l14.41,10.24,8.63-17.75-2.13-8.14c-4.85,7.23-12.18,12.84-20.91,15.64Z"/>
    <polygon class="cls-1" points="148.58 136.43 203.4 136.43 203.4 136.43 174.49 83.12 148.58 136.43"/>
    <path class="cls-1" d="m114.68,134.18c12.92-1.13,23.58-8.82,28.74-19.35l-9.07-34.65c-17.03,7.85-28.85,25.07-28.85,45.05,0,2.97.26,5.89.76,8.72,2.73.39,5.55.48,8.41.23Z"/>
    <path class="cls-1" d="m142.16,149.63l30.78,21.87c13.79-5.33,24.59-16.64,29.24-30.75h-55.71l-4.31,8.88Z"/>
    <path class="cls-1" d="m118.63,138.21c-1.42.25-2.86.42-4.34.52-2.36.16-4.69.12-6.96-.11,3.36,12.01,11.13,22.17,21.45,28.65l7.89-16.24-18.04-12.82Z"/>
    <path class="cls-1" d="m132.55,169.41c6.76,3.46,14.42,5.41,22.54,5.41,4.41,0,8.68-.58,12.74-1.66l-27.58-19.59-7.7,15.84Z"/>
  </g>
</svg>