<svg width="48" height="48" viewBox="0 0 48 48" fill="none" xmlns="http://www.w3.org/2000/svg">
<path fill-rule="evenodd" clip-rule="evenodd" d="M30.601 12H17.401C14.4184 12 12.001 14.4174 12.001 17.4V30.6C12.001 33.5826 14.4184 36 17.401 36H30.601C33.5836 36 36.001 33.5826 36.001 30.6V17.4C36.001 14.4174 33.5836 12 30.601 12ZM31.915 21.7524C32.305 21.585 32.767 21.5622 33.157 21.6798C33.319 21.7302 33.463 21.7974 33.601 21.8808V22.6188C33.169 22.3224 32.671 22.2384 32.287 22.4454C31.879 22.6692 31.639 23.1384 31.651 23.6304C31.645 24.1728 31.825 24.6756 32.203 24.9102C32.539 25.1394 33.067 25.1394 33.601 25.0554V25.6704C33.391 25.7376 33.169 25.7766 32.941 25.7988C32.563 25.827 32.143 25.7706 31.771 25.5696C31.393 25.374 31.117 25.0332 30.961 24.6918C30.811 24.3396 30.757 23.982 30.751 23.6406C30.733 22.9146 31.123 22.0986 31.915 21.7524ZM30.001 20.406C30.001 20.0748 29.7322 19.806 29.401 19.806C29.0698 19.806 28.801 20.0748 28.801 20.406C28.801 20.7372 29.0698 21.006 29.401 21.006C29.7322 21.006 30.001 20.7372 30.001 20.406ZM29.851 21.606V25.806H28.951V21.606H29.851ZM26.419 25.059C26.053 25.0242 25.585 24.8616 25.201 24.705V25.3494C25.555 25.5696 25.933 25.686 26.323 25.7556C26.785 25.8192 27.259 25.86 27.793 25.6278C28.051 25.5234 28.3642 25.29 28.3642 24.6552C28.3642 23.9922 27.883 23.7018 27.643 23.5854C27.4408 23.4828 27.2513 23.4253 27.0747 23.3717C27.0417 23.3617 27.0091 23.3518 26.977 23.3418C26.9531 23.3341 26.9245 23.326 26.8928 23.3171C26.6607 23.2518 26.257 23.1381 26.257 22.7418C26.257 22.554 26.455 22.4496 26.605 22.4034C27.109 22.2354 27.703 22.3644 28.201 22.62V21.8766C27.643 21.6096 26.9704 21.513 26.353 21.708C25.8232 21.8748 25.4446 22.2324 25.3924 22.5978C25.2952 23.2812 25.795 23.682 26.041 23.7924C26.2698 23.9163 26.4779 23.9753 26.6701 24.0298L26.713 24.042C27.127 24.141 27.3898 24.2526 27.4852 24.4002C27.5374 24.4812 27.559 24.5424 27.559 24.6504C27.559 24.7584 27.535 24.8556 27.421 24.9252C27.187 25.053 26.785 25.0998 26.419 25.059ZM21.151 21.6072L22.051 21.606L22.0528 23.058C22.0612 23.532 22.06 24.0486 22.0546 24.4878C22.0336 24.7224 22.2958 24.996 22.6402 25.038C22.8238 25.0584 22.9606 25.0434 23.1718 24.954C23.2737 24.9138 23.3773 24.8784 23.4811 24.8429L23.551 24.819V21.606L24.451 21.6066V25.6974H23.551V25.5558C23.5395 25.562 23.5282 25.5684 23.517 25.5748C23.5043 25.5821 23.4917 25.5893 23.479 25.596C23.2504 25.7328 22.8838 25.8276 22.5706 25.8018C22.2454 25.7808 21.9178 25.6668 21.6508 25.4502C21.3856 25.2366 21.1852 24.9012 21.1594 24.5328C21.1432 24.0048 21.1474 23.5524 21.1528 23.0586L21.151 21.6072ZM15.451 21.606H14.551V25.8036H15.451V22.7196L15.6429 22.6734C15.8744 22.6179 16.1061 22.5623 16.336 22.5012C16.636 22.4196 16.9222 22.6422 16.9474 22.8978L16.951 25.8042H17.851L17.8528 24.3042L17.8564 23.5542L17.8528 23.1792L17.8504 22.989C17.845 22.9014 17.8342 22.815 17.8138 22.7292L18.0076 22.6826C18.2509 22.6242 18.4942 22.5658 18.736 22.5018C19.036 22.4202 19.3222 22.6434 19.3474 22.8984L19.351 25.8048H20.251L20.2528 24.3048L20.2564 23.5548L20.2528 23.1798L20.2504 22.9896C20.245 22.8966 20.2348 22.8042 20.2114 22.713C20.1232 22.3476 19.8748 22.0338 19.5556 21.8622C19.2394 21.6864 18.8368 21.6636 18.5158 21.7776C18.2017 21.8853 17.8902 22.0006 17.5784 22.1161L17.5024 22.1442C17.4016 22.032 17.287 21.933 17.1562 21.8628C16.84 21.687 16.4374 21.6642 16.1164 21.7782C15.9655 21.8297 15.8159 21.8848 15.6663 21.9399C15.5946 21.9663 15.5229 21.9928 15.451 22.0188V21.606ZM32.2618 29.3592C30.9334 30.3012 29.449 30.9222 27.8908 31.3254C26.3338 31.7232 24.7126 31.8738 23.0992 31.7628C21.4864 31.6548 19.9114 31.2612 18.427 30.6864C16.9474 30.0924 15.5488 29.3286 14.3128 28.3278C14.2486 28.2756 14.2384 28.1808 14.2906 28.1166C14.3368 28.0596 14.416 28.0452 14.4784 28.0788L14.4868 28.0836C15.8362 28.8138 17.2786 29.373 18.727 29.817C20.1868 30.2322 21.6724 30.5292 23.167 30.5898C24.658 30.642 26.1652 30.5256 27.6364 30.2196C29.1016 29.9172 30.5794 29.478 31.9384 28.8522L31.9618 28.8414C32.1124 28.7724 32.29 28.8378 32.3596 28.9884C32.422 29.1222 32.3776 29.2776 32.2618 29.3592ZM32.68 31.0092C32.5966 31.2192 32.7634 31.2612 32.9302 31.1352C34.0552 30.1686 34.3468 28.194 34.1392 27.9426C34.0144 27.7326 33.4306 27.6066 32.764 27.6066C32.0968 27.6066 31.3048 27.7746 30.7216 28.1946C30.5548 28.3206 30.5548 28.4886 30.763 28.4886C30.7921 28.4849 30.8228 28.481 30.8549 28.4769C31.5583 28.3874 32.9429 28.2111 33.2218 28.5726C33.4659 28.9004 32.9562 30.2681 32.6988 30.9586C32.6924 30.9759 32.6861 30.9928 32.68 31.0092Z" fill="#026670"/>
</svg>
