<svg width="48" height="48" viewBox="0 0 48 48" fill="none" xmlns="http://www.w3.org/2000/svg">
<path fill-rule="evenodd" clip-rule="evenodd" d="M12.001 24C12.001 17.3828 17.3843 12 24.001 12C30.6177 12 36.001 17.3828 36.001 24C36.001 30.6172 30.6177 36 24.001 36C17.3843 36 12.001 30.6172 12.001 24ZM26.5398 29.2174C28.0189 29.2174 29.2184 28.0179 29.2184 26.5388V17.7391C29.2184 17.4146 28.9257 17.1689 28.6058 17.2252L21.4601 18.5786C21.1189 18.6386 20.8705 18.935 20.8705 19.2814V26.2033C20.8705 26.4417 20.7088 26.6499 20.4777 26.7089L18.6792 27.167L18.5279 27.2035C17.8445 27.407 17.3279 27.9965 17.234 28.7217C17.2116 28.8908 17.2132 29.0598 17.2392 29.2294C17.3817 30.1492 18.2514 30.7826 19.1827 30.7826H19.2354C20.7145 30.7826 21.914 29.5831 21.914 28.1035V22.6064C21.914 22.2537 22.1671 21.9522 22.514 21.8911L27.5624 20.9082C27.8822 20.8518 28.1749 21.0976 28.1749 21.4221V24.6381C28.1749 24.8765 28.0132 25.0847 27.782 25.1437L25.9836 25.6017L25.8323 25.6383C25.1488 25.8417 24.6323 26.4313 24.5384 27.1565C24.5159 27.3256 24.5175 27.4946 24.5436 27.6642C24.686 28.584 25.5558 29.2174 26.4871 29.2174H26.5398Z" fill="#026670"/>
</svg>
