<svg width="48" height="48" viewBox="0 0 48 48" fill="none" xmlns="http://www.w3.org/2000/svg">
<path fill-rule="evenodd" clip-rule="evenodd" d="M32.3253 17.4753C32.9115 16.8892 32.9331 15.962 32.3758 15.4047C31.8176 14.8465 30.8905 14.8682 30.3043 15.4544L15.4554 30.3033C14.8693 30.8894 14.8476 31.8166 15.4058 32.3748C15.9631 32.9321 16.8903 32.9104 17.4764 32.3243L32.3253 17.4753Z" fill="#026670"/>
<path fill-rule="evenodd" clip-rule="evenodd" d="M15.4545 17.4753C14.8683 16.8892 14.8467 15.962 15.4039 15.4047C15.9622 14.8465 16.8893 14.8682 17.4755 15.4544L32.3244 30.3033C32.9105 30.8894 32.9322 31.8166 32.374 32.3748C31.8167 32.9321 30.8895 32.9104 30.3034 32.3243L15.4545 17.4753Z" fill="#026670"/>
</svg>
