<svg width="48" height="48" viewBox="0 0 48 48" fill="none" xmlns="http://www.w3.org/2000/svg">
<path fill-rule="evenodd" clip-rule="evenodd" d="M34.4989 31.1431C35.3279 31.1431 35.9988 31.7821 35.9988 32.5715C35.9988 33.3596 35.3279 33.9999 34.4989 33.9999H13.4994C12.6705 33.9999 11.9995 33.3596 11.9995 32.5715C11.9995 31.7821 12.6705 31.1431 13.4994 31.1431H34.4989ZM34.4989 22.5713C35.3279 22.5713 35.9988 23.2103 35.9988 23.9997C35.9988 24.7891 35.3279 25.4281 34.4989 25.4281H22.4986C21.6711 25.4281 20.9987 24.7891 20.9987 23.9997C20.9987 23.2103 21.6711 22.5713 22.4986 22.5713H34.4989ZM34.4989 13.9995C35.3279 13.9995 35.9988 14.6398 35.9988 15.4279C35.9988 16.2174 35.3279 16.8576 34.4989 16.8576H13.4994C12.6705 16.8576 11.9995 16.2174 11.9995 15.4279C11.9995 14.6398 12.6705 13.9995 13.4994 13.9995H34.4989Z" fill="#026670"/>
</svg>
