<svg width="48" height="48" viewBox="0 0 48 48" fill="none" xmlns="http://www.w3.org/2000/svg">
<path fill-rule="evenodd" clip-rule="evenodd" d="M12.001 24.0001C12.001 17.3727 17.3737 12 24.0009 12C30.629 12 36.001 17.3731 36.001 24.0001C36.001 30.6278 30.6289 36 24.0009 36C17.3737 36 12.001 30.6278 12.001 24.0001ZM28.4751 29.5555C28.8276 29.7718 29.2891 29.6601 29.504 29.3075C29.7204 28.955 29.6086 28.495 29.2561 28.2787C26.093 26.3456 22.172 25.8955 17.6009 26.9403C17.1974 27.032 16.9462 27.4332 17.0384 27.8359C17.1301 28.2385 17.5313 28.4907 17.9338 28.399C22.1108 27.4447 25.6577 27.8344 28.4751 29.5555ZM30.9728 26.0396C30.7019 26.4803 30.1259 26.6193 29.686 26.3484C26.4604 24.3653 21.5435 23.7911 17.7283 24.9493C17.2335 25.0987 16.7109 24.8199 16.5608 24.3259C16.4117 23.8311 16.6907 23.3095 17.1847 23.1591C21.5427 21.8367 26.9605 22.4772 30.6647 24.7535C31.1046 25.0244 31.2436 25.6003 30.9728 26.0396ZM17.1579 21.2495C20.8504 20.1287 27.2313 20.34 31.0989 22.6372C31.6305 22.9539 32.3217 22.778 32.637 22.2447C32.9537 21.712 32.7789 21.0232 32.2444 20.7067C27.7916 18.0632 20.7451 17.8146 16.5063 19.1014C15.9129 19.2817 15.5785 19.9083 15.7582 20.5016C15.9379 21.0946 16.5649 21.4293 17.1579 21.2495Z" fill="#026670"/>
</svg>
