<svg width="101" height="50" viewBox="0 0 101 50" fill="none" xmlns="http://www.w3.org/2000/svg">
<path d="M28.3758 27.244C27.7919 28.5389 27.5118 29.1167 26.7598 30.2606C25.7107 31.859 24.2314 33.8469 22.3984 33.8648C20.769 33.8797 20.3503 32.8056 18.1397 32.8168C15.9296 32.8285 15.4682 33.8834 13.8398 33.8686C12.0068 33.8519 10.605 32.0558 9.55498 30.4588C6.62076 25.9919 6.31374 20.7498 8.12291 17.9635C9.40888 15.984 11.4383 14.8252 13.3468 14.8252C15.2899 14.8252 16.5111 15.8901 18.1167 15.8901C19.675 15.8901 20.624 14.8235 22.8705 14.8235C24.5677 14.8235 26.3665 15.7489 27.6489 17.3446C23.4498 19.6455 24.1326 25.6402 28.3758 27.244Z" fill="black"/>
<path d="M21.1674 13.0372C21.9832 11.9899 22.603 10.5116 22.3782 9C21.0446 9.09214 19.4849 9.94044 18.5752 11.0457C17.749 12.049 17.0671 13.5371 17.3319 14.984C18.7877 15.0285 20.2936 14.1591 21.1674 13.0372Z" fill="black"/>
<path d="M35.8246 20.1445C35.8246 21.052 35.1346 21.7838 34.0545 21.7838C33.0185 21.7838 32.3285 21.0507 32.3501 20.1445C32.3285 19.1961 33.0186 18.4842 34.0763 18.4842C35.1339 18.4842 35.8035 19.1961 35.8246 20.1445ZM32.4375 33.6308V23.0789H35.7173V33.6308H32.4375ZM41.2616 21.8494H37.3565V19.0877H48.5328V21.8494H44.563V33.6308H41.2607L41.2616 21.8494ZM58.9536 30.2436C58.9536 31.624 58.9972 32.7459 59.039 33.6314H56.1911L56.0401 32.1427H55.9745C55.5646 32.7895 54.5716 33.8695 52.6725 33.8695C50.5361 33.8695 48.9612 32.5305 48.9612 29.2727V23.0811H52.2628V28.7558C52.2628 30.2876 52.759 31.2148 53.9025 31.2148C54.8095 31.2148 55.3268 30.5896 55.5421 30.0718C55.6275 29.8776 55.6486 29.6187 55.6486 29.3598V23.0811H58.951V30.2441L58.9536 30.2436ZM61.5849 26.4445C61.5849 25.1275 61.5418 24.0057 61.4991 23.0793H64.347L64.498 24.5252H64.5636C64.9947 23.8568 66.0726 22.8423 67.8215 22.8423C69.9795 22.8423 71.5962 24.2663 71.5962 27.3731V33.6308H68.3173V27.7831C68.3173 26.4248 67.8423 25.4962 66.6565 25.4962C65.7495 25.4962 65.2104 26.1227 64.9955 26.7246C64.9097 26.9403 64.8667 27.2425 64.8667 27.5445V33.629H61.5867V26.445L61.5849 26.4445ZM76.7528 29.4017C76.8606 30.7609 78.1988 31.4086 79.7306 31.4086C80.8525 31.4086 81.7591 31.2576 82.6428 30.9775L83.0747 33.1988C81.9964 33.6308 80.6799 33.8673 79.255 33.8673C75.6726 33.8673 73.6239 31.775 73.6239 28.4727C73.6239 25.7969 75.2852 22.8423 78.953 22.8423C82.3628 22.8423 83.6568 25.4949 83.6568 28.1073C83.6568 28.6682 83.5917 29.1648 83.5499 29.4013L76.7528 29.4017ZM80.6151 27.1565C80.6151 26.3591 80.269 25.0206 78.7592 25.0206C77.3784 25.0206 76.8176 26.2715 76.7304 27.1565H80.6151ZM85.5982 30.7609C86.2037 31.1263 87.454 31.5583 88.4248 31.5583C89.4177 31.5583 89.8277 31.2123 89.8277 30.6733C89.8277 30.1344 89.5036 29.8755 88.2738 29.4651C86.0943 28.732 85.2529 27.5453 85.2749 26.315C85.2749 24.3301 86.9579 22.8405 89.5694 22.8405C90.7987 22.8405 91.9009 23.1215 92.5472 23.4456L91.9641 25.7115C91.4885 25.4526 90.5838 25.1064 89.6772 25.1064C88.8798 25.1064 88.4259 25.4304 88.4259 25.9694C88.4259 26.466 88.8359 26.7254 90.1304 27.178C92.1373 27.868 92.9786 28.8829 93.0002 30.4359C93.0002 32.3997 91.4469 33.8669 88.4259 33.8669C87.046 33.8669 85.8138 33.5423 85.0164 33.1104L85.5982 30.7609Z" fill="black"/>
</svg>
