<svg width="101" height="50" viewBox="0 0 101 50" fill="none" xmlns="http://www.w3.org/2000/svg">
<path d="M34.428 19.0895C34.1193 17.9362 33.2129 17.0299 32.0597 16.7212C29.9715 16.1611 21.5941 16.1611 21.5941 16.1611C21.5941 16.1611 13.2169 16.1611 11.1286 16.7212C9.97533 17.0299 9.06902 17.9362 8.7603 19.0895C8.2002 21.1777 8.2002 25.5373 8.2002 25.5373C8.2002 25.5373 8.2002 29.8969 8.7603 31.9851C9.06902 33.1384 9.97533 34.0447 11.1286 34.3534C13.2169 34.9135 21.5941 34.9135 21.5941 34.9135C21.5941 34.9135 29.9715 34.9135 32.0597 34.3534C33.2129 34.0447 34.1193 33.1384 34.428 31.9851C34.9881 29.8969 34.9881 25.5373 34.9881 25.5373C34.9881 25.5373 34.9859 21.1777 34.428 19.0895Z" fill="#FF0000"/>
<path d="M18.9121 29.5552L25.8715 25.5375L18.9121 21.5197V29.5552Z" fill="white"/>
<path d="M40.644 28.3533L37.6362 17.4909H40.2604L41.3144 22.4149C41.5834 23.6277 41.7797 24.6619 41.9076 25.5175H41.9847C42.073 24.9045 42.2715 23.8769 42.578 22.4326L43.6695 17.4909H46.2936L43.2483 28.3533V33.5641H40.6419V28.3533H40.644Z" fill="#282828"/>
<path d="M47.0828 33.2197C46.5536 32.8625 46.1765 32.3067 45.9516 31.5526C45.7289 30.7985 45.6164 29.7974 45.6164 28.5448V26.8402C45.6164 25.5767 45.7443 24.5601 46.0001 23.795C46.2559 23.0298 46.655 22.4697 47.1975 22.1191C47.74 21.7685 48.4522 21.592 49.3343 21.592C50.2031 21.592 50.8977 21.7707 51.4225 22.1279C51.9451 22.4851 52.3288 23.0452 52.5713 23.8038C52.8139 24.5646 52.9352 25.5767 52.9352 26.8402V28.5448C52.9352 29.7974 52.8162 30.8029 52.5803 31.5614C52.3443 32.3222 51.9606 32.8779 51.4313 33.2285C50.9021 33.5792 50.1832 33.7555 49.2769 33.7555C48.3419 33.7577 47.6121 33.5769 47.0828 33.2197ZM50.0509 31.3806C50.1964 30.997 50.2715 30.3729 50.2715 29.5041V25.8458C50.2715 25.0034 50.1987 24.3859 50.0509 23.9978C49.9032 23.6075 49.6452 23.4135 49.2747 23.4135C48.9175 23.4135 48.6639 23.6075 48.5184 23.9978C48.3706 24.3882 48.2979 25.0034 48.2979 25.8458V29.5041C48.2979 30.3729 48.3684 30.9991 48.5096 31.3806C48.6507 31.7643 48.9042 31.9562 49.2747 31.9562C49.6452 31.9562 49.9032 31.7643 50.0509 31.3806Z" fill="#282828"/>
<path d="M61.4711 33.5663H59.4027L59.1733 32.1285H59.116C58.5537 33.2135 57.7113 33.7559 56.5867 33.7559C55.8083 33.7559 55.2328 33.5001 54.8623 32.9908C54.4919 32.4791 54.3066 31.6809 54.3066 30.596V21.8218H56.9506V30.4416C56.9506 30.9665 57.0079 31.3391 57.1226 31.5618C57.2372 31.7845 57.4291 31.897 57.6981 31.897C57.9274 31.897 58.148 31.8264 58.3597 31.6853C58.5714 31.5441 58.7257 31.3655 58.8293 31.1495V21.8195H61.4711V33.5663Z" fill="#282828"/>
<path d="M68.6536 19.6184H66.0294V33.5658H63.4428V19.6184H60.8187V17.4927H68.6536V19.6184Z" fill="#282828"/>
<path d="M75.0305 33.5663H72.9621L72.7328 32.1285H72.6755C72.1132 33.2135 71.2709 33.7559 70.1462 33.7559C69.3678 33.7559 68.7923 33.5001 68.4218 32.9908C68.0513 32.4791 67.8661 31.6809 67.8661 30.596V21.8218H70.5101V30.4416C70.5101 30.9665 70.5674 31.3391 70.682 31.5618C70.7967 31.7845 70.9885 31.897 71.2576 31.897C71.4869 31.897 71.7074 31.8264 71.9191 31.6853C72.1308 31.5441 72.2852 31.3655 72.3888 31.1495V21.8195H75.0305V33.5663Z" fill="#282828"/>
<path d="M83.7805 23.6981C83.6195 22.9572 83.3615 22.4214 83.0044 22.0884C82.6471 21.7554 82.1554 21.59 81.5291 21.59C81.044 21.59 80.5897 21.7268 80.1685 22.0024C79.7474 22.278 79.421 22.6375 79.1916 23.0851H79.1718V16.8975H76.6249V33.5639H78.808L79.077 32.4525H79.1343C79.3394 32.8494 79.6459 33.1603 80.0539 33.3919C80.4618 33.6213 80.9161 33.7359 81.4145 33.7359C82.3075 33.7359 82.9669 33.3236 83.388 32.501C83.8092 31.6763 84.0209 30.3907 84.0209 28.6399V26.7809C84.0209 25.4689 83.9393 24.4391 83.7805 23.6981ZM81.3571 28.4899C81.3571 29.3454 81.3218 30.0158 81.2512 30.501C81.1807 30.9861 81.0638 31.3324 80.8962 31.5352C80.7308 31.7402 80.5059 31.8417 80.2258 31.8417C80.0075 31.8417 79.8069 31.7909 79.6216 31.6873C79.4364 31.5859 79.2865 31.4316 79.1718 31.2286V24.5626C79.26 24.2428 79.4144 23.9826 79.6327 23.7775C79.8488 23.5725 80.087 23.471 80.3405 23.471C80.6096 23.471 80.8168 23.5769 80.9624 23.7864C81.1101 23.998 81.2115 24.3509 81.2689 24.8492C81.3262 25.3476 81.3549 26.0554 81.3549 26.9749V28.4899H81.3571Z" fill="#282828"/>
<path d="M87.7721 29.1668C87.7721 29.9209 87.7942 30.4855 87.8383 30.8626C87.8824 31.2396 87.975 31.5131 88.1161 31.6873C88.2572 31.8593 88.4734 31.9453 88.7667 31.9453C89.1614 31.9453 89.4348 31.7909 89.5803 31.4844C89.7281 31.1779 89.8075 30.6663 89.8207 29.9519L92.1008 30.0863C92.1141 30.1878 92.1206 30.3289 92.1206 30.5075C92.1206 31.5924 91.8229 32.4039 91.2298 32.9398C90.6366 33.4756 89.7964 33.7447 88.7115 33.7447C87.4083 33.7447 86.4954 33.3367 85.9727 32.5186C85.4479 31.7005 85.1878 30.437 85.1878 28.7258V26.675C85.1878 24.9131 85.459 23.6253 86.0014 22.8138C86.5439 22.0024 87.4723 21.5966 88.7887 21.5966C89.695 21.5966 90.3918 21.762 90.877 22.095C91.3621 22.4279 91.7038 22.9439 91.9023 23.6474C92.1008 24.3508 92.2 25.3211 92.2 26.5603V28.5714H87.7721V29.1668ZM88.1073 23.6319C87.9728 23.7973 87.8846 24.0686 87.8383 24.4456C87.7942 24.8227 87.7721 25.3938 87.7721 26.1613V27.0036H89.7061V26.1613C89.7061 25.4071 89.6796 24.8359 89.6289 24.4456C89.5782 24.0553 89.4855 23.7819 89.351 23.6209C89.2165 23.4622 89.0092 23.3806 88.7291 23.3806C88.4469 23.3828 88.2396 23.4666 88.1073 23.6319Z" fill="#282828"/>
</svg>
