<svg width="101" height="50" viewBox="0 0 101 50" fill="none" xmlns="http://www.w3.org/2000/svg">
<path d="M15.9353 12.0107C8.53864 11.7177 2.30426 17.4646 2.01074 24.8465C1.71722 32.2293 7.47554 38.4507 14.8722 38.7437C22.2691 39.0367 28.503 33.2901 28.7966 25.9075C29.0903 18.5255 23.3321 12.3037 15.9353 12.0107ZM21.5933 31.6075C21.4262 31.9005 21.1014 32.0477 20.7861 32.0035C20.6888 31.9898 20.5924 31.958 20.5019 31.9066C18.7304 30.9001 16.7996 30.245 14.7633 29.9593C12.7272 29.6737 10.6903 29.7723 8.70944 30.2525C8.27992 30.3565 7.84719 30.0936 7.74289 29.6648C7.63859 29.2362 7.90225 28.8043 8.33168 28.7002C10.51 28.1722 12.7489 28.0637 14.9861 28.3775C17.2235 28.6913 19.3456 29.4115 21.2936 30.5182C21.6777 30.7365 21.8119 31.2242 21.5933 31.6075ZM23.3548 28.0958C23.0814 28.6002 22.45 28.7881 21.9449 28.5151C19.8715 27.3958 17.6272 26.661 15.2743 26.331C12.9214 26.001 10.5611 26.09 8.25898 26.5955C8.13441 26.6228 8.01005 26.6267 7.89072 26.61C7.47263 26.5513 7.11542 26.2402 7.01935 25.8046C6.89595 25.2446 7.25065 24.6906 7.81181 24.5674C10.3568 24.0085 12.965 23.9101 15.5639 24.2746C18.1629 24.6391 20.6429 25.4513 22.9347 26.6886C23.4401 26.9614 23.6282 27.5914 23.3548 28.0958ZM25.3073 24.1372C25.0501 24.6308 24.5152 24.8867 23.993 24.8134C23.8528 24.7937 23.7134 24.7503 23.5806 24.6815C21.1668 23.4288 18.5668 22.6006 15.8532 22.22C13.1396 21.8393 10.4117 21.9203 7.74541 22.4604C7.05222 22.6007 6.37647 22.1539 6.23582 21.4621C6.09526 20.7705 6.54291 20.096 7.23601 19.9555C10.1881 19.3575 13.2073 19.2679 16.2096 19.689C19.212 20.1102 22.0895 21.0269 24.762 22.4139C25.3894 22.7395 25.6335 23.5111 25.3073 24.1372ZM40.5113 24.0978L39.5829 23.8219C37.7161 23.2698 37.1926 23.0628 37.1926 22.3136C37.1926 21.6039 37.9827 20.835 39.7211 20.835C41.4398 20.835 42.8918 21.6729 43.6425 22.2938C43.7708 22.4023 43.9091 22.353 43.9091 22.1855V19.7309C43.9091 19.6224 43.8795 19.5632 43.8005 19.5041C42.872 18.8141 41.262 18.3113 39.6421 18.3113C36.3431 18.3113 34.3677 20.1843 34.3677 22.3136C34.3677 24.7189 35.8986 25.5568 38.4173 26.2666L39.5039 26.5721C41.3904 27.1045 41.7361 27.5777 41.7361 28.3071C41.7361 29.5295 40.8076 29.9041 39.4248 29.9041C37.6864 29.9041 35.5628 28.8887 34.5652 27.6467C34.4763 27.5382 34.3677 27.5876 34.3677 27.7157V30.4167C34.3677 30.5251 34.3776 30.5745 34.4566 30.6632C35.2862 31.5701 37.2716 32.3686 39.5829 32.3686C42.4276 32.3686 44.561 30.7124 44.561 28.1494C44.561 26.1581 43.3856 24.9555 40.5113 24.0978ZM51.801 22.1361C49.9243 22.1361 48.8379 23.2797 48.2057 24.4232V22.4516C48.2057 22.3629 48.1563 22.3136 48.0674 22.3136H45.5883C45.4994 22.3136 45.4499 22.3629 45.4499 22.4516V35.0992C45.4499 35.1879 45.4994 35.2372 45.5883 35.2372H48.0674C48.1563 35.2372 48.2057 35.1879 48.2057 35.0992V30.0421C48.8379 31.1856 49.9047 32.3094 51.8208 32.3094C54.3494 32.3094 56.1669 30.1308 56.1669 27.2031C56.1669 24.2753 54.3296 22.1361 51.801 22.1361ZM51.0701 29.9238C49.7466 29.9238 48.6008 28.6225 48.1464 27.1833C48.6008 25.6652 49.6478 24.5021 51.0701 24.5021C52.4234 24.5021 53.3617 25.5273 53.3617 27.2031C53.3617 28.8788 52.4234 29.9238 51.0701 29.9238ZM96.456 22.3136H93.9279C93.8387 22.3136 93.799 22.3333 93.7602 22.422L91.2117 28.5338L88.6536 22.422C88.6138 22.3333 88.5741 22.3136 88.4849 22.3136H84.3961V21.663C84.3961 20.5983 85.1173 20.1054 86.046 20.1054C86.5985 20.1054 87.2015 20.3913 87.626 20.6477C87.7249 20.7068 87.7937 20.6378 87.754 20.5491L86.8651 18.4296C86.836 18.3607 86.7963 18.3212 86.7274 18.2817C86.2922 18.055 85.5817 17.8578 84.8895 17.8578C82.7957 17.8578 81.5908 19.4549 81.5908 21.4855V22.3136H79.9118C79.8227 22.3136 79.7732 22.3629 79.7732 22.4516V24.4232C79.7732 24.5119 79.8227 24.5612 79.9118 24.5612H81.5908V31.994C81.5908 32.0827 81.6402 32.1319 81.7294 32.1319H84.2575C84.3467 32.1319 84.3961 32.0827 84.3961 31.994V24.5612H86.5588L89.7005 31.3729L88.0109 35.0795C87.9614 35.1879 88.0206 35.2372 88.1195 35.2372H90.8162C90.9054 35.2372 90.9452 35.2174 90.9839 35.1287L96.5646 22.4713C96.6043 22.3826 96.5549 22.3136 96.456 22.3136ZM62.3305 22.077C59.13 22.077 56.9273 24.3345 56.9273 27.2228C56.9273 30.0914 59.13 32.3686 62.3305 32.3686C65.5206 32.3686 67.7434 30.0914 67.7434 27.2228C67.7434 24.3345 65.5206 22.077 62.3305 22.077ZM62.3402 29.9534C60.8091 29.9534 59.7227 28.7901 59.7227 27.2228C59.7227 25.6554 60.8091 24.4922 62.3402 24.4922C63.8611 24.4922 64.9478 25.6554 64.9478 27.2228C64.9478 28.7901 63.8611 29.9534 62.3402 29.9534ZM99.8042 22.8928C99.6743 22.6691 99.4949 22.4939 99.2642 22.3673C99.0345 22.2408 98.7767 22.1775 98.4907 22.1775C98.2047 22.1775 97.9469 22.2408 97.7162 22.3673C97.4864 22.4939 97.3061 22.6691 97.1762 22.8928C97.0463 23.1166 96.9814 23.3697 96.9814 23.6521C96.9814 23.9309 97.0463 24.1822 97.1762 24.4059C97.3061 24.6296 97.4864 24.8048 97.7162 24.9314C97.9469 25.0579 98.2047 25.1211 98.4907 25.1211C98.7767 25.1211 99.0345 25.0579 99.2642 24.9314C99.4949 24.8048 99.6743 24.6296 99.8042 24.4059C99.9341 24.1822 100 23.9309 100 23.6521C100 23.3697 99.9341 23.1166 99.8042 22.8928ZM99.5677 24.2821C99.462 24.4674 99.3156 24.6123 99.1285 24.7168C98.9405 24.8213 98.7282 24.8735 98.4907 24.8735C98.2493 24.8735 98.0351 24.8213 97.847 24.7168C97.6599 24.6123 97.5145 24.4674 97.4098 24.2821C97.3061 24.0969 97.2547 23.8869 97.2547 23.6521C97.2547 23.4174 97.3061 23.2083 97.4098 23.0248C97.5145 22.8414 97.6599 22.6975 97.847 22.5929C98.0351 22.4884 98.2493 22.4361 98.4907 22.4361C98.7282 22.4361 98.9405 22.4884 99.1285 22.5929C99.3156 22.6975 99.462 22.8424 99.5677 23.0277C99.6733 23.2129 99.7266 23.423 99.7266 23.6576C99.7266 23.8887 99.6733 24.0969 99.5677 24.2821ZM77.4128 17.8382C76.4648 17.8382 75.7736 18.5085 75.7736 19.3956C75.7736 20.2829 76.4648 20.9532 77.4128 20.9532C78.3812 20.9532 79.0724 20.2829 79.0724 19.3956C79.0724 18.5085 78.3812 17.8382 77.4128 17.8382ZM99.0025 23.6246C99.1033 23.5513 99.1528 23.454 99.1528 23.3329C99.1528 23.2083 99.1043 23.1093 99.0054 23.0359C98.9075 22.9625 98.765 22.9259 98.5799 22.9259H97.9226V24.2958H98.2396V23.7512H98.4131L98.83 24.2958H99.2197L98.7631 23.7183C98.86 23.6995 98.9414 23.6694 99.0025 23.6246ZM98.5295 23.5035H98.2396V23.1679H98.5411C98.6293 23.1679 98.6981 23.1817 98.7466 23.2092C98.7951 23.2368 98.8193 23.2799 98.8193 23.3385C98.8193 23.3935 98.7941 23.4347 98.7437 23.4622C98.6943 23.4898 98.6225 23.5035 98.5295 23.5035ZM78.6866 22.3136H76.1585C76.0693 22.3136 76.0198 22.3629 76.0198 22.4516V31.994C76.0198 32.0827 76.0693 32.1319 76.1585 32.1319H78.6866C78.7757 32.1319 78.8252 32.0827 78.8252 31.994V22.4516C78.8252 22.3629 78.7757 22.3136 78.6866 22.3136ZM74.9632 29.6774C74.6773 29.8351 74.3012 29.9633 73.7884 29.9633C72.978 29.9633 72.4642 29.49 72.4642 28.4452V24.5612H74.9332C75.0224 24.5612 75.0718 24.5119 75.0718 24.4232V22.4516C75.0718 22.3629 75.0224 22.3136 74.9332 22.3136H72.4642V19.7407C72.4642 19.6323 72.3954 19.5731 72.2965 19.6519L67.881 23.1219C67.8219 23.1712 67.8025 23.2205 67.8025 23.2994V24.4232C67.8025 24.5119 67.852 24.5612 67.9402 24.5612H69.6589V28.8592C69.6589 31.1856 71.0024 32.27 72.9188 32.27C73.7486 32.27 74.5483 32.0531 75.0224 31.7771C75.0922 31.7377 75.1019 31.6982 75.1019 31.6292V29.7562C75.1019 29.6576 75.0524 29.6281 74.9632 29.6774Z" fill="#1ED760"/>
</svg>
