<svg width="271" height="34" viewBox="0 0 271 34" fill="none" xmlns="http://www.w3.org/2000/svg">
<g clip-path="url(#clip0_21_1750)">
<path d="M60.2482 17.0135C60.1789 19.53 59.355 21.5889 57.7611 23.1903C56.1672 24.7917 54.1497 25.5924 51.6857 25.5924C49.2217 25.5924 47.0811 24.7612 45.4486 23.1064C43.8162 21.4516 43 19.347 43 16.8C43 14.253 43.8162 12.1941 45.4563 10.5317C47.0965 8.86932 49.1524 8.03813 51.6318 8.03813C52.6482 8.03813 53.6261 8.19064 54.5579 8.48804C55.4896 8.78544 56.3212 9.21248 57.0527 9.7539C57.7842 10.2953 58.4002 10.9435 58.9084 11.6984C59.4166 12.4534 59.7708 13.2769 59.9633 14.1692H58.1692C57.8073 12.8347 57.0296 11.7594 55.8207 10.9435C54.6195 10.1276 53.2334 9.71577 51.678 9.71577C49.6606 9.71577 48.0051 10.3792 46.696 11.7137C45.3947 13.0482 44.7402 14.7411 44.7402 16.8C44.7402 18.8589 45.387 20.6052 46.6729 21.9244C47.9589 23.2513 49.6298 23.9071 51.678 23.9071C53.4182 23.9071 54.8967 23.4267 56.1133 22.4582C57.3376 21.4898 58.0845 20.2163 58.3617 18.6225H50.985V17.0135H60.2482Z" fill="#333B40"/>
<path d="M68.88 12.1179H70.0351V13.6735H68.7337C67.4709 13.6735 66.4776 14.07 65.7615 14.8631C65.0377 15.6562 64.6758 16.7314 64.6758 18.0811V25.3102H63.0049V12.1712H64.2061L64.4756 14.436C65.4458 12.8957 66.9088 12.1255 68.88 12.1255V12.1179Z" fill="#333B40"/>
<path fill-rule="evenodd" clip-rule="evenodd" d="M84.1185 12.1712H82.7864L82.5631 14.5352C81.9394 13.704 81.154 13.0634 80.2146 12.5983C79.2752 12.1331 78.2203 11.9043 77.0575 11.9043C75.1094 11.9043 73.477 12.5525 72.1757 13.8489C70.8744 15.1452 70.2199 16.8 70.2199 18.7445C70.2199 20.6891 70.8744 22.321 72.1757 23.625C73.477 24.9289 75.1094 25.5847 77.0575 25.5847C78.2049 25.5847 79.2521 25.356 80.2069 24.8908C81.154 24.4256 81.9317 23.7851 82.54 22.9539L82.7402 25.3179H84.1185V12.1712ZM80.9538 22.5116C79.9682 23.5106 78.7131 24.0062 77.1884 24.0062V24.0139C76.2028 24.0139 75.3096 23.7851 74.5088 23.3199C73.708 22.8624 73.0843 22.2295 72.63 21.4364C72.1757 20.6357 71.9524 19.7435 71.9524 18.7674C71.9524 17.7913 72.1757 16.8915 72.63 16.0908C73.0766 15.2901 73.708 14.6572 74.5088 14.192C75.3096 13.7269 76.2028 13.4981 77.1884 13.4981C78.7131 13.4981 79.9682 13.9938 80.9538 14.9927C81.9394 15.9917 82.4322 17.2423 82.4322 18.7522C82.4322 20.262 81.9394 21.5127 80.9538 22.5116Z" fill="#333B40"/>
<path d="M99.588 12.1712L93.12 26.0499C92.4346 27.5445 91.7262 28.574 91.0024 29.1459C90.2786 29.7179 89.3238 30 88.1226 30H86.9445V28.4901H87.9763C88.8772 28.4901 89.5625 28.3071 90.0399 27.9411C90.5173 27.575 91.0332 26.8277 91.5876 25.6915L92.1497 24.4714L86.1514 12.1712H87.9686L93.0353 22.6412L97.7785 12.1712H99.588Z" fill="#333B40"/>
<path fill-rule="evenodd" clip-rule="evenodd" d="M118.938 10.6842C117.298 9.07522 115.212 8.27452 112.671 8.27452H107.126V25.3255H112.663C115.188 25.3255 117.275 24.5248 118.923 22.9158C120.571 21.3068 121.395 19.2707 121.395 16.8C121.395 14.3293 120.579 12.2932 118.938 10.6842ZM117.676 21.7567C116.359 23.0607 114.673 23.7165 112.624 23.7165V23.7088H108.89V9.89116H112.624C114.673 9.89116 116.359 10.5393 117.676 11.8357C118.992 13.1321 119.655 14.7945 119.655 16.7924C119.655 18.7903 118.992 20.4527 117.676 21.7567Z" fill="#333B40"/>
<path fill-rule="evenodd" clip-rule="evenodd" d="M130.157 25.5847C132.152 25.5847 133.823 24.9366 135.147 23.6402H135.155C136.487 22.3438 137.149 20.712 137.149 18.7445C137.149 17.4482 136.849 16.2738 136.248 15.2291C135.648 14.1844 134.808 13.3685 133.738 12.7813C132.66 12.1941 131.466 11.9043 130.157 11.9043C128.155 11.9043 126.492 12.5525 125.152 13.8489C123.82 15.1452 123.15 16.7771 123.15 18.7445C123.15 20.712 123.813 22.3438 125.152 23.6402C126.492 24.9366 128.163 25.5847 130.157 25.5847ZM130.157 24.0062C128.633 24.0062 127.37 23.5106 126.369 22.5116C125.368 21.5127 124.867 20.262 124.867 18.7522C124.867 17.2423 125.368 15.9917 126.369 14.9927C127.37 13.9938 128.633 13.4981 130.157 13.4981C131.682 13.4981 132.945 13.9938 133.946 14.9927C134.947 15.9917 135.447 17.2423 135.447 18.7522C135.447 20.262 134.947 21.5127 133.946 22.5116C132.945 23.5106 131.682 24.0062 130.157 24.0062Z" fill="#333B40"/>
<path d="M144.911 23.7851H146.358V25.3179H144.711C143.332 25.3179 142.254 24.9213 141.461 24.1359C140.676 23.3504 140.283 22.2752 140.283 20.9102V13.6811H138.019V13.338L141.684 9.60901H141.954V12.1636H146.258V13.6735H141.954V20.8568C141.954 21.4745 142.07 22.0007 142.301 22.443C142.532 22.8776 142.863 23.2132 143.309 23.4419C143.748 23.6707 144.287 23.7851 144.911 23.7851Z" fill="#333B40"/>
<path d="M162.444 25.5847C159.888 25.5847 157.778 24.7612 156.122 23.114C154.467 21.4669 153.635 19.3622 153.635 16.8076C153.635 14.253 154.459 12.1407 156.122 10.486C157.778 8.8312 159.888 8 162.444 8C164.407 8 166.117 8.52617 167.572 9.57088C169.02 10.6156 170.013 12.034 170.537 13.8184H168.766C168.435 12.9567 167.973 12.217 167.364 11.5993C166.756 10.9816 166.04 10.5088 165.201 10.1733C164.361 9.83778 163.445 9.67764 162.444 9.67764C160.396 9.67764 158.709 10.3411 157.393 11.6756C156.076 13.0101 155.414 14.7106 155.414 16.7924C155.414 18.8742 156.076 20.5747 157.393 21.9092C158.709 23.2437 160.396 23.9071 162.444 23.9071C163.984 23.9071 165.324 23.5182 166.456 22.7404C167.588 21.9626 168.396 20.8797 168.889 19.4995H170.637C170.113 21.3678 169.112 22.8471 167.649 23.9452C166.179 25.0433 164.446 25.5924 162.452 25.5924L162.444 25.5847Z" fill="#333B40"/>
<path fill-rule="evenodd" clip-rule="evenodd" d="M179.015 25.5847C181.009 25.5847 182.68 24.9366 184.004 23.6402H184.012C185.344 22.3438 186.006 20.712 186.006 18.7445C186.006 17.4482 185.706 16.2738 185.105 15.2291C184.505 14.1844 183.665 13.3685 182.595 12.7813C181.517 12.1941 180.324 11.9043 179.015 11.9043C177.013 11.9043 175.349 12.5525 174.01 13.8489C172.677 15.1452 172.007 16.7771 172.007 18.7445C172.007 20.712 172.67 22.3438 174.01 23.6402C175.349 24.9366 177.02 25.5847 179.015 25.5847ZM179.015 24.0062C177.49 24.0062 176.227 23.5106 175.226 22.5116C174.225 21.5127 173.725 20.262 173.725 18.7522C173.725 17.2423 174.225 15.9917 175.226 14.9927C176.227 13.9938 177.49 13.4981 179.015 13.4981C180.539 13.4981 181.802 13.9938 182.803 14.9927C183.804 15.9917 184.305 17.2423 184.305 18.7522C184.305 20.262 183.804 21.5127 182.803 22.5116C181.802 23.5106 180.539 24.0062 179.015 24.0062Z" fill="#333B40"/>
<path d="M203.332 11.9043C204.71 11.9043 205.819 12.3695 206.666 13.3075C207.513 14.2378 207.928 15.4579 207.928 16.9449V25.3255H206.258V17.4329C206.258 16.8153 206.181 16.2586 206.027 15.7629C205.873 15.2672 205.657 14.8478 205.372 14.4971C205.095 14.1463 204.756 13.8794 204.348 13.6964C203.948 13.5133 203.493 13.4142 202.985 13.4142C201.899 13.4142 200.991 13.8412 200.259 14.6953C199.52 15.5494 199.15 16.617 199.15 17.8981V25.3255H197.503V17.4329C197.503 16.1823 197.21 15.1986 196.632 14.4894C196.047 13.7726 195.254 13.4218 194.238 13.4218C193.152 13.4218 192.243 13.8489 191.512 14.7029C190.78 15.557 190.403 16.6246 190.403 17.9057V25.3331H188.732V12.1712H189.964L190.234 14.192C190.726 13.4752 191.35 12.9185 192.112 12.5144C192.875 12.1102 193.706 11.9043 194.607 11.9043C195.578 11.9043 196.417 12.1407 197.125 12.6211C197.841 13.1016 198.365 13.765 198.711 14.6038C199.189 13.7574 199.828 13.1016 200.644 12.6211C201.453 12.1407 202.354 11.9043 203.339 11.9043H203.332Z" fill="#333B40"/>
<path fill-rule="evenodd" clip-rule="evenodd" d="M223.375 13.8489C222.097 12.5525 220.472 11.9043 218.508 11.9043L218.501 11.8967C217.746 11.8967 217.022 12.0035 216.337 12.217C215.652 12.4305 215.028 12.7355 214.481 13.1321C213.927 13.5362 213.449 14.0014 213.041 14.5352L212.672 12.1712H211.517V29.9924H213.188V23.1217C213.811 23.8995 214.581 24.5095 215.498 24.9366C216.422 25.3712 217.415 25.5847 218.501 25.5847C220.457 25.5847 222.074 24.9366 223.359 23.6402C224.645 22.3438 225.292 20.712 225.292 18.7445C225.292 16.7771 224.653 15.1452 223.375 13.8489ZM222.12 22.5116C221.142 23.5106 219.894 24.0062 218.385 24.0062V24.0215C216.876 24.0215 215.621 23.5182 214.62 22.5116C213.619 21.505 213.118 20.2544 213.118 18.7598C213.118 17.2652 213.619 16.0146 214.62 15.008C215.621 14.0014 216.884 13.4981 218.385 13.4981C219.887 13.4981 221.134 13.9938 222.12 14.9927C223.105 15.9917 223.598 17.2423 223.598 18.7522C223.598 20.262 223.105 21.5127 222.12 22.5116Z" fill="#333B40"/>
<path fill-rule="evenodd" clip-rule="evenodd" d="M240.808 12.1712H239.476L239.252 14.5352C238.629 13.704 237.843 13.0634 236.904 12.5983C235.965 12.1331 234.91 11.9043 233.747 11.9043C231.799 11.9043 230.166 12.5525 228.865 13.8489C227.564 15.1452 226.909 16.8 226.909 18.7445C226.909 20.6891 227.564 22.321 228.865 23.625C230.166 24.9289 231.799 25.5847 233.747 25.5847C234.894 25.5847 235.941 25.356 236.896 24.8908C237.843 24.4256 238.621 23.7851 239.229 22.9539L239.43 25.3179H240.808V12.1712ZM237.643 22.5116C236.658 23.5106 235.402 24.0062 233.878 24.0062V24.0139C232.892 24.0139 231.999 23.7851 231.198 23.3199C230.397 22.8624 229.774 22.2295 229.319 21.4364C228.865 20.6357 228.642 19.7435 228.642 18.7674C228.642 17.7913 228.873 16.8915 229.319 16.0908C229.766 15.2901 230.397 14.6572 231.198 14.192C231.999 13.7269 232.892 13.4981 233.878 13.4981C235.402 13.4981 236.658 13.9938 237.643 14.9927C238.629 15.9917 239.122 17.2423 239.122 18.7522C239.122 20.262 238.629 21.5127 237.643 22.5116Z" fill="#333B40"/>
<path d="M251.041 11.9043C252.612 11.9043 253.867 12.4229 254.807 13.4523C255.738 14.4818 256.208 15.8239 256.208 17.4863V25.3255H254.537V17.8523C254.537 16.4416 254.198 15.3511 253.513 14.5733C252.835 13.8031 251.873 13.4142 250.626 13.4142C249.378 13.4142 248.408 13.8641 247.561 14.7563C246.714 15.6485 246.29 16.7314 246.29 17.9972V25.3255H244.619V12.1712H245.821L246.144 14.4818C246.29 14.253 246.452 14.0395 246.621 13.8336C246.791 13.6277 246.983 13.4447 247.184 13.2769C247.391 13.1092 247.599 12.949 247.823 12.8042C248.046 12.6593 248.285 12.5296 248.539 12.4153C248.793 12.3009 249.055 12.2094 249.317 12.1331C249.578 12.0568 249.856 12.0035 250.156 11.9653C250.448 11.9272 250.749 11.9043 251.041 11.9043Z" fill="#333B40"/>
<path d="M271 12.1712L264.532 26.0499C263.847 27.5445 263.138 28.574 262.414 29.1459C261.691 29.7179 260.736 30 259.535 30H258.356V28.4901H259.388C260.289 28.4901 260.974 28.3071 261.452 27.9411C261.929 27.575 262.445 26.8277 263 25.6915L263.562 24.4714L257.563 12.1712H259.381L264.447 22.6412L269.19 12.1712H271Z" fill="#333B40"/>
<path d="M14.103 7.42954C13.8716 4.9376 12.8455 2.75425 11.2793 0.98752L13.8793 10.9399C14.1339 9.81348 14.211 8.63308 14.103 7.42954Z" fill="#758591"/>
<path d="M34 17.0039C34 10.5155 30.3585 4.86816 25.012 2.0059L33.9229 18.6549C33.9769 18.1071 34 17.5593 34 17.0039Z" fill="#758591"/>
<path d="M14.6122 13.7481L15.2988 16.3558L22.767 1.00295C20.9694 0.35489 19.0252 0 17.0039 0C15.6074 0 14.2496 0.16973 12.9535 0.486045C14.5273 2.46108 15.5303 4.89131 15.7232 7.5607C15.8852 9.75947 15.4763 11.8657 14.6122 13.7558V13.7481Z" fill="#758591"/>
<path d="M6.40345 20.9848L11.3488 24.4951L14.3036 18.408L13.5707 15.6152C11.9042 18.0917 9.39687 20.0204 6.40345 20.9771V20.9848Z" fill="#758591"/>
<path d="M14.7665 20.8382H33.568L23.6542 2.56138L14.7665 20.8382Z" fill="#758591"/>
<path d="M3.14772 20.0667C7.57613 19.681 11.233 17.0424 12.9998 13.4318L9.89063 1.55071C4.05037 4.24325 0 10.1529 0 17.0039C0 18.0222 0.09258 19.0252 0.26231 19.9896C1.19582 20.1207 2.1602 20.1516 3.14772 20.0667Z" fill="#758591"/>
<path d="M12.5677 25.3669L23.1219 32.8659C27.8511 31.0374 31.5543 27.1645 33.1513 22.3195H14.049L12.5677 25.3669Z" fill="#758591"/>
<path d="M4.49784 21.4477C4.0118 21.5326 3.51804 21.5943 3.00885 21.6251C2.19877 21.6791 1.40413 21.6637 0.624915 21.5866C1.77445 25.7064 4.44384 29.1936 7.97731 31.4078L10.6853 25.8375L4.49784 21.44V21.4477Z" fill="#758591"/>
<path d="M9.27343 32.1484C11.5956 33.3365 14.2187 34 17.0039 34C18.516 34 19.9818 33.7994 21.3705 33.4291L11.912 26.7093L9.27343 32.1407V32.1484Z" fill="#758591"/>
</g>
<defs>
<clipPath id="clip0_21_1750">
<rect width="271" height="34" fill="white"/>
</clipPath>
</defs>
</svg>
