<svg width="500" height="255" viewBox="0 0 500 255" fill="none" xmlns="http://www.w3.org/2000/svg">
<rect width="283.4" height="130" transform="translate(109.8 64)" fill="#F6ADA1"/>
<path d="M133.337 104.318C132.694 104.318 132.135 104.081 131.659 103.605C131.184 103.13 130.946 102.571 130.946 101.927V100.417C130.946 99.7743 131.184 99.215 131.659 98.7397C132.135 98.2643 132.694 98.0266 133.337 98.0266H134.008C134.651 98.0266 135.211 98.2643 135.686 98.7397C136.161 99.215 136.399 99.7743 136.399 100.417V101.927C136.399 102.571 136.161 103.13 135.686 103.605C135.211 104.081 134.651 104.318 134.008 104.318H133.337ZM133.337 120.677C132.694 120.677 132.135 120.439 131.659 119.964C131.184 119.488 130.946 118.929 130.946 118.286V116.776C130.946 116.133 131.184 115.574 131.659 115.098C132.135 114.623 132.694 114.385 133.337 114.385H134.008C134.651 114.385 135.211 114.623 135.686 115.098C136.161 115.574 136.399 116.133 136.399 116.776V118.286C136.399 118.929 136.161 119.488 135.686 119.964C135.211 120.439 134.651 120.677 134.008 120.677H133.337Z" fill="white"/>
<path d="M142.503 122.355C141.972 122.355 141.552 122.131 141.244 121.684C140.965 121.264 140.937 120.817 141.161 120.341L153.87 92.0704C154.15 91.4552 154.555 90.9658 155.086 90.6023C155.646 90.2388 156.261 90.057 156.932 90.057C157.463 90.057 157.869 90.2807 158.148 90.7281C158.428 91.1476 158.47 91.595 158.274 92.0704L145.565 120.341C145.285 120.957 144.866 121.446 144.306 121.809C143.775 122.173 143.174 122.355 142.503 122.355Z" fill="white"/>
<path d="M155.632 122.355C155.101 122.355 154.681 122.131 154.374 121.684C154.094 121.264 154.066 120.817 154.29 120.341L166.999 92.0704C167.279 91.4552 167.684 90.9658 168.215 90.6023C168.775 90.2388 169.39 90.057 170.061 90.057C170.592 90.057 170.998 90.2807 171.277 90.7281C171.557 91.1476 171.599 91.595 171.403 92.0704L158.694 120.341C158.414 120.957 157.995 121.446 157.436 121.809C156.904 122.173 156.303 122.355 155.632 122.355Z" fill="white"/>
<path d="M179.841 118.37L174.346 92.364C174.234 91.7768 174.36 91.2455 174.724 90.7701C175.087 90.2947 175.577 90.057 176.192 90.057C176.863 90.057 177.464 90.2807 177.996 90.7281C178.527 91.1476 178.848 91.6929 178.96 92.364L183.113 115.602C183.113 115.63 183.127 115.644 183.155 115.644C183.183 115.644 183.197 115.63 183.197 115.602L187.349 92.4059C187.489 91.7348 187.811 91.1756 188.314 90.7281C188.845 90.2807 189.461 90.057 190.16 90.057H191.25C191.949 90.057 192.564 90.2807 193.096 90.7281C193.627 91.1756 193.949 91.7348 194.061 92.4059L198.213 115.602C198.213 115.63 198.227 115.644 198.255 115.644C198.283 115.644 198.297 115.63 198.297 115.602L202.45 92.2801C202.561 91.637 202.869 91.1056 203.372 90.6862C203.904 90.2667 204.491 90.057 205.134 90.057C205.721 90.057 206.197 90.2947 206.56 90.7701C206.952 91.2175 207.077 91.7208 206.938 92.2801L201.401 118.37C201.261 119.041 200.912 119.6 200.352 120.048C199.821 120.467 199.206 120.677 198.507 120.677H197.626C196.927 120.677 196.312 120.453 195.78 120.006C195.277 119.558 194.955 118.999 194.816 118.328L190.663 95.1324C190.663 95.1044 190.649 95.0904 190.621 95.0904C190.593 95.0904 190.579 95.1044 190.579 95.1324L186.427 118.328C186.315 118.999 185.993 119.558 185.462 120.006C184.93 120.453 184.315 120.677 183.616 120.677H182.735C182.036 120.677 181.407 120.467 180.848 120.048C180.317 119.6 179.981 119.041 179.841 118.37Z" fill="white"/>
<path d="M228.697 96.4327C227.159 94.4193 224.964 93.4126 222.111 93.4126C219.259 93.4126 217.05 94.4193 215.484 96.4327C213.946 98.4181 213.177 101.396 213.177 105.367C213.177 109.338 213.946 112.33 215.484 114.343C217.05 116.329 219.259 117.321 222.111 117.321C224.964 117.321 227.159 116.329 228.697 114.343C230.263 112.33 231.046 109.338 231.046 105.367C231.046 101.396 230.263 98.4181 228.697 96.4327ZM232.052 116.944C229.619 119.712 226.306 121.096 222.111 121.096C217.917 121.096 214.589 119.712 212.128 116.944C209.696 114.175 208.479 110.316 208.479 105.367C208.479 100.417 209.696 96.5585 212.128 93.7901C214.589 91.0218 217.917 89.6376 222.111 89.6376C226.306 89.6376 229.619 91.0218 232.052 93.7901C234.513 96.5585 235.743 100.417 235.743 105.367C235.743 110.316 234.513 114.175 232.052 116.944Z" fill="white"/>
<path d="M243.656 120.048C243.236 120.467 242.719 120.677 242.104 120.677C241.489 120.677 240.957 120.467 240.51 120.048C240.09 119.6 239.881 119.069 239.881 118.454V92.2801C239.881 91.6649 240.09 91.1476 240.51 90.7281C240.957 90.2807 241.489 90.057 242.104 90.057C243.586 90.057 244.662 90.7142 245.333 92.0284L253.597 108.051C253.597 108.079 253.611 108.093 253.639 108.093C253.667 108.093 253.681 108.079 253.681 108.051L261.902 92.1123C262.601 90.7421 263.719 90.057 265.257 90.057C265.901 90.057 266.446 90.2807 266.893 90.7281C267.341 91.1756 267.564 91.7208 267.564 92.364V118.37C267.564 119.013 267.341 119.558 266.893 120.006C266.446 120.453 265.901 120.677 265.257 120.677C264.614 120.677 264.069 120.453 263.622 120.006C263.174 119.558 262.95 119.013 262.95 118.37V98.0685C262.95 98.0406 262.936 98.0266 262.908 98.0266C262.881 98.0266 262.867 98.0406 262.867 98.0685L256.659 110.4C256.015 111.659 255.009 112.288 253.639 112.288C252.268 112.288 251.262 111.659 250.619 110.4L244.411 98.0685C244.411 98.0406 244.397 98.0266 244.369 98.0266C244.341 98.0266 244.327 98.0406 244.327 98.0685V118.454C244.327 119.069 244.103 119.6 243.656 120.048Z" fill="white"/>
<path d="M276.005 120.677C275.361 120.677 274.802 120.439 274.327 119.964C273.851 119.488 273.614 118.929 273.614 118.286V92.4479C273.614 91.8047 273.851 91.2455 274.327 90.7701C274.802 90.2947 275.361 90.057 276.005 90.057H290.182C290.713 90.057 291.161 90.2388 291.524 90.6023C291.888 90.9658 292.069 91.4132 292.069 91.9446C292.069 92.4759 291.888 92.9233 291.524 93.2868C291.161 93.6503 290.713 93.8321 290.182 93.8321H278.605C278.353 93.8321 278.228 93.9439 278.228 94.1676V102.179C278.228 102.431 278.353 102.557 278.605 102.557H289.427C289.93 102.557 290.35 102.738 290.685 103.102C291.049 103.438 291.231 103.857 291.231 104.36C291.231 104.864 291.049 105.297 290.685 105.661C290.35 105.996 289.93 106.164 289.427 106.164H278.605C278.353 106.164 278.228 106.29 278.228 106.541V116.524C278.228 116.776 278.353 116.902 278.605 116.902H290.182C290.713 116.902 291.161 117.084 291.524 117.447C291.888 117.811 292.069 118.258 292.069 118.789C292.069 119.321 291.888 119.768 291.524 120.132C291.161 120.495 290.713 120.677 290.182 120.677H276.005Z" fill="white"/>
<path d="M301.539 120.006C301.091 120.453 300.56 120.677 299.945 120.677C299.329 120.677 298.798 120.453 298.351 120.006C297.903 119.558 297.68 119.027 297.68 118.412V92.3221C297.68 91.7069 297.903 91.1756 298.351 90.7281C298.798 90.2807 299.329 90.057 299.945 90.057C301.427 90.057 302.559 90.7142 303.342 92.0284L315.255 112.875C315.255 112.903 315.283 112.917 315.338 112.917C315.366 112.917 315.38 112.903 315.38 112.875V92.3221C315.38 91.7069 315.604 91.1756 316.052 90.7281C316.499 90.2807 317.03 90.057 317.645 90.057C318.261 90.057 318.792 90.2807 319.239 90.7281C319.687 91.1756 319.911 91.7069 319.911 92.3221V118.412C319.911 119.027 319.687 119.558 319.239 120.006C318.792 120.453 318.261 120.677 317.645 120.677C316.163 120.677 315.031 120.02 314.248 118.706L302.294 97.8588C302.294 97.8308 302.28 97.8169 302.252 97.8169C302.224 97.8169 302.21 97.8308 302.21 97.8588V118.412C302.21 119.027 301.986 119.558 301.539 120.006Z" fill="white"/>
<path d="M340.198 120.677C339.555 120.677 338.996 120.439 338.521 119.964C338.045 119.488 337.808 118.929 337.808 118.286V92.4479C337.808 91.8047 338.045 91.2455 338.521 90.7701C338.996 90.2947 339.555 90.057 340.198 90.057H340.45C341.093 90.057 341.653 90.2947 342.128 90.7701C342.603 91.2455 342.841 91.8047 342.841 92.4479V118.286C342.841 118.929 342.603 119.488 342.128 119.964C341.653 120.439 341.093 120.677 340.45 120.677H340.198Z" fill="white"/>
<path d="M353.788 120.006C353.341 120.453 352.809 120.677 352.194 120.677C351.579 120.677 351.048 120.453 350.6 120.006C350.153 119.558 349.929 119.027 349.929 118.412V92.3221C349.929 91.7069 350.153 91.1756 350.6 90.7281C351.048 90.2807 351.579 90.057 352.194 90.057C353.676 90.057 354.809 90.7142 355.592 92.0284L367.504 112.875C367.504 112.903 367.532 112.917 367.588 112.917C367.616 112.917 367.63 112.903 367.63 112.875V92.3221C367.63 91.7069 367.854 91.1756 368.301 90.7281C368.748 90.2807 369.28 90.057 369.895 90.057C370.51 90.057 371.041 90.2807 371.489 90.7281C371.936 91.1756 372.16 91.7069 372.16 92.3221V118.412C372.16 119.027 371.936 119.558 371.489 120.006C371.041 120.453 370.51 120.677 369.895 120.677C368.413 120.677 367.28 120.02 366.497 118.706L354.543 97.8588C354.543 97.8308 354.529 97.8169 354.501 97.8169C354.473 97.8169 354.459 97.8308 354.459 97.8588V118.412C354.459 119.027 354.235 119.558 353.788 120.006Z" fill="white"/>
<path d="M143.76 139.849C143.229 139.849 142.767 139.668 142.376 139.304C142.012 138.913 141.831 138.451 141.831 137.92C141.831 137.389 142.012 136.941 142.376 136.578C142.767 136.186 143.229 135.99 143.76 135.99H161.713C162.244 135.99 162.691 136.186 163.055 136.578C163.446 136.941 163.642 137.389 163.642 137.92C163.642 138.451 163.446 138.913 163.055 139.304C162.691 139.668 162.244 139.849 161.713 139.849H155.421C155.169 139.849 155.043 139.975 155.043 140.227V164.303C155.043 164.946 154.82 165.492 154.372 165.939C153.925 166.387 153.38 166.61 152.736 166.61C152.093 166.61 151.548 166.387 151.101 165.939C150.653 165.492 150.429 164.946 150.429 164.303V140.227C150.429 139.975 150.304 139.849 150.052 139.849H143.76Z" fill="white"/>
<path d="M171.016 166.61C170.372 166.61 169.813 166.373 169.338 165.897C168.862 165.422 168.625 164.863 168.625 164.219V138.381C168.625 137.738 168.862 137.179 169.338 136.703C169.813 136.228 170.372 135.99 171.016 135.99H185.193C185.724 135.99 186.172 136.172 186.535 136.536C186.899 136.899 187.081 137.347 187.081 137.878C187.081 138.409 186.899 138.857 186.535 139.22C186.172 139.584 185.724 139.765 185.193 139.765H173.616C173.365 139.765 173.239 139.877 173.239 140.101V148.112C173.239 148.364 173.365 148.49 173.616 148.49H184.438C184.941 148.49 185.361 148.672 185.696 149.035C186.06 149.371 186.242 149.79 186.242 150.294C186.242 150.797 186.06 151.23 185.696 151.594C185.361 151.929 184.941 152.097 184.438 152.097H173.616C173.365 152.097 173.239 152.223 173.239 152.475V162.458C173.239 162.709 173.365 162.835 173.616 162.835H185.193C185.724 162.835 186.172 163.017 186.535 163.38C186.899 163.744 187.081 164.191 187.081 164.723C187.081 165.254 186.899 165.701 186.535 166.065C186.172 166.429 185.724 166.61 185.193 166.61H171.016Z" fill="white"/>
<path d="M204.445 167.03C200.195 167.03 196.783 165.66 194.211 162.919C191.666 160.179 190.394 156.306 190.394 151.3C190.394 146.351 191.624 142.492 194.085 139.723C196.574 136.955 200.027 135.571 204.445 135.571C206.347 135.571 208.08 135.711 209.646 135.99C210.206 136.102 210.667 136.396 211.031 136.871C211.394 137.319 211.576 137.836 211.576 138.423C211.576 138.927 211.366 139.332 210.947 139.64C210.555 139.919 210.122 139.989 209.646 139.849C208.332 139.514 206.738 139.346 204.865 139.346C201.845 139.346 199.454 140.395 197.692 142.492C195.958 144.561 195.091 147.497 195.091 151.3C195.091 155.103 195.986 158.053 197.776 160.151C199.566 162.22 201.929 163.255 204.865 163.255C206.71 163.255 208.374 163.073 209.856 162.709C210.332 162.57 210.765 162.653 211.156 162.961C211.576 163.269 211.786 163.674 211.786 164.177C211.786 164.765 211.604 165.296 211.24 165.771C210.877 166.219 210.401 166.498 209.814 166.61C208.164 166.89 206.375 167.03 204.445 167.03Z" fill="white"/>
<path d="M221.56 165.939C221.112 166.387 220.567 166.61 219.924 166.61C219.281 166.61 218.735 166.387 218.288 165.939C217.841 165.492 217.617 164.946 217.617 164.303V138.297C217.617 137.654 217.841 137.109 218.288 136.661C218.735 136.214 219.281 135.99 219.924 135.99C220.567 135.99 221.112 136.214 221.56 136.661C222.007 137.109 222.231 137.654 222.231 138.297V148.112C222.231 148.364 222.357 148.49 222.608 148.49H234.856C235.108 148.49 235.234 148.364 235.234 148.112V138.297C235.234 137.654 235.458 137.109 235.905 136.661C236.352 136.214 236.898 135.99 237.541 135.99C238.184 135.99 238.729 136.214 239.177 136.661C239.624 137.109 239.848 137.654 239.848 138.297V164.303C239.848 164.946 239.624 165.492 239.177 165.939C238.729 166.387 238.184 166.61 237.541 166.61C236.898 166.61 236.352 166.387 235.905 165.939C235.458 165.492 235.234 164.946 235.234 164.303V152.475C235.234 152.223 235.108 152.097 234.856 152.097H222.608C222.357 152.097 222.231 152.223 222.231 152.475V164.303C222.231 164.946 222.007 165.492 221.56 165.939Z" fill="white"/>
<path d="M264.666 152.978C261.478 151.888 259.171 150.587 257.745 149.077C256.347 147.539 255.648 145.694 255.648 143.54C255.648 141.08 256.431 139.136 257.997 137.71C259.563 136.284 261.716 135.571 264.456 135.571C267.029 135.571 269.294 135.879 271.251 136.494C271.839 136.689 272.314 137.067 272.677 137.626C273.069 138.158 273.265 138.759 273.265 139.43C273.265 139.905 273.055 140.269 272.635 140.52C272.216 140.772 271.783 140.8 271.335 140.604C269.21 139.709 267.057 139.262 264.876 139.262C263.366 139.262 262.205 139.64 261.394 140.395C260.583 141.15 260.178 142.198 260.178 143.54C260.178 144.631 260.555 145.624 261.31 146.519C262.065 147.385 263.184 148.071 264.666 148.574C268.357 149.804 270.916 151.174 272.342 152.684C273.796 154.195 274.523 156.11 274.523 158.431C274.523 161.255 273.656 163.394 271.922 164.849C270.189 166.303 267.63 167.03 264.246 167.03C262.037 167.03 260.038 166.694 258.248 166.023C256.934 165.492 256.277 164.457 256.277 162.919C256.277 162.444 256.487 162.094 256.906 161.87C257.326 161.647 257.745 161.647 258.164 161.87C259.898 162.793 261.786 163.255 263.827 163.255C267.882 163.255 269.909 161.647 269.909 158.431C269.909 157.201 269.504 156.152 268.693 155.285C267.91 154.418 266.567 153.649 264.666 152.978Z" fill="white"/>
<path d="M281.924 166.61C281.281 166.61 280.722 166.373 280.247 165.897C279.771 165.422 279.533 164.863 279.533 164.219V138.381C279.533 137.738 279.771 137.179 280.247 136.703C280.722 136.228 281.281 135.99 281.924 135.99H296.102C296.633 135.99 297.08 136.172 297.444 136.536C297.808 136.899 297.989 137.347 297.989 137.878C297.989 138.409 297.808 138.857 297.444 139.22C297.08 139.584 296.633 139.765 296.102 139.765H284.525C284.273 139.765 284.147 139.877 284.147 140.101V148.112C284.147 148.364 284.273 148.49 284.525 148.49H295.347C295.85 148.49 296.27 148.672 296.605 149.035C296.969 149.371 297.15 149.79 297.15 150.294C297.15 150.797 296.969 151.23 296.605 151.594C296.27 151.929 295.85 152.097 295.347 152.097H284.525C284.273 152.097 284.147 152.223 284.147 152.475V162.458C284.147 162.709 284.273 162.835 284.525 162.835H296.102C296.633 162.835 297.08 163.017 297.444 163.38C297.808 163.744 297.989 164.191 297.989 164.723C297.989 165.254 297.808 165.701 297.444 166.065C297.08 166.429 296.633 166.61 296.102 166.61H281.924Z" fill="white"/>
<path d="M321.52 142.366C319.982 140.353 317.787 139.346 314.934 139.346C312.082 139.346 309.873 140.353 308.307 142.366C306.769 144.351 306 147.33 306 151.3C306 155.271 306.769 158.263 308.307 160.277C309.873 162.262 312.082 163.255 314.934 163.255C317.787 163.255 319.982 162.262 321.52 160.277C323.086 158.263 323.869 155.271 323.869 151.3C323.869 147.33 323.086 144.351 321.52 142.366ZM324.875 162.877C322.443 165.646 319.129 167.03 314.934 167.03C310.74 167.03 307.412 165.646 304.952 162.877C302.519 160.109 301.302 156.25 301.302 151.3C301.302 146.351 302.519 142.492 304.952 139.723C307.412 136.955 310.74 135.571 314.934 135.571C319.129 135.571 322.443 136.955 324.875 139.723C327.336 142.492 328.567 146.351 328.567 151.3C328.567 156.25 327.336 160.109 324.875 162.877Z" fill="white"/>
<path d="M343.163 168.288C342.631 168.288 342.212 168.064 341.904 167.617C341.625 167.197 341.597 166.75 341.82 166.275L354.53 138.004C354.809 137.389 355.215 136.899 355.746 136.536C356.305 136.172 356.921 135.99 357.592 135.99C358.123 135.99 358.528 136.214 358.808 136.661C359.088 137.081 359.13 137.528 358.934 138.004L346.225 166.275C345.945 166.89 345.525 167.379 344.966 167.743C344.435 168.106 343.834 168.288 343.163 168.288Z" fill="white"/>
</svg>
