<svg width="500" height="255" viewBox="0 0 500 255" fill="none" xmlns="http://www.w3.org/2000/svg">
<path d="M154.533 107.902C156.014 106.806 157.911 106.244 160.251 106.244C162.207 106.274 164.163 106.658 165.97 107.398C168.103 108.257 170.118 109.47 171.896 110.95L179.096 96.8312C175.688 94.996 172.044 93.5752 168.281 92.628C164.755 91.7104 161.111 91.2368 157.466 91.2072C154.059 91.148 150.651 91.7104 147.451 92.8648C144.637 93.8416 142.029 95.44 139.866 97.512C137.775 99.5434 136.139 101.995 135.066 104.705C133.881 107.694 133.318 110.862 133.348 114.088C133.348 117.522 133.881 120.393 134.977 122.642C135.985 124.803 137.437 126.698 139.244 128.237C141.051 129.746 143.066 130.93 145.259 131.789C147.511 132.677 149.792 133.506 152.133 134.246C154.118 134.926 155.777 135.548 157.17 136.081C158.355 136.525 159.481 137.146 160.518 137.886C161.288 138.449 161.94 139.159 162.355 140.018C162.74 140.876 162.918 141.794 162.918 142.741C162.918 144.458 162.207 145.997 160.755 147.358C159.303 148.72 157.111 149.401 154.148 149.401C151.451 149.371 148.755 148.779 146.296 147.654C143.629 146.5 140.963 144.694 138.266 142.297L130.474 156.86C138 162.099 146.177 164.704 154.977 164.704C159.244 164.704 163.037 164.142 166.385 162.987C169.733 161.862 172.577 160.234 174.888 158.192C177.2 156.15 178.977 153.604 180.163 150.762C181.41 147.68 182.025 144.378 181.97 141.054C181.97 135.755 180.607 131.463 177.851 128.178C175.096 124.892 170.77 122.258 164.874 120.274C163.392 119.771 161.911 119.327 160.4 118.883C159.007 118.498 157.644 117.995 156.34 117.344C155.244 116.841 154.266 116.13 153.437 115.272C152.684 114.44 152.29 113.344 152.34 112.223C152.281 110.536 153.111 108.878 154.533 107.902ZM368.933 108.464V93.1312H329.259V162.75H368.933V147.418H347.392V135.43H368.933V120.097H347.392V108.464H368.933ZM190 93.1312V162.75H232.607V147.418H208.103V93.1312H190ZM320.666 93.1312H272.785V108.464H287.659V162.75H305.792V108.464H320.666V93.1312ZM241.348 93.1312V106.866L250.681 133.683H241.348V147.418H255.481L260.844 162.75H280.163L253.614 93.1312H241.348Z" fill="#2C0022"/>
</svg>
