<svg width="500" height="255" viewBox="0 0 500 255" fill="none" xmlns="http://www.w3.org/2000/svg">
<path d="M334.929 113.641H338.305C341.612 113.641 341.681 113.641 341.775 114.177C341.844 114.457 342.031 115.366 342.194 116.205L342.496 117.697L344.08 116.252C346.967 113.664 349.785 112.732 353.557 113.151C358.517 113.711 362.01 117.137 363.477 122.872C363.943 124.783 364.036 125.669 364.036 128.769C364.013 135.342 362.522 139.561 359.053 142.685C355.793 145.645 351.252 146.647 345.989 145.599C344.848 145.365 343.707 145.086 343.498 144.992C343.102 144.829 343.079 145.202 343.079 150.657C343.079 153.874 342.985 156.554 342.869 156.624C342.683 156.741 341.868 156.88 338.072 157.463C337.304 157.58 336.279 157.743 335.813 157.836L334.929 157.999V113.641ZM350.74 139.118C352.882 138.442 354.349 136.811 355.35 133.99C355.956 132.335 355.933 126.624 355.327 124.76C354.768 122.965 353.697 121.613 352.277 120.89C349.832 119.608 347.037 120.377 344.429 123.011L343.079 124.41V138.093L343.801 138.489C344.732 138.955 347.084 139.468 348.458 139.491C349.063 139.515 350.088 139.328 350.74 139.118Z" fill="black"/>
<path d="M115.342 146.041C109.148 145.226 104.816 141.03 103.256 134.317C103.116 133.711 103 131.659 103 129.771C103 125.669 103.442 123.664 104.909 120.797C106.679 117.347 109.776 114.806 113.549 113.711C115.97 113.012 120.837 112.918 123.259 113.524C124.633 113.874 128.032 115.366 128.242 115.715C128.289 115.785 128.242 116.485 128.126 117.254C127.52 121.286 127.287 122.755 127.148 122.872C127.078 122.941 126.309 122.569 125.424 122.056C123.422 120.82 121.978 120.377 119.626 120.238C114.294 119.888 111.15 123.384 111.15 129.631C111.15 133.244 111.919 135.389 113.781 137.114C115.924 139.095 118.671 139.724 121.862 138.955C123.538 138.559 124.563 138.093 126.146 137.09C126.845 136.648 127.497 136.368 127.567 136.484C127.683 136.671 128.242 140.004 128.545 142.242C128.661 143.198 128.661 143.221 127.543 143.944C124.726 145.715 119.58 146.601 115.342 146.041Z" fill="black"/>
<path d="M161.657 146.041C159.795 145.738 157.559 144.946 156.325 144.153C155.254 143.477 153.158 141.496 152.483 140.517C151.714 139.398 150.736 137.16 150.271 135.482C149.595 132.895 149.595 126.624 150.271 124.154C151.761 118.839 155.23 115.016 159.888 113.618C161.122 113.245 162.146 113.151 164.428 113.128C167.06 113.128 167.572 113.198 169.132 113.757C173.277 115.249 176.025 118.373 177.282 123.011C177.818 125.063 178.237 129.002 178.051 130.354L177.911 131.356L167.875 131.403L157.839 131.473L157.908 132.638C158.048 135.808 160.19 138.652 163.031 139.538C164.778 140.051 167.526 140.074 169.551 139.561C171.414 139.072 174.581 137.65 175.885 136.671C176.817 135.995 177.189 136.228 177.352 137.58C177.422 138.186 177.608 139.538 177.748 140.564C178.004 142.358 177.981 142.428 177.469 142.825C176.118 143.827 173.65 144.923 171.112 145.622C169.225 146.135 163.753 146.368 161.657 146.041ZM170.064 125.715C170.064 124.876 169.482 122.941 168.923 121.869C167.852 119.748 166.245 118.769 163.916 118.769C161.145 118.769 158.421 121.659 158.025 125.016L157.885 126.228H170.064V125.715Z" fill="black"/>
<path d="M188.925 146.065C186.341 145.505 184.012 143.594 183.081 141.24C182.289 139.282 182.289 135.366 183.081 133.384C183.849 131.403 185.921 129.282 188.064 128.233C191.231 126.718 193.629 126.088 200.103 125.133L201.383 124.923L201.36 123.617C201.313 120.82 199.753 119.701 195.934 119.701C193.373 119.701 191.603 120.051 188.529 121.123C185.712 122.126 185.595 122.126 185.386 120.983C184.92 118.513 184.548 115.855 184.664 115.669C184.897 115.273 188.669 114.084 191.464 113.501C193.792 113.012 200.405 113.012 202.291 113.501C206.599 114.643 208.835 116.974 209.417 120.983C209.533 121.893 209.65 127.65 209.65 134.107V145.575H202.734L202.478 144.386C202.315 143.734 202.198 142.965 202.198 142.638C202.198 141.916 201.733 141.916 201.034 142.662C200.126 143.641 198.007 144.923 196.377 145.529C195.213 145.972 194.281 146.111 192.302 146.181C190.905 146.205 189.368 146.181 188.925 146.065ZM198.053 139.235C198.775 138.909 199.846 138.186 200.429 137.65L201.5 136.648V129.888L200.289 130.051C196.307 130.564 192.605 132.172 191.44 133.897C190.043 135.902 190.299 138.233 192.022 139.468C192.698 139.958 192.977 140.004 194.747 139.934C196.284 139.864 197.029 139.724 198.053 139.235Z" fill="black"/>
<path d="M247.722 146.041C245.836 145.762 242.576 144.783 240.713 143.944C239.223 143.268 239.2 143.244 239.316 142.498C240.061 137.86 240.248 136.811 240.411 136.624C240.504 136.531 241.202 136.811 241.948 137.254C244.928 139.072 248.025 139.981 251.448 140.051C253.637 140.097 254.173 140.028 255.104 139.585C256.431 138.979 257.037 138.116 257.037 136.811C257.037 134.969 255.57 133.944 251.332 132.825C244.043 130.913 241.645 129.445 240.318 126.065C239.898 124.993 239.735 121.286 240.038 120.051C240.783 117.091 243.321 114.643 246.651 113.641C248.7 113.035 254.848 112.965 257.316 113.524C259.342 113.991 262.463 115.016 262.626 115.273C262.695 115.389 262.649 116.158 262.509 116.997C262.393 117.837 262.16 119.235 262.043 120.098C261.904 120.96 261.717 121.753 261.601 121.869C261.485 121.986 260.832 121.776 260.157 121.426C256.408 119.538 251.332 118.676 249.166 119.585C247.28 120.354 246.768 122.335 248.095 123.617C248.747 124.27 252.193 125.762 253.032 125.762C253.567 125.762 257.922 127.161 259.109 127.697C262.952 129.468 264.605 131.962 264.605 136.065C264.605 141.076 262.113 144.363 257.27 145.692C255.616 146.135 249.818 146.344 247.722 146.041Z" fill="black"/>
<path d="M281.72 146.111C280.369 145.972 277.715 145.156 276.364 144.456C274.525 143.547 271.823 140.657 270.822 138.582C269.378 135.575 269.146 134.317 269.146 129.841C269.169 125.366 269.425 123.944 270.776 121.17C272.708 117.231 275.899 114.643 280.23 113.524C282.232 112.988 287.239 113.012 289.288 113.524C290.871 113.944 294.015 115.296 294.248 115.669C294.411 115.949 293.479 122.545 293.223 122.825C293.13 122.941 292.758 122.802 292.385 122.569C290.313 121.077 287.518 120.168 285.12 120.168C280.16 120.168 277.179 123.757 277.179 129.748C277.179 134.317 279.019 137.417 282.465 138.745C285.329 139.841 289.265 139.118 292.432 136.951L293.479 136.228L293.689 136.764C294.131 137.836 294.737 142.801 294.481 143.221C294.131 143.78 291.5 145.062 289.591 145.575C287.914 146.041 283.606 146.344 281.72 146.111Z" fill="black"/>
<path d="M310.478 146.065C308.918 145.762 306.589 144.923 305.611 144.317C304.098 143.361 302.142 141.379 301.28 139.958C299.208 136.554 298.509 133.617 298.672 128.909C298.789 125.179 299.115 123.711 300.489 120.96C302.188 117.51 305.122 114.946 308.732 113.757C310.315 113.245 310.991 113.151 313.622 113.151C316.253 113.151 316.882 113.221 318.465 113.734C323.146 115.296 326.383 118.722 327.966 123.897C328.455 125.436 328.525 126.135 328.525 129.608C328.525 133.058 328.455 133.804 327.989 135.435C326.546 140.4 323.332 143.92 318.861 145.459C317.464 145.948 316.556 146.088 314.32 146.158C312.784 146.205 311.06 146.158 310.478 146.065ZM315.857 139.258C317.883 138.745 319.839 136.018 320.491 132.825C320.91 130.797 320.678 126.974 320.049 124.993C319.047 121.939 316.742 119.958 313.925 119.748C312.108 119.608 309.873 120.517 308.872 121.776C307.195 123.897 306.636 125.902 306.636 129.725C306.636 132.149 306.729 132.918 307.172 134.27C308.685 138.745 311.48 140.354 315.857 139.258Z" fill="black"/>
<path d="M381.035 146.135C379.335 145.902 376.447 144.853 375.213 144.013C370.533 140.843 368.391 135.599 368.763 128.326C368.949 125.016 369.345 123.478 370.696 120.657C372.372 117.231 374.98 114.946 378.613 113.757C380.15 113.245 380.895 113.151 383.247 113.151C387.718 113.128 390.396 114.154 392.981 116.881C395.682 119.771 396.939 123.314 396.962 128.209L396.986 131.24L386.926 131.31L376.843 131.356V132.195C376.843 133.408 377.449 135.319 378.241 136.554C380.616 140.331 386.251 141.076 391.84 138.349C392.887 137.86 394.215 137.16 394.82 136.787C395.426 136.438 395.984 136.228 396.078 136.298C396.31 136.531 397.079 142.079 396.939 142.452C396.753 142.965 392.305 145.062 390.349 145.599C388.626 146.065 382.968 146.391 381.035 146.135ZM389.068 125.995C389.278 125.645 388.766 123.571 388.137 122.149C387.532 120.797 386.134 119.398 385.017 119.025C381.477 117.86 378.194 120.191 377.099 124.666C376.96 125.272 376.89 125.878 376.96 126.018C377.169 126.321 388.882 126.298 389.068 125.995Z" fill="black"/>
<path d="M135.042 139.672C134.972 139.465 134.902 131.6 134.902 122.172C134.902 103.458 134.832 104.53 136.206 103.611C136.509 103.409 137.673 102.512 138.791 101.597C139.932 100.654 141.329 99.4992 141.957 98.9753L143.052 98.0775V145.498H135.042V139.672Z" fill="black"/>
<path d="M217.334 113.641H220.711C224.017 113.641 224.087 113.641 224.204 114.177C224.25 114.457 224.483 115.692 224.693 116.904C224.879 118.116 225.112 119.189 225.182 119.305C225.251 119.422 225.647 119.002 226.066 118.373C226.951 117.067 229.373 114.736 230.444 114.2C231.981 113.384 234.892 112.825 235.241 113.268C235.404 113.478 236.289 118.606 236.499 120.517C236.545 120.89 236.359 121.007 235.497 121.17C231.818 121.846 229.233 123.198 226.975 125.599L225.484 127.161L225.438 136.321L225.368 145.459L221.363 145.529L217.334 145.575V113.641Z" fill="black"/>
</svg>
