<svg width="500" height="255" viewBox="0 0 500 255" fill="none" xmlns="http://www.w3.org/2000/svg">
<path d="M76 141.479C76 144.607 75.186 146.921 73.5573 148.417C71.6575 150.141 68.4445 151 63.921 151C59.6234 151 56.479 149.983 54.489 147.94C52.9965 146.443 52.25 144.585 52.25 142.363V131.48H61.682V142.489C61.682 142.993 61.8803 143.391 62.2781 143.686C62.6758 143.983 63.156 144.132 63.7186 144.132C64.3743 144.132 64.8659 143.995 65.1937 143.722C65.521 143.448 65.6859 143.038 65.6859 142.491V136.82C65.6859 135.501 65.3896 134.452 64.7996 133.679C63.2068 132.041 61.5017 130.24 59.6825 128.282C56.682 125.108 55.0002 123.294 54.6359 122.839C53.0449 120.8 52.25 118.895 52.25 117.126V111.752C52.25 108.715 53.1088 106.469 54.8282 105.017C56.8188 103.341 59.9853 102.5 64.3284 102.5C68.0831 102.5 70.8877 103.341 72.7421 105.017C74.326 106.469 75.1179 108.443 75.1179 110.935V119.165H65.6859V110.333C65.6859 109.876 65.5318 109.522 65.2254 109.272C64.919 109.023 64.5296 108.894 64.0584 108.894C63.4916 108.894 63.0682 109.009 62.7851 109.238C62.502 109.466 62.3605 109.831 62.3605 110.333V114.783C62.3605 116.337 63.0419 117.842 64.4066 119.303C66.3159 121.253 68.1118 123.09 69.7948 124.812C71.9759 127.08 73.3853 128.668 74.0232 129.575C75.3407 131.434 76 133.383 76 135.425V141.479Z" fill="#0093FF"/>
<path fill-rule="evenodd" clip-rule="evenodd" d="M97.088 149.432C99.3617 148.113 100.5 146.023 100.5 143.157L100.499 135.31H91.0125V143.033C91.0125 143.667 90.8756 144.152 90.6034 144.491C90.3307 144.827 89.921 144.996 89.375 144.996C88.829 144.996 88.4199 144.827 88.146 144.489C87.8732 144.149 87.7369 143.664 87.7369 143.03V134.08H100.499V119.346C100.499 116.436 99.3617 114.342 97.0874 113.068C95.2204 112.024 92.6278 111.5 89.3065 111.5C85.9378 111.5 83.3223 112.091 81.4571 113.273C79.3186 114.637 78.25 116.777 78.25 119.686V142.815C78.25 145.771 79.3421 147.931 81.5268 149.296C83.3452 150.435 85.9384 151 89.3071 151C92.6741 151 95.2673 150.478 97.088 149.432ZM91.0125 119.402V128.216H87.7363V119.402C87.7363 118.77 87.8961 118.295 88.2138 117.979C88.5328 117.662 88.9196 117.504 89.375 117.504C89.9204 117.504 90.3301 117.662 90.6034 117.979C90.8755 118.295 91.0125 118.77 91.0125 119.402Z" fill="#0093FF"/>
<path fill-rule="evenodd" clip-rule="evenodd" d="M116.605 150.456H124.999V119.685C124.999 116.684 123.998 114.525 121.996 113.206C120.313 112.069 117.788 111.5 114.421 111.5C111.052 111.5 108.437 112.024 106.572 113.068C104.252 114.389 103.092 116.48 103.092 119.346V127.056H112.306V119.415C112.306 118.779 112.462 118.299 112.774 117.981C113.085 117.664 113.464 117.504 113.91 117.504C114.444 117.504 114.845 117.664 115.113 117.981C115.379 118.3 115.513 118.779 115.513 119.415V125.145C115.513 125.964 113.386 127.395 109.132 129.444C104.877 131.488 102.75 134.06 102.75 137.152V144.929C102.75 146.978 103.341 148.502 104.525 149.501C105.707 150.502 107.71 151 110.531 151C112.26 151 113.59 150.877 114.524 150.627C115.456 150.377 116.15 149.819 116.605 148.955V150.456ZM115.513 133.265V143.224C115.513 143.816 115.365 144.261 115.069 144.554C114.773 144.851 114.397 144.997 113.943 144.997C113.397 144.997 112.975 144.851 112.68 144.554C112.384 144.261 112.237 143.816 112.237 143.224V136.197C112.237 135.471 112.464 134.879 112.92 134.425C113.374 133.968 114.238 133.582 115.513 133.265Z" fill="#0093FF"/>
<path d="M149.75 127.823H140.263V119.368C140.263 118.177 139.718 117.577 138.625 117.577C138.079 117.577 137.67 117.715 137.397 117.99C137.124 118.263 136.987 118.696 136.987 119.288V150.5H127.5V111.772H136.987V113.054C137.533 112.603 138.318 112.232 139.342 111.939C140.365 111.647 141.536 111.5 142.857 111.5C144.859 111.5 146.508 112.036 147.805 113.103C149.102 114.175 149.75 115.485 149.75 117.032V127.823Z" fill="#0093FF"/>
<path d="M173.75 143.157C173.75 146.067 172.658 148.16 170.474 149.432C168.699 150.478 166.129 151 162.762 151C159.349 151 156.71 150.435 154.845 149.296C152.615 147.931 151.5 145.771 151.5 142.815V119.686C151.5 116.777 152.615 114.637 154.845 113.273C156.757 112.091 159.394 111.5 162.762 111.5C166.038 111.5 168.586 112.024 170.407 113.068C172.635 114.342 173.75 116.436 173.75 119.346V128.897H164.263V119.414C164.263 118.779 164.127 118.3 163.854 117.981C163.582 117.664 163.172 117.504 162.625 117.504C162.171 117.504 161.784 117.662 161.465 117.981C161.146 118.298 160.987 118.776 160.987 119.41V143.024C160.987 143.658 161.124 144.146 161.397 144.488C161.669 144.827 162.08 144.997 162.625 144.997C163.171 144.997 163.581 144.828 163.854 144.49C164.127 144.15 164.263 143.664 164.263 143.03V133.74H173.749L173.75 143.157Z" fill="#0093FF"/>
<path d="M198 150.5H188.513V119.326C188.513 118.144 187.967 117.553 186.875 117.553C186.329 117.553 185.919 117.69 185.646 117.963C185.373 118.235 185.237 118.668 185.237 119.259V150.5H175.75V102.75H185.237V112.981C185.827 112.482 186.612 112.119 187.591 111.892C188.569 111.665 189.741 111.551 191.107 111.551C193.108 111.551 194.758 112.075 196.055 113.118C197.352 114.166 198 115.438 198 116.939V150.5Z" fill="#0093FF"/>
<path d="M233 150.5H212.5V102.75H232.864V108.821H222.92V121.715H231.91V127.58H222.92V144.429H233V150.5Z" fill="#0093FF"/>
<path d="M257 150.499H247.512V119.358C247.512 118.171 246.966 117.577 245.874 117.577C245.328 117.577 244.918 117.722 244.645 118.006C244.372 118.29 244.236 118.738 244.236 119.355V150.5H234.75V111.772H244.236V113.07C244.782 112.616 245.566 112.241 246.592 111.944C247.615 111.648 248.785 111.5 250.106 111.5C252.108 111.5 253.758 112.036 255.054 113.103C256.351 114.175 257 115.485 257 117.031V150.499Z" fill="#0093FF"/>
<path fill-rule="evenodd" clip-rule="evenodd" d="M280.146 155.486C280.715 154.533 280.999 152.719 280.999 150.044L281 112.021H272.809L271.582 113.451C271.262 113.314 270.718 112.973 269.943 112.431C269.032 111.977 267.828 111.75 266.326 111.75C263.595 111.75 261.569 112.453 260.25 113.858C259.25 114.947 258.75 116.353 258.75 118.075V145.759C258.75 147.254 259.398 148.525 260.693 149.567C261.99 150.61 263.639 151.13 265.643 151.13C267.008 151.13 268.179 151.006 269.157 150.753C270.137 150.501 270.922 150.145 271.512 149.686C271.512 150.713 271.422 151.406 271.238 151.765C270.784 152.655 269.761 153.105 268.167 153.105H260.454V158.75H269.943C271.671 158.75 273.139 158.693 274.345 158.579C275.55 158.467 276.54 158.229 277.315 157.865C278.633 157.229 279.577 156.437 280.146 155.486ZM271.512 119.499V143.654C271.512 144.197 271.375 144.616 271.103 144.908C270.83 145.204 270.421 145.349 269.875 145.349C268.783 145.349 268.236 144.761 268.236 143.585V119.499C268.236 118.323 268.784 117.735 269.875 117.735C270.42 117.735 270.83 117.883 271.103 118.175C271.375 118.471 271.512 118.911 271.512 119.499Z" fill="#0093FF"/>
<path d="M292.75 150.5H283.25V111.75H292.75V150.5Z" fill="#0093FF"/>
<path d="M316.75 150.499H307.263V119.358C307.263 118.171 306.718 117.577 305.625 117.577C305.08 117.577 304.669 117.722 304.397 118.006C304.123 118.29 303.987 118.738 303.987 119.355V150.5H294.5V111.772H303.987V113.07C304.532 112.616 305.317 112.241 306.342 111.944C307.366 111.648 308.535 111.5 309.856 111.5C311.86 111.5 313.507 112.036 314.804 113.103C316.101 114.175 316.749 115.485 316.749 117.031L316.75 150.499Z" fill="#0093FF"/>
<path fill-rule="evenodd" clip-rule="evenodd" d="M337.586 149.432C339.86 148.113 340.999 146.023 340.999 143.157L341 135.31H331.512V143.033C331.512 143.667 331.376 144.152 331.103 144.491C330.831 144.827 330.42 144.996 329.875 144.996C329.328 144.996 328.919 144.827 328.645 144.489C328.372 144.149 328.236 143.664 328.236 143.03V134.08H340.999V119.346C340.999 116.436 339.86 114.342 337.586 113.068C335.72 112.024 333.127 111.5 329.807 111.5C326.436 111.5 323.821 112.091 321.955 113.273C319.817 114.637 318.75 116.777 318.75 119.686V142.815C318.75 145.771 319.84 147.931 322.026 149.296C323.845 150.435 326.436 151 329.807 151C333.172 151 335.765 150.478 337.586 149.432ZM331.511 119.402V128.216H328.235V119.402C328.235 118.77 328.394 118.295 328.713 117.979C329.03 117.662 329.418 117.504 329.874 117.504C330.42 117.504 330.831 117.662 331.103 117.979C331.375 118.295 331.511 118.77 331.511 119.402Z" fill="#0093FF"/>
<path d="M294.25 103.519V101.552H292.877C292.716 100.81 292.405 100.131 291.971 99.5393L292.944 98.5725L291.548 97.1816L290.542 98.1864C289.94 97.8009 289.254 97.535 288.52 97.4154V96H286.549V97.4618C285.833 97.6182 285.169 97.9151 284.592 98.3256L283.57 97.3071L282.18 98.7022L283.222 99.7416C282.831 100.332 282.559 101.005 282.43 101.731H281V103.699H282.442C282.586 104.43 282.878 105.104 283.287 105.696L282.305 106.677L283.698 108.067L284.683 107.082C285.289 107.491 285.984 107.775 286.728 107.907V109.25H288.695V107.895C289.451 107.746 290.144 107.438 290.746 107.011L291.676 107.942L293.071 106.55L292.116 105.598C292.521 104.982 292.8 104.279 292.921 103.519H294.25Z" fill="#80C100"/>
<path d="M375.25 150.5H355.5V102.75H365.989V144.428H375.25V150.5Z" fill="#80C100"/>
<path fill-rule="evenodd" clip-rule="evenodd" d="M390.603 150.456H398.999V119.685C398.999 116.684 397.996 114.525 395.995 113.206C394.312 112.069 391.787 111.5 388.421 111.5C385.052 111.5 382.436 112.024 380.571 113.068C378.25 114.389 377.091 116.48 377.091 119.346V127.056H386.305V119.415C386.305 118.779 386.46 118.299 386.772 117.981C387.084 117.664 387.463 117.504 387.908 117.504C388.444 117.504 388.843 117.664 389.111 117.981C389.378 118.3 389.513 118.779 389.513 119.415V125.145C389.513 125.964 387.386 127.395 383.131 129.444C378.877 131.488 376.75 134.06 376.75 137.152V144.929C376.75 146.978 377.341 148.502 378.524 149.501C379.705 150.502 381.709 151 384.53 151C386.259 151 387.589 150.877 388.523 150.627C389.455 150.377 390.148 149.819 390.603 148.955V150.456ZM389.513 133.265V143.224C389.513 143.816 389.363 144.261 389.069 144.554C388.773 144.851 388.397 144.997 387.944 144.997C387.397 144.997 386.975 144.851 386.681 144.554C386.384 144.261 386.237 143.816 386.237 143.224V136.197C386.237 135.471 386.464 134.879 386.92 134.425C387.373 133.968 388.239 133.582 389.513 133.265Z" fill="#80C100"/>
<path d="M423.5 150.499H414.013V119.358C414.013 118.171 413.466 117.577 412.374 117.577C411.83 117.577 411.418 117.722 411.145 118.006C410.873 118.29 410.737 118.738 410.737 119.355V150.5H401.25V111.772H410.737V113.07C411.284 112.616 412.066 112.241 413.092 111.944C414.114 111.648 415.285 111.5 416.605 111.5C418.608 111.5 420.257 112.036 421.553 113.103C422.85 114.175 423.499 115.485 423.499 117.031L423.5 150.499Z" fill="#80C100"/>
<path fill-rule="evenodd" clip-rule="evenodd" d="M440.584 150.456H447.75V102.75H438.263V112.973C437.717 112.564 436.921 112.225 435.873 111.952C434.828 111.679 433.667 111.543 432.393 111.543C430.347 111.543 428.683 112.066 427.411 113.109C426.135 114.156 425.5 115.427 425.5 116.926V144.664C425.5 146.346 426.26 147.822 427.787 149.094C429.31 150.365 431.46 151 434.235 151C435.873 151 437.17 150.773 438.127 150.32C438.309 150.229 438.854 149.842 439.765 149.162L440.584 150.456ZM438.263 119.244V143.231C438.263 143.823 438.127 144.267 437.854 144.56C437.581 144.857 437.171 145.003 436.624 145.003C436.079 145.003 435.669 144.857 435.396 144.56C435.123 144.267 434.986 143.823 434.986 143.231V119.31C434.986 118.129 435.534 117.54 436.624 117.54C437.124 117.54 437.523 117.689 437.82 117.981C438.114 118.279 438.263 118.698 438.263 119.244Z" fill="#80C100"/>
</svg>
