<svg width="500" height="255" viewBox="0 0 500 255" fill="none" xmlns="http://www.w3.org/2000/svg">
<path d="M143.144 149.315C142.687 148.858 142.325 148.316 142.078 147.72C141.831 147.123 141.703 146.484 141.703 145.838C141.703 145.193 141.831 144.553 142.078 143.957C142.325 143.36 142.687 142.818 143.144 142.362C143.207 142.299 143.266 142.234 143.329 142.176C143.277 142.224 143.225 142.273 143.175 142.323C141.341 144.153 138.856 145.18 136.265 145.18C133.674 145.18 131.188 144.153 129.354 142.323C128.428 141.421 127.184 140.921 125.892 140.93C124.599 140.939 123.362 141.456 122.448 142.37C121.535 143.284 121.017 144.521 121.009 145.814C121 147.106 121.501 148.35 122.403 149.276C126.027 152.891 130.919 154.947 136.037 155.007C141.155 155.066 146.094 153.125 149.802 149.595C148.859 150.393 147.651 150.806 146.418 150.755C145.184 150.703 144.016 150.189 143.144 149.315Z" fill="#271964"/>
<path d="M125.875 150.707C125.231 150.707 124.593 150.58 123.997 150.333C123.402 150.086 122.861 149.724 122.405 149.268C118.735 145.588 116.674 140.603 116.674 135.406C116.674 130.208 118.735 125.223 122.405 121.543C123.328 120.621 124.578 120.104 125.882 120.104C127.185 120.104 128.436 120.622 129.358 121.544C130.279 122.466 130.797 123.716 130.798 125.02C130.798 126.324 130.28 127.574 129.359 128.496C127.528 130.33 126.5 132.815 126.5 135.406C126.5 137.997 127.528 140.482 129.359 142.315C130.045 143.003 130.513 143.878 130.702 144.831C130.892 145.784 130.795 146.772 130.424 147.67C130.053 148.568 129.424 149.336 128.617 149.877C127.809 150.418 126.86 150.707 125.888 150.709L125.875 150.707Z" fill="#F44293"/>
<path d="M125.875 129.935C124.903 129.934 123.954 129.644 123.147 129.104C122.339 128.563 121.71 127.795 121.339 126.897C120.968 125.999 120.871 125.011 121.06 124.059C121.25 123.106 121.718 122.23 122.405 121.543C124.225 119.722 126.386 118.278 128.765 117.293C131.143 116.308 133.692 115.801 136.267 115.801C138.841 115.801 141.39 116.308 143.769 117.293C146.147 118.278 148.308 119.722 150.129 121.543C150.597 121.993 150.97 122.532 151.229 123.128C151.487 123.724 151.625 124.365 151.635 125.014C151.644 125.663 151.525 126.308 151.283 126.911C151.042 127.514 150.684 128.063 150.229 128.527C149.774 128.991 149.232 129.36 148.634 129.613C148.036 129.866 147.393 129.998 146.744 130.001C146.095 130.004 145.451 129.879 144.85 129.632C144.249 129.385 143.704 129.022 143.244 128.563L143.175 128.494C141.343 126.662 138.857 125.633 136.266 125.633C133.674 125.633 131.189 126.662 129.356 128.494C128.9 128.952 128.357 129.316 127.76 129.563C127.162 129.81 126.522 129.937 125.875 129.935Z" fill="#3ED3F6"/>
<path d="M150.098 121.588C149.176 120.666 147.926 120.148 146.622 120.149C145.318 120.149 144.068 120.667 143.146 121.589C142.224 122.51 141.706 123.761 141.706 125.065C141.706 126.368 142.224 127.619 143.145 128.541C144.943 130.342 145.968 132.772 146.003 135.317C146.038 137.862 145.079 140.32 143.331 142.169C144.273 141.268 145.534 140.778 146.837 140.807C148.141 140.836 149.379 141.381 150.28 142.323C151.182 143.264 151.672 144.525 151.644 145.829C151.616 147.132 151.071 148.37 150.13 149.272C150.022 149.38 149.913 149.486 149.799 149.592C149.902 149.504 150 149.415 150.096 149.319C153.77 145.639 155.833 140.653 155.833 135.454C155.834 130.254 153.771 125.268 150.098 121.588Z" fill="#FFCD00"/>
<path d="M150.124 142.319C149.228 141.423 148.021 140.907 146.754 140.88C145.488 140.852 144.259 141.314 143.325 142.171C143.264 142.236 143.204 142.3 143.139 142.356C142.242 143.254 141.727 144.463 141.701 145.732C141.675 147 142.141 148.23 143 149.163C143.86 150.096 145.047 150.661 146.314 150.739C147.58 150.817 148.828 150.403 149.796 149.582L150.124 149.263C151.044 148.342 151.56 147.093 151.56 145.791C151.56 144.489 151.044 143.24 150.124 142.319Z" fill="#271964"/>
<path d="M221.459 155C218.885 155.005 216.335 154.501 213.956 153.517C211.576 152.534 209.415 151.09 207.595 149.269C207.139 148.812 206.777 148.27 206.53 147.673C206.284 147.076 206.157 146.437 206.157 145.791C206.158 145.146 206.285 144.506 206.532 143.91C206.78 143.314 207.142 142.772 207.599 142.315C208.056 141.859 208.598 141.497 209.195 141.25C209.791 141.004 210.431 140.877 211.076 140.877C212.38 140.878 213.631 141.397 214.552 142.319C216.387 144.149 218.872 145.177 221.463 145.177C224.054 145.177 226.539 144.149 228.373 142.319C228.824 141.851 229.363 141.477 229.958 141.219C230.554 140.96 231.196 140.822 231.845 140.813C232.495 140.804 233.14 140.923 233.743 141.165C234.346 141.406 234.895 141.765 235.358 142.22C235.822 142.675 236.191 143.217 236.444 143.815C236.697 144.414 236.828 145.056 236.831 145.706C236.835 146.355 236.709 146.999 236.462 147.6C236.215 148.2 235.851 148.746 235.391 149.205L235.325 149.272C233.505 151.094 231.343 152.537 228.964 153.52C226.584 154.503 224.034 155.006 221.459 155Z" fill="#3ED3F6"/>
<path d="M211.075 150.707C210.43 150.707 209.792 150.58 209.196 150.333C208.601 150.087 208.06 149.725 207.605 149.269C203.934 145.589 201.873 140.603 201.873 135.406C201.873 130.208 203.934 125.223 207.605 121.543C208.531 120.642 209.775 120.141 211.067 120.15C212.36 120.159 213.597 120.676 214.511 121.59C215.424 122.504 215.941 123.742 215.95 125.034C215.958 126.326 215.458 127.57 214.556 128.496C212.726 130.33 211.699 132.815 211.699 135.406C211.699 137.996 212.726 140.481 214.556 142.315C215.242 143.003 215.71 143.878 215.9 144.831C216.089 145.784 215.993 146.771 215.622 147.669C215.251 148.567 214.622 149.335 213.815 149.876C213.008 150.417 212.059 150.707 211.088 150.709L211.075 150.707Z" fill="#FFCD00"/>
<path d="M211.078 129.935C210.107 129.934 209.157 129.644 208.35 129.104C207.542 128.563 206.913 127.795 206.542 126.897C206.171 125.999 206.074 125.011 206.264 124.059C206.453 123.106 206.921 122.23 207.608 121.543C209.428 119.722 211.59 118.278 213.968 117.293C216.346 116.308 218.896 115.801 221.47 115.801C224.044 115.801 226.594 116.308 228.972 117.293C231.35 118.278 233.511 119.722 235.332 121.543C236.253 122.465 236.771 123.716 236.771 125.02C236.77 126.324 236.252 127.574 235.33 128.496C234.407 129.418 233.157 129.935 231.853 129.935C230.549 129.935 229.299 129.416 228.377 128.494C226.544 126.662 224.058 125.633 221.466 125.633C218.875 125.633 216.389 126.662 214.556 128.494C214.1 128.952 213.558 129.315 212.961 129.563C212.364 129.81 211.724 129.936 211.078 129.935Z" fill="#F44293"/>
<path d="M196.838 131.422V153.934H185.839V133.036C185.932 132.162 185.833 131.278 185.55 130.446C185.266 129.615 184.805 128.855 184.198 128.219C183.59 127.584 182.852 127.089 182.034 126.768C181.215 126.448 180.337 126.309 179.46 126.363C175.427 126.363 172.64 128.708 172.64 133.916V153.934H161.642V117.269H172.64V120.715C173.911 119.194 175.523 117.996 177.346 117.218C179.169 116.441 181.15 116.106 183.127 116.242C190.533 116.242 196.838 121.524 196.838 131.422Z" fill="#271964"/>
<path d="M265.327 116.537V129.001C260.782 128.259 254.328 130.102 254.328 137.356V153.929H243.329V117.271H254.322V123.797C255.793 118.882 260.706 116.537 265.327 116.537Z" fill="#271964"/>
<path d="M306.978 117.269V153.932H295.977V150.488C294.601 151.997 292.908 153.181 291.018 153.955C289.129 154.729 287.091 155.072 285.052 154.961C275.446 154.961 267.527 146.535 267.527 135.602C267.527 124.668 275.444 116.244 285.052 116.244C287.091 116.134 289.129 116.478 291.018 117.252C292.907 118.026 294.601 119.21 295.977 120.719V117.271L306.978 117.269ZM295.977 135.607C295.934 133.891 295.386 132.226 294.401 130.82C293.416 129.414 292.039 128.33 290.441 127.703C288.843 127.076 287.096 126.934 285.418 127.295C283.74 127.656 282.205 128.504 281.007 129.733C279.808 130.962 278.999 132.516 278.679 134.203C278.36 135.889 278.545 137.633 279.212 139.214C279.878 140.796 280.996 142.146 282.426 143.096C283.856 144.045 285.534 144.552 287.251 144.553C288.43 144.606 289.608 144.409 290.706 143.975C291.804 143.541 292.798 142.88 293.622 142.034C294.447 141.188 295.082 140.178 295.488 139.069C295.894 137.96 296.061 136.778 295.977 135.6V135.607Z" fill="#271964"/>
<path d="M367.104 117.271L355.375 153.934H345.103L339.235 134.354L333.368 153.934H323.103L311.373 117.271H323.103L328.389 136.935L334.109 117.275H344.371L350.095 136.935L355.381 117.275L367.104 117.271Z" fill="#271964"/>
<path d="M371.504 100.405H382.502V153.932H371.504V100.405Z" fill="#271964"/>
</svg>
