<svg width="500" height="255" viewBox="0 0 500 255" fill="none" xmlns="http://www.w3.org/2000/svg">
<path d="M98.9074 153.99C98.6397 154.051 98.3601 154.03 98.1041 153.931C97.8482 153.832 97.6276 153.659 97.4706 153.434C97.3136 153.209 97.2273 152.942 97.2228 152.668C97.2183 152.393 97.2958 152.124 97.4453 151.894L113.335 105.923C113.444 105.493 113.691 105.11 114.036 104.831C114.382 104.553 114.808 104.394 115.252 104.378L118.534 104.061C119.914 103.923 120.493 104.805 119.996 106.157L104.107 152.059C103.995 152.497 103.749 152.888 103.402 153.178C103.056 153.467 102.627 153.641 102.176 153.673L98.9074 153.99Z" fill="#1FB6FF"/>
<path d="M142.176 126.818L125.514 110.143L123.156 116.957L134.659 128.474L115.004 140.515L111.666 150.169L141.541 131.88C141.963 131.628 142.321 131.282 142.59 130.871C142.858 130.459 143.029 129.991 143.09 129.504C143.151 129.016 143.101 128.521 142.942 128.056C142.784 127.591 142.522 127.167 142.176 126.818Z" fill="#5D5D5D"/>
<path d="M94.4393 140.873L83.4052 129.743L102.177 118.405L105.487 108.75L76.5226 126.267C76.0973 126.525 75.7373 126.878 75.4704 127.298C75.2035 127.718 75.0369 128.194 74.9835 128.689C74.9302 129.184 74.9915 129.684 75.1627 130.152C75.334 130.619 75.6105 131.041 75.9709 131.384L92.067 147.728L94.4393 140.873Z" fill="#5D5D5D"/>
<path d="M153.624 143.301C153.141 141.783 154.176 140.611 155.831 140.197L157.9 139.715C158.189 139.606 158.5 139.564 158.808 139.592C159.116 139.62 159.413 139.718 159.678 139.877C159.943 140.036 160.169 140.253 160.339 140.511C160.509 140.77 160.618 141.063 160.658 141.37C161.831 144.335 165.141 146.666 169.955 146.666C176.161 146.666 180.423 143.632 181.182 139.508C181.803 135.853 179.182 133.591 175.541 132.142L168.865 129.729C160.258 126.694 159.017 121.26 159.845 116.777C161.224 108.502 169.499 103.343 177.775 103.343C185.347 103.343 190.037 106.998 191.278 112.433C191.365 112.779 191.378 113.139 191.316 113.491C191.255 113.843 191.12 114.177 190.922 114.474C190.723 114.77 190.464 115.022 190.162 115.212C189.86 115.402 189.521 115.526 189.168 115.577L187.237 116.129C186.944 116.255 186.627 116.312 186.309 116.297C185.992 116.282 185.681 116.195 185.402 116.042C185.123 115.889 184.882 115.674 184.698 115.415C184.514 115.155 184.392 114.857 184.34 114.543C183.444 111.371 180.685 109.853 176.699 109.853C172.217 109.853 167.886 112.336 167.196 116.598C166.851 118.598 166.989 121.219 172.093 123.274L178.837 125.963C186.478 128.515 189.306 133.88 188.409 139.053C186.823 147.728 178.975 153.107 168.92 153.107C160.369 153.08 155.072 148.942 153.624 143.301Z" fill="#5D5D5D"/>
<path d="M194.878 149.838L200.105 120.295C200.175 119.575 200.526 118.911 201.08 118.446C201.635 117.982 202.35 117.754 203.071 117.812H205.14C205.462 117.759 205.792 117.791 206.098 117.906C206.404 118.02 206.674 118.211 206.883 118.462C207.092 118.713 207.232 119.014 207.289 119.335C207.346 119.657 207.319 119.987 207.209 120.295L201.981 149.838C201.911 150.558 201.561 151.222 201.006 151.686C200.452 152.151 199.737 152.379 199.016 152.321H196.947C196.625 152.374 196.295 152.341 195.989 152.227C195.683 152.113 195.412 151.921 195.203 151.671C194.994 151.42 194.854 151.119 194.797 150.798C194.74 150.476 194.768 150.146 194.878 149.838ZM201.223 106.86C201.447 105.544 202.118 104.345 203.123 103.466C204.128 102.587 205.405 102.081 206.74 102.033C207.353 101.992 207.967 102.096 208.533 102.336C209.099 102.577 209.6 102.947 209.996 103.417C210.392 103.887 210.672 104.444 210.813 105.042C210.954 105.64 210.953 106.263 210.809 106.86C210.532 108.177 209.814 109.36 208.773 110.213C207.732 111.066 206.43 111.538 205.085 111.55C204.492 111.59 203.899 111.488 203.354 111.252C202.808 111.017 202.327 110.655 201.95 110.197C201.572 109.738 201.309 109.197 201.183 108.616C201.057 108.036 201.07 107.434 201.223 106.86Z" fill="#5D5D5D"/>
<path d="M215.815 141.37L218.987 123.329H214.849C214.674 123.348 214.498 123.322 214.335 123.254C214.173 123.186 214.03 123.079 213.92 122.941C213.81 122.804 213.737 122.641 213.706 122.468C213.676 122.294 213.689 122.116 213.746 121.95L214.16 119.26C214.173 119.059 214.228 118.863 214.319 118.684C214.411 118.504 214.538 118.345 214.692 118.216C214.847 118.088 215.026 117.991 215.219 117.934C215.412 117.876 215.615 117.858 215.815 117.881H220.091L222.78 109.964C222.908 109.386 223.232 108.871 223.698 108.507C224.163 108.142 224.741 107.95 225.332 107.964H226.711C226.977 107.939 227.246 107.979 227.493 108.082C227.74 108.186 227.957 108.348 228.126 108.555C228.295 108.763 228.411 109.008 228.462 109.271C228.514 109.533 228.5 109.805 228.421 110.06L227.042 117.839H236.476C236.657 117.807 236.842 117.823 237.014 117.885C237.187 117.947 237.34 118.053 237.458 118.193C237.577 118.332 237.657 118.5 237.69 118.68C237.724 118.86 237.709 119.046 237.649 119.219L237.235 121.908C237.168 122.31 236.955 122.673 236.636 122.927C236.318 123.182 235.918 123.31 235.511 123.288H226.146L222.78 141.784C222.16 145.508 223.677 146.956 225.884 146.956C226.991 147.007 228.08 146.659 228.953 145.976C229.826 145.293 230.425 144.319 230.642 143.232C230.675 142.796 230.675 142.358 230.642 141.921C230.609 141.712 230.625 141.497 230.688 141.294C230.751 141.091 230.861 140.906 231.008 140.752C231.155 140.599 231.335 140.481 231.535 140.409C231.734 140.337 231.948 140.311 232.159 140.335H235.332C235.507 140.309 235.686 140.321 235.856 140.372C236.026 140.423 236.183 140.511 236.315 140.63C236.447 140.748 236.551 140.895 236.619 141.059C236.688 141.222 236.719 141.399 236.711 141.577C236.736 142.43 236.69 143.283 236.573 144.128C235.607 149.301 231.194 153.08 224.587 153.08C219.125 153.08 214.229 150.252 215.815 141.37Z" fill="#5D5D5D"/>
<path d="M241.718 135.163C242.708 130.088 245.423 125.512 249.402 122.211C253.382 118.911 258.381 117.088 263.551 117.053C272.158 117.053 279.192 122.226 278.227 133.246C278.226 133.599 278.152 133.947 278.011 134.27C277.869 134.593 277.662 134.883 277.403 135.123C277.145 135.362 276.839 135.546 276.506 135.662C276.173 135.778 275.82 135.824 275.468 135.798H248.669C247.359 142.197 251.772 146.832 259.345 146.832C262.815 146.824 266.209 145.818 269.124 143.935C270.503 143.108 271.744 143.177 272.572 144.28L273.055 144.832C273.882 146.004 273.675 147.452 271.813 148.763C267.811 151.604 263.011 153.101 258.103 153.038C245.993 153.08 239.993 145.011 241.718 135.163ZM271.675 130.543C270.986 124.405 266.365 123.108 262.586 123.108C260.028 123.062 257.509 123.734 255.315 125.048C253.12 126.362 251.339 128.266 250.172 130.543H271.675Z" fill="#5D5D5D"/>
<path d="M290.406 146.873L289.923 149.838C289.853 150.558 289.503 151.222 288.948 151.687C288.394 152.151 287.679 152.379 286.958 152.321H284.889C284.567 152.374 284.236 152.342 283.931 152.227C283.625 152.113 283.354 151.922 283.145 151.671C282.936 151.42 282.796 151.119 282.739 150.798C282.682 150.476 282.71 150.146 282.82 149.838L290.737 104.998C290.807 104.278 291.157 103.615 291.712 103.15C292.266 102.686 292.981 102.458 293.702 102.516H295.771C296.091 102.471 296.418 102.509 296.719 102.626C297.021 102.743 297.288 102.934 297.495 103.183C297.702 103.431 297.842 103.728 297.903 104.046C297.963 104.364 297.942 104.691 297.84 104.998L294.599 123.26C296.237 121.293 298.292 119.716 300.616 118.642C302.94 117.568 305.473 117.026 308.033 117.053C318.295 117.053 323.743 125.108 321.95 134.984C320.157 144.859 311.964 153.025 301.702 153.025C297.095 153.08 292.82 151.438 290.406 146.873ZM314.86 135.025C315.964 128.625 312.929 123.177 305.978 123.177C302.679 123.225 299.504 124.442 297.019 126.612C294.533 128.782 292.899 131.763 292.406 135.025C291.302 141.839 295.026 146.873 301.84 146.873C308.654 146.873 313.771 141.508 314.86 135.025Z" fill="#5D5D5D"/>
<path d="M329.053 137.301L332.018 120.294C332.088 119.587 332.428 118.934 332.968 118.472C333.507 118.009 334.205 117.773 334.914 117.812H336.983C337.308 117.758 337.641 117.788 337.951 117.901C338.26 118.013 338.536 118.203 338.75 118.452C338.965 118.701 339.112 119.002 339.177 119.325C339.242 119.647 339.223 119.981 339.121 120.294L336.142 137.232C334.832 144.252 337.659 146.887 341.314 146.887C344.969 146.887 352.473 144.404 354.335 134.004L356.679 120.294C356.749 119.574 357.099 118.911 357.654 118.446C358.209 117.982 358.924 117.754 359.645 117.812H361.714C362.036 117.759 362.366 117.791 362.672 117.906C362.978 118.02 363.248 118.211 363.457 118.462C363.666 118.713 363.806 119.014 363.863 119.335C363.92 119.656 363.892 119.987 363.783 120.294L358.555 149.838C358.485 150.558 358.135 151.222 357.58 151.686C357.026 152.151 356.311 152.379 355.59 152.321H353.521C353.2 152.366 352.874 152.328 352.572 152.211C352.271 152.094 352.004 151.903 351.797 151.654C351.59 151.406 351.45 151.109 351.389 150.791C351.329 150.473 351.35 150.145 351.452 149.838L352.279 145.563C351.065 147.905 349.211 149.854 346.934 151.185C344.656 152.515 342.047 153.172 339.411 153.08C331.742 153.08 326.997 148.114 329.053 137.301Z" fill="#5D5D5D"/>
<path d="M369.135 149.838L377.065 104.998C377.135 104.278 377.485 103.615 378.04 103.15C378.595 102.686 379.31 102.458 380.031 102.516H382.1C382.42 102.471 382.746 102.509 383.048 102.626C383.35 102.743 383.617 102.934 383.824 103.183C384.031 103.431 384.171 103.728 384.231 104.046C384.292 104.364 384.27 104.691 384.169 104.998L376.238 149.838C376.168 150.558 375.818 151.222 375.263 151.687C374.708 152.151 373.993 152.379 373.272 152.321H371.203C370.881 152.374 370.551 152.342 370.245 152.227C369.94 152.113 369.669 151.922 369.46 151.671C369.251 151.42 369.111 151.119 369.054 150.798C368.997 150.476 369.025 150.146 369.135 149.838Z" fill="#5D5D5D"/>
<path d="M394.417 146.873L393.934 149.838C393.864 150.558 393.514 151.222 392.959 151.687C392.404 152.151 391.69 152.379 390.968 152.321H388.9C388.577 152.374 388.247 152.342 387.941 152.227C387.636 152.113 387.365 151.922 387.156 151.671C386.947 151.42 386.807 151.119 386.75 150.798C386.693 150.476 386.721 150.146 386.831 149.838L394.748 104.998C394.818 104.278 395.168 103.615 395.722 103.15C396.277 102.686 396.992 102.458 397.713 102.516H399.782C400.102 102.471 400.429 102.509 400.73 102.626C401.032 102.743 401.299 102.934 401.506 103.183C401.713 103.431 401.853 103.728 401.914 104.046C401.974 104.364 401.952 104.691 401.851 104.998L398.61 123.26C400.248 121.293 402.303 119.716 404.627 118.642C406.951 117.568 409.484 117.026 412.044 117.053C422.305 117.053 427.754 125.108 425.961 134.984C424.167 144.859 415.975 153.025 405.713 153.025C401.106 153.08 396.83 151.438 394.417 146.873ZM418.871 135.025C419.974 128.625 416.94 123.177 409.989 123.177C406.69 123.225 403.515 124.442 401.03 126.612C398.544 128.782 396.909 131.763 396.417 135.025C395.313 141.839 399.037 146.873 405.851 146.873C412.664 146.873 417.768 141.508 418.871 135.025Z" fill="#5D5D5D"/>
</svg>
