<svg width="500" height="255" viewBox="0 0 500 255" fill="none" xmlns="http://www.w3.org/2000/svg">
<path d="M330.625 138L363.597 102.25H294.572C293.252 102.299 292.191 103.35 292.125 104.675V112.2C285.792 101.414 272.792 94 257.75 94C239.974 94 225.053 104.34 220.625 118.373V102.25H208.58C205.712 102.291 203.198 103.565 201.375 105.487L178.005 131.13L154.625 105.487C152.81 103.562 150.299 102.291 147.428 102.25H135.375V154.5H149.447C150.8 154.434 151.82 153.345 151.875 151.998V127L178 155.875L204.125 127V151.998C204.172 153.345 205.266 154.434 206.614 154.5H220.625V135.627C225.053 149.66 239.974 160 257.75 160C279.013 160 296.25 145.224 296.25 127C296.25 124.146 295.783 121.39 294.985 118.75H325.125L292.125 154.5H361.161C362.481 154.451 363.559 153.392 363.625 152.069V138H330.625ZM257.882 143.39C247.531 143.39 239.132 136.053 239.132 127C239.132 117.944 247.528 110.61 257.882 110.61C268.244 110.61 276.642 117.947 276.642 127C276.642 136.053 268.247 143.39 257.882 143.39Z" fill="#0195DD"/>
</svg>
